<svg width="64" height="64" viewBox="0 0 64 64" fill="none" xmlns="http://www.w3.org/2000/svg">
<path fill-rule="evenodd" clip-rule="evenodd" d="M40.2684 23.1255C40.4358 22.9582 40.7071 22.9582 40.8745 23.1255C41.0418 23.2929 41.0418 23.5642 40.8745 23.7316L32.6061 32L40.8745 40.2684C41.0418 40.4357 41.0418 40.7071 40.8745 40.8745C40.7071 41.0418 40.4358 41.0418 40.2684 40.8745L32 32.6061L23.7316 40.8745C23.5643 41.0418 23.2929 41.0418 23.1255 40.8745C22.9582 40.7071 22.9582 40.4357 23.1255 40.2684L31.3939 32L23.1255 23.7316C22.9582 23.5642 22.9582 23.2929 23.1255 23.1255C23.2929 22.9582 23.5643 22.9582 23.7316 23.1255L32 31.3939L40.2684 23.1255Z" fill="#F2F2F2"/>
</svg>
