<svg width="44" height="40" viewBox="0 0 44 40" fill="none" xmlns="http://www.w3.org/2000/svg">
<path d="M43.5654 2.35184C43.6249 2.04863 43.4832 1.76553 43.2489 1.71951L39.4303 0.969568C39.1959 0.923548 38.9577 1.13204 38.8982 1.43525C38.8386 1.73846 38.9803 2.02156 39.2146 2.06758L42.609 2.7342L41.7464 7.12624C41.6869 7.42945 41.8286 7.71256 42.0629 7.75858C42.2972 7.8046 42.5355 7.5961 42.595 7.2929L43.5654 2.35184ZM1.22378 39.5956L1.9763 38.937L1.52874 38.0427L0.77622 38.7013L1.22378 39.5956ZM3.48134 37.6199L4.98638 36.3027L4.53882 35.4085L3.03378 36.7256L3.48134 37.6199ZM6.49142 34.9856L7.99646 33.6684L7.54889 32.7742L6.04386 34.0913L6.49142 34.9856ZM9.50149 32.3513L11.0065 31.0342L10.559 30.1399L9.05393 31.457L9.50149 32.3513ZM12.5116 29.717L14.0166 28.3999L13.5691 27.5056L12.064 28.8228L12.5116 29.717ZM15.5216 27.0827L17.0267 25.7656L16.5791 24.8713L15.0741 26.1885L15.5216 27.0827ZM18.5317 24.4485L20.0368 23.1313L19.5892 22.2371L18.0842 23.5542L18.5317 24.4485ZM21.5418 21.8142L23.0468 20.497L22.5993 19.6028L21.0942 20.9199L21.5418 21.8142ZM24.5519 19.1799L26.0569 17.8628L25.6094 16.9685L24.1043 18.2856L24.5519 19.1799ZM27.562 16.5456L29.067 15.2285L28.6194 14.3342L27.1144 15.6514L27.562 16.5456ZM30.572 13.9113L32.0771 12.5942L31.6295 11.6999L30.1245 13.0171L30.572 13.9113ZM33.5821 11.2771L35.0872 9.95991L34.6396 9.06566L33.1346 10.3828L33.5821 11.2771ZM36.5922 8.64277L38.0972 7.32563L37.6497 6.43138L36.1446 7.74852L36.5922 8.64277ZM39.6023 6.00849L41.1073 4.69135L40.6597 3.7971L39.1547 5.11424L39.6023 6.00849ZM42.6123 3.37421L43.3649 2.71564L42.9173 1.82139L42.1648 2.47996L42.6123 3.37421Z" fill="#656C6F"/>
</svg>
