<svg width="44" height="40" viewBox="0 0 44 40" fill="none" xmlns="http://www.w3.org/2000/svg">
<path d="M43.0219 38.356C43.2562 38.31 43.3979 38.0269 43.3384 37.7237L42.368 32.7826C42.3084 32.4794 42.0702 32.2709 41.8359 32.3169C41.6015 32.363 41.4598 32.6461 41.5194 32.9493L42.382 37.3413L38.9876 38.0079C38.7533 38.054 38.6116 38.3371 38.6711 38.6403C38.7307 38.9435 38.9689 39.152 39.2033 39.106L43.0219 38.356ZM43.1378 37.3599L42.3853 36.7013L41.9378 37.5956L42.6903 38.2541L43.1378 37.3599ZM40.8803 35.3842L39.3752 34.067L38.9277 34.9613L40.4327 36.2784L40.8803 35.3842ZM37.8702 32.7499L36.3652 31.4327L35.9176 32.327L37.4226 33.6441L37.8702 32.7499ZM34.8601 30.1156L33.3551 28.7985L32.9075 29.6927L34.4126 31.0099L34.8601 30.1156ZM31.8501 27.4813L30.345 26.1642L29.8975 27.0584L31.4025 28.3756L31.8501 27.4813ZM28.84 24.847L27.3349 23.5299L26.8874 24.4242L28.3924 25.7413L28.84 24.847ZM25.8299 22.2128L24.3249 20.8956L23.8773 21.7899L25.3823 23.107L25.8299 22.2128ZM22.8198 19.5785L21.3148 18.2613L20.8672 19.1556L22.3723 20.4727L22.8198 19.5785ZM19.8097 16.9442L18.3047 15.6271L17.8571 16.5213L19.3622 17.8385L19.8097 16.9442ZM16.7997 14.3099L15.2946 12.9928L14.8471 13.887L16.3521 15.2042L16.7997 14.3099ZM13.7896 11.6756L12.2845 10.3585L11.837 11.2528L13.342 12.5699L13.7896 11.6756ZM10.7795 9.04137L9.27447 7.72423L8.82691 8.61848L10.3319 9.93562L10.7795 9.04137ZM7.76943 6.40709L6.26439 5.08995L5.81683 5.9842L7.32187 7.30134L7.76943 6.40709ZM4.75935 3.77281L3.25431 2.45567L2.80675 3.34992L4.31179 4.66706L4.75935 3.77281ZM1.74927 1.13853L0.996752 0.479958L0.549191 1.37421L1.30171 2.03278L1.74927 1.13853Z" fill="#656C6F"/>
</svg>
