<svg width="8" height="64" viewBox="0 0 8 64" fill="none" xmlns="http://www.w3.org/2000/svg">
<path d="M3.64645 63.3536C3.84171 63.5488 4.15829 63.5488 4.35356 63.3536L7.53554 60.1716C7.7308 59.9763 7.7308 59.6597 7.53554 59.4645C7.34027 59.2692 7.02369 59.2692 6.82843 59.4645L4 62.2929L1.17158 59.4645C0.976313 59.2692 0.659731 59.2692 0.464469 59.4645C0.269207 59.6597 0.269207 59.9763 0.464469 60.1716L3.64645 63.3536ZM3.5 2.18557e-08L3.5 0.984375L4.5 0.984375L4.5 -2.18557e-08L3.5 2.18557e-08ZM3.5 2.95313L3.5 4.92188L4.5 4.92188L4.5 2.95313L3.5 2.95313ZM3.5 6.89063L3.5 8.85937L4.5 8.85937L4.5 6.89063L3.5 6.89063ZM3.5 10.8281L3.5 12.7969L4.5 12.7969L4.5 10.8281L3.5 10.8281ZM3.5 14.7656L3.5 16.7344L4.5 16.7344L4.5 14.7656L3.5 14.7656ZM3.5 18.7031L3.5 20.6719L4.5 20.6719L4.5 18.7031L3.5 18.7031ZM3.5 22.6406L3.5 24.6094L4.5 24.6094L4.5 22.6406L3.5 22.6406ZM3.5 26.5781L3.5 28.5469L4.5 28.5469L4.5 26.5781L3.5 26.5781ZM3.5 30.5156L3.5 32.4844L4.5 32.4844L4.5 30.5156L3.5 30.5156ZM3.5 34.4531L3.5 36.4219L4.5 36.4219L4.5 34.4531L3.5 34.4531ZM3.5 38.3906L3.5 40.3594L4.5 40.3594L4.5 38.3906L3.5 38.3906ZM3.5 42.3281L3.5 44.2969L4.5 44.2969L4.5 42.3281L3.5 42.3281ZM3.5 46.2656L3.5 48.2344L4.5 48.2344L4.5 46.2656L3.5 46.2656ZM3.5 50.2031L3.5 52.1719L4.5 52.1719L4.5 50.2031L3.5 50.2031ZM3.5 54.1406L3.5 56.1094L4.5 56.1094L4.5 54.1406L3.5 54.1406ZM3.5 58.0781L3.5 60.0469L4.5 60.0469L4.5 58.0781L3.5 58.0781ZM3.5 62.0156L3.5 63L4.5 63L4.5 62.0156L3.5 62.0156Z" fill="#656C6F"/>
</svg>
