<svg width="64" height="64" viewBox="0 0 64 64" fill="none" xmlns="http://www.w3.org/2000/svg">
<path d="M61.5938 21.2078C59.8037 21.2078 59.1009 22.8823 58.8381 23.5147C57.9547 25.6205 57.9225 29.5012 57.8928 33.2576L57.8874 33.886L57.8696 35.1961C57.8492 36.8741 57.4111 38.1449 56.567 38.9627C55.7169 39.7825 54.7591 39.8719 54.3836 39.8719C52.5746 39.8719 51.2925 38.2314 50.8311 36.8641C50.8311 36.2725 50.8311 36.0791 50.8311 36.0791C50.8311 35.4621 50.3762 35.2815 50.2267 35.2046V23.8143H49.4953V23.1423H50.2392V22.6341H49.4953V22.029H50.2392V21.5207H49.4953V20.886H50.2392V20.3777H49.4953V19.7436H50.2392V19.2393H49.4953V18.5913H50.2392V18.0852H49.4935C49.4882 17.8856 49.4702 17.6847 49.4452 17.4876L50.2267 17.4107L50.1533 16.9089L49.3719 17.0505C49.3354 16.8681 49.2835 16.6922 49.2253 16.518L49.9352 16.1654L49.6913 15.7197L49.0518 16.1046C48.967 15.9293 48.8676 15.7655 48.755 15.6121L49.2467 15.1307L48.8769 14.7841L48.4527 15.2741C48.2936 15.1243 48.113 14.9948 47.9066 14.8922L48.1666 14.3367L47.7017 14.1386L47.4854 14.7205C47.2726 14.655 47.0458 14.6089 46.7951 14.5871L46.8237 13.9837H46.3141L46.3373 14.5774C46.0898 14.5896 45.8563 14.6214 45.6399 14.6822L45.4389 14.1386L44.9711 14.3367L45.2064 14.8417C45.0008 14.9411 44.8101 15.0663 44.6396 15.2122L44.2479 14.7556L43.8796 15.0989L44.322 15.5384C44.1942 15.694 44.0816 15.8621 43.9869 16.0466L43.4128 15.7029L43.166 16.1486L43.7955 16.4615C43.7257 16.6421 43.6649 16.8316 43.6156 17.0273L42.93 16.9089L42.861 17.4107L43.5291 17.4758C43.4987 17.6728 43.4772 17.876 43.4647 18.0852H42.8137V18.5913H43.4458V19.2393H42.8137V19.7436H43.4458V20.3777H42.8137V20.886H43.4458V21.519L42.8137 21.5207V22.029L43.4458 22.0247V22.6341H42.8137V23.1423L43.4458 23.1416V23.8186H42.8066L42.7995 24.3812C42.7995 24.3812 41.959 24.932 41.4751 25.683C41.2097 25.6372 40.9064 25.6516 40.5928 25.7428C39.8739 25.9477 38.8206 26.1522 38.066 26.1522C37.315 26.1522 36.8704 26.0014 36.6469 25.6616C36.5074 25.4459 36.4394 25.0954 36.2385 24.7764C36.0997 24.5565 35.8343 24.3551 35.4963 24.2381C35.4963 24.2381 35.261 23.3326 34.4026 23.3132C34.3859 23.3132 34.3741 23.3183 34.3544 23.3183V16.4658C34.7925 16.4383 35.1358 16.0766 35.1358 15.6336C35.1358 15.4237 35.0593 15.2362 34.9319 15.0888H36.0507L37.5349 10.1591C37.5349 10.1591 36.8143 9.92875 36.0203 9.77494L35.6627 11.3C35.6627 11.3 35.2334 11.2245 34.839 11.1347L34.5576 12.723C34.5576 12.723 33.8983 12.7845 33.4514 12.7177L33.6749 11.0965C33.6749 11.0965 33.201 11.1186 33.0186 11.1015L33.2242 9.064C33.2242 9.064 32.5 8.9999 32.0171 8.9999C31.5362 8.9999 30.8154 9.064 30.8154 9.064L31.0175 11.1015C30.8423 11.1186 30.367 11.0965 30.367 11.0965L30.5865 12.7177C30.1381 12.7845 29.4782 12.723 29.4782 12.723L29.2007 11.1347C28.8073 11.2245 28.3728 11.3 28.3728 11.3L28.0169 9.77494C27.224 9.92875 26.5058 10.1591 26.5058 10.1591L27.9865 15.0888H29.0469C28.9218 15.2362 28.8394 15.4237 28.8394 15.6336C28.8394 16.0849 29.2007 16.4501 29.646 16.4693V23.3183C29.6317 23.3158 29.6174 23.3132 29.5977 23.3132C28.7465 23.3326 28.5033 24.2381 28.5033 24.2381C28.1671 24.3551 27.9043 24.5565 27.763 24.7764C27.5591 25.0954 27.4929 25.4459 27.3516 25.6616C27.1371 26.0014 26.6865 26.1522 25.9347 26.1522C25.1818 26.1522 24.1285 25.9477 23.4115 25.7428C23.095 25.6516 22.7927 25.6372 22.5317 25.683C22.0453 24.932 21.2638 24.3812 21.2638 24.3812L21.2591 23.8079H20.5557V23.1423H21.2287V22.6341H20.5557V22.029H21.2287V21.5207H20.5557V20.886H21.2287V20.3777H20.5557V19.7436H21.2287V19.2393H20.5557V18.5913H21.2287V18.0852H20.5414C20.5296 17.8807 20.5081 17.6785 20.477 17.4847L21.2145 17.4107L21.1447 16.9089L20.3901 17.0445C20.3454 16.8592 20.29 16.685 20.2256 16.5151L20.9259 16.1654L20.6833 15.7197L20.0467 16.1031C19.9584 15.9293 19.8537 15.7673 19.7407 15.6175L20.2364 15.1307L19.8679 14.7841L19.4402 15.2759C19.2786 15.1243 19.1004 14.9948 18.903 14.8922L19.1587 14.3367L18.6927 14.1386L18.4775 14.718C18.2646 14.6486 18.0364 14.6036 17.7861 14.5871L17.814 13.9837H17.3068L17.3276 14.5821C17.0808 14.595 16.8448 14.6271 16.6338 14.6858L16.4317 14.1386L15.9621 14.3367L16.2017 14.8417C15.9854 14.9411 15.7968 15.0663 15.6287 15.2068L15.24 14.7556L14.8734 15.0989L15.3087 15.5348C15.181 15.6929 15.0702 15.8621 14.9754 16.0466L14.4042 15.7029L14.1606 16.1486L14.8001 16.4651C14.7321 16.6485 14.676 16.837 14.6356 17.0338L13.9231 16.9089L13.852 17.4107L14.558 17.4787C14.5312 17.6785 14.5169 17.8813 14.5115 18.0852H13.8051V18.5913H14.5051V19.2393H13.8051V19.7436H14.5051V20.3777H13.8051V20.886H14.5051V21.519L13.8051 21.5207V22.029L14.5051 22.0247V22.6331L13.8051 22.6341V23.1423L14.5051 23.1416V23.8054H13.7801V35.2046C13.6263 35.2815 13.1711 35.4621 13.1711 36.0791C13.1711 36.0791 13.1711 36.2725 13.1711 36.8641C12.709 38.2314 11.4264 39.8719 9.61747 39.8719C9.24659 39.8719 8.28667 39.7825 7.43798 38.9627C6.59 38.1449 6.15117 36.8741 6.13043 35.1961L6.11898 33.886L6.1129 33.2576C6.08178 29.5012 6.04996 25.6205 5.16585 23.5147C4.90156 22.8823 4.19771 21.2078 2.40698 21.2078C1.6198 21.2107 1 21.7729 1 22.4896C1 23.1959 1.57617 23.7721 2.28394 23.7721C2.42915 23.7721 2.574 23.7471 2.726 23.6946C2.726 23.6946 2.72886 23.6899 2.74137 23.6873C2.74137 23.6873 2.80003 23.6623 2.78859 23.6684C3.32827 23.4657 3.70488 23.6255 3.97883 24.1727C4.80642 25.8404 4.83718 29.6157 4.86043 32.6468C4.86043 32.6468 4.86972 33.8985 4.86972 33.8967L4.88439 35.2683C4.94304 39.9256 7.88646 41.1719 9.61747 41.1719C10.4851 41.1719 11.1957 41.0432 11.8317 40.7141C12.1822 40.5751 13.1456 40.3533 13.3413 40.3862C13.3413 41.7781 13.077 44.6429 13.3938 46.0907C13.4739 46.4554 13.5473 46.7326 13.6528 46.9311C13.0019 46.9365 12.4501 47.0527 12.0863 47.2165C11.7029 47.3925 11.5251 47.3388 11.3202 47.2144C11.1199 47.0903 10.822 46.9615 10.5173 47.0384C9.49551 47.2941 9.94436 48.7193 10.0695 49.2962C10.1919 49.871 10.1586 50.6917 10.1203 52.0472C10.0842 53.2221 10.199 53.9892 10.2899 54.4427C10.4959 55.4252 11.4175 55.6459 12.0223 55.5872C12.4501 55.5386 12.7465 55.3258 12.9099 55.104C13.2193 55.2313 13.3792 55.4706 13.4017 55.5872C13.4403 55.7928 13.5043 55.8 13.5798 55.7149C13.675 55.6047 13.7032 55.5067 13.7111 55.3279C13.7111 55.2206 13.6903 55.0772 13.6424 54.9416C13.7998 54.8519 13.7765 54.9216 13.887 54.7875C13.9418 54.7163 14.1002 54.7725 14.2254 54.8751C14.3523 54.9467 14.6277 55.1705 14.7743 55.545C14.8619 55.7757 15.098 55.569 15.181 55.324C15.2296 55.1773 15.2296 54.9345 15.2043 54.7027C15.3773 54.7592 15.7278 54.9288 15.863 55.4813C15.9077 55.6648 15.8344 55.8161 16.0401 55.6612C16.2493 55.5067 16.3841 55.0514 16.3494 54.7671C16.3047 54.3941 16.0401 54.0901 15.7182 54.0132C15.7082 54.0132 15.7111 54.0096 15.7154 54.0096C15.3738 53.2983 14.8501 53.1459 14.5544 53.0708C14.3706 53.0265 14.0555 53.0265 13.7711 53.1105C13.2937 53.0898 12.5184 52.9771 12.4411 52.4639C12.3642 51.9489 12.3495 51.2532 12.366 50.994C12.3942 50.5451 12.8034 50.0451 12.9861 49.8638C13.1638 49.6857 13.2719 49.6009 13.7111 49.6528C14.1499 49.7054 15.4107 50.1553 16.284 50.0712C16.9593 50.0015 17.77 49.5151 17.5698 47.852C18.0525 46.8739 18.354 45.4243 18.354 44.4813C18.354 43.513 18.3172 42.6901 18.2342 42.0128C18.481 42.2334 18.9281 42.2896 19.8197 42.2896C20.3007 42.2896 20.8801 42.1215 21.2549 41.9145C21.6329 41.7102 21.7467 41.8819 21.7688 42.1869C21.8647 43.3522 21.6848 44.6278 21.6848 44.6278C21.6644 44.8843 21.7199 45.1787 21.903 45.2931C22.0918 45.4122 22.3189 45.3897 22.537 45.3038C22.7803 45.2019 23.1647 45.268 23.4473 45.2502C23.9355 45.2173 24.3038 45.125 25.0781 45.0864C25.7977 45.0524 27.509 45.1625 28.328 45.1625C29.0229 45.1625 29.4349 44.7001 29.646 44.3085V50.4772C29.2007 50.495 28.8394 50.8616 28.8394 51.3123C28.8394 51.6037 28.9861 51.8602 29.215 52.0125H28.0366V55.6444H35.913V52.0125H34.7621C34.9892 51.8602 35.1358 51.6037 35.1358 51.3123C35.1358 50.8706 34.7925 50.5111 34.3544 50.4789V44.3049C34.5653 44.6976 34.9767 45.1625 35.6716 45.1625C36.4942 45.1625 38.2073 45.0524 38.9244 45.0864C39.6976 45.125 40.0624 45.2173 40.5559 45.2502C40.8377 45.268 41.2223 45.2019 41.4644 45.3038C41.6854 45.3897 41.9125 45.4122 42.1002 45.2931C42.2844 45.1787 42.3399 44.8843 42.3167 44.6278C42.3167 44.6278 42.136 43.3522 42.2344 42.1869C42.2594 41.8819 42.3703 41.7102 42.7465 41.9145C43.1267 42.1215 43.7043 42.2896 44.1818 42.2896C45.0758 42.2896 45.5201 42.2334 45.7733 42.0128C45.6863 42.6901 45.6506 43.513 45.6506 44.4813C45.6506 45.4243 45.9492 46.8739 46.4313 47.852C46.23 49.5151 47.0458 50.0015 47.7214 50.0712C48.5923 50.1553 49.8565 49.7054 50.2946 49.6528C50.7338 49.6009 50.84 49.6857 51.0189 49.8638C51.2013 50.0451 51.609 50.5451 51.6405 50.994C51.6529 51.2532 51.6405 51.9489 51.5607 52.4639C51.4824 52.9771 50.7095 53.0898 50.2313 53.1105C49.946 53.0265 49.6358 53.0265 49.4492 53.0708C49.1555 53.1459 48.6273 53.2983 48.2875 54.0096C48.2936 54.0096 48.2936 54.0132 48.2846 54.0132C47.9592 54.0901 47.6957 54.3941 47.6499 54.7671C47.6195 55.0514 47.7554 55.5067 47.9593 55.6612C48.1666 55.8161 48.0969 55.6648 48.1398 55.4813C48.2732 54.9288 48.6273 54.7592 48.7997 54.7027C48.7711 54.9345 48.7764 55.1773 48.8247 55.324C48.9088 55.569 49.1448 55.7757 49.2324 55.545C49.3755 55.1705 49.6537 54.9467 49.7796 54.8751C49.8994 54.7725 50.0632 54.7163 50.1158 54.7875C50.2278 54.9216 50.2045 54.8519 50.3636 54.9416C50.3143 55.0772 50.2929 55.2206 50.2964 55.3279C50.3017 55.5067 50.3286 55.6047 50.4234 55.7149C50.4985 55.8 50.5593 55.7928 50.604 55.5872C50.624 55.4706 50.7839 55.2313 51.0957 55.104C51.2603 55.3258 51.5571 55.5386 51.9773 55.5872C52.5871 55.6459 53.5092 55.4252 53.7094 54.4427C53.8077 53.9892 53.9176 53.2221 53.8847 52.0472C53.8435 50.6917 53.8077 49.871 53.9366 49.2962C54.0599 48.7193 54.5105 47.2941 53.4841 47.0384C53.1844 46.9615 52.8833 47.0903 52.6784 47.2144C52.482 47.3388 52.2992 47.3925 51.9165 47.2165C51.5518 47.0527 50.9974 46.9365 50.3483 46.9311C50.4538 46.7326 50.5306 46.4554 50.6129 46.0907C50.9259 44.6429 50.6666 41.7781 50.6666 40.3862C50.858 40.3533 51.8193 40.5751 52.1705 40.7141C52.8089 41.0432 53.5199 41.1719 54.3836 41.1719C56.1135 41.1719 59.0616 39.9256 59.1188 35.2683L59.1313 33.8967C59.1313 33.8985 59.1446 32.6468 59.1446 32.6468C59.166 29.6157 59.1975 25.8404 60.0219 24.1727C60.2991 23.6255 60.6764 23.4657 61.2146 23.6684C61.2047 23.6623 61.2619 23.6873 61.2619 23.6873C61.2736 23.6899 61.2808 23.6946 61.2808 23.6946C61.4263 23.7471 61.5723 23.7721 61.7189 23.7721C62.4235 23.7721 63 23.1959 63 22.4896C63 21.7729 62.3831 21.2107 61.5938 21.2078ZM29.5011 39.0235C29.2687 39.0235 28.7833 39.237 28.3817 39.8508C28.2505 39.8569 28.1171 39.8955 28.0062 39.976C27.6203 40.2586 27.5888 40.8683 27.9697 41.374C27.8964 41.477 27.8471 41.5943 27.8238 41.7173C27.7569 41.8382 27.6342 42.0213 27.5781 42.178C27.2454 42.4809 26.749 42.792 26.4891 42.8372C25.8972 42.9434 25.3714 42.8665 24.8117 42.7366C24.2251 42.6011 24.1769 42.2896 24.2824 41.9145C24.3814 41.5406 24.4934 40.4817 24.4647 39.7704C24.4486 39.3944 24.326 38.7171 23.7842 38.5078C23.694 38.2636 23.542 38.0425 23.3192 37.8809C22.8107 37.5061 21.7814 37.2646 20.806 37.3329C20.0343 37.3902 19.0593 37.6277 18.7259 38.0157C18.7259 37.0822 18.7259 36.0276 18.7259 35.8644C18.7259 35.5873 18.7259 35.4156 18.555 35.2497C18.3809 35.0759 18.3172 34.9382 18.3172 34.6997C18.4049 34.6173 18.4238 34.3194 18.4238 34.3194C19.206 34.0755 18.9674 33.6327 18.9674 33.6327C19.8028 33.4772 19.859 32.729 19.859 32.729C20.6415 32.3338 20.4544 31.6507 20.4544 31.6507C20.5225 31.5828 20.7113 31.429 20.781 31.2055C20.8471 30.9873 20.8998 30.3704 20.8998 30.1289C20.8998 29.9143 21.178 29.6271 21.3683 29.4619C22.1758 28.8933 23.2398 28.6365 23.7495 28.5392C23.9462 28.5631 24.1625 28.585 24.4047 28.5989C24.9126 28.6304 25.5252 28.5703 26.2011 28.4265C26.9833 28.2531 27.2927 28.2763 27.5244 28.3568C27.7451 28.4337 28.0788 28.6304 28.3871 29.2205C28.3871 29.2205 28.8413 30.1342 29.5977 30.1117C29.6174 30.1117 29.6317 30.1111 29.646 30.1092V39.0372C29.5977 39.03 29.5494 39.0235 29.5011 39.0235ZM45.4486 35.2497C45.2769 35.4156 45.2769 35.5873 45.2769 35.8644C45.2769 36.0276 45.2769 37.0822 45.2769 38.0157C44.9424 37.6277 43.9715 37.3902 43.1946 37.3329C42.2218 37.2646 41.1955 37.5061 40.6858 37.8809C40.4658 38.0425 40.3103 38.2636 40.2208 38.5078C39.6797 38.7171 39.5538 39.3944 39.5396 39.7704C39.5127 40.4817 39.6218 41.5406 39.7244 41.9145C39.8263 42.2896 39.7792 42.6011 39.1908 42.7366C38.634 42.8665 38.1036 42.9434 37.5124 42.8372C37.2524 42.792 36.757 42.4809 36.4244 42.178C36.3655 42.0213 36.2439 41.8382 36.1777 41.7173C36.1551 41.5943 36.1051 41.477 36.031 41.374C36.4137 40.8683 36.3815 40.2586 35.9989 39.976C35.8844 39.8955 35.751 39.8569 35.618 39.8508C35.2216 39.237 34.737 39.0235 34.4992 39.0235C34.4509 39.0235 34.4026 39.03 34.3544 39.0372V30.1092C34.3741 30.1111 34.3876 30.1117 34.4026 30.1117C35.1627 30.1342 35.615 29.2205 35.615 29.2205C35.9219 28.6304 36.2546 28.4337 36.477 28.3568C36.7124 28.2763 37.0206 28.2531 37.8067 28.4265C38.4773 28.5703 39.0871 28.6304 39.6003 28.5989C39.8407 28.585 40.057 28.5631 40.2548 28.5392C40.7651 28.6365 41.8274 28.8933 42.6332 29.4619C42.8263 29.6271 43.1034 29.9143 43.1034 30.1289C43.1034 30.3704 43.1571 30.9873 43.224 31.2055C43.293 31.429 43.479 31.5828 43.5488 31.6507C43.5488 31.6507 43.3591 32.3338 44.146 32.729C44.146 32.729 44.2032 33.4772 45.0383 33.6327C45.0383 33.6327 44.794 34.0755 45.582 34.3194C45.582 34.3194 45.6006 34.6173 45.6882 34.6997C45.6882 34.9382 45.6184 35.0759 45.4486 35.2497ZM48.2875 54.0096C48.2865 54.0096 48.2865 54.0132 48.2846 54.0132C48.2732 54.0078 48.2803 54.0078 48.2875 54.0096ZM15.7182 54.0132L15.7154 54.0096C15.7207 54.0078 15.7314 54.0078 15.7182 54.0132ZM18.4245 20.6374C18.4882 20.6295 18.5765 20.6653 18.6205 20.7107L18.6516 20.749C18.6938 20.7961 18.7259 20.886 18.7171 20.9489L18.6015 21.9213C18.5979 21.9846 18.5407 22.0429 18.4756 22.0501L18.0589 22.1001C17.9964 22.1066 17.9212 22.1624 17.8962 22.2199L17.6109 22.6098C17.5644 22.6548 17.4857 22.6548 17.4428 22.6141L17.1577 22.2218C17.1309 22.1648 17.0565 22.1109 16.9921 22.1038L16.5747 22.0511C16.5122 22.0429 16.4521 21.9846 16.4478 21.9213L16.3351 20.9489C16.328 20.886 16.3566 20.7961 16.3985 20.749L16.4324 20.7107C16.4771 20.6653 16.5647 20.6374 16.6266 20.6427C17.2801 20.7136 17.7389 20.7265 18.4245 20.6374ZM17.5268 17.6396H16.9439C16.8938 17.6396 16.8519 17.5877 16.8519 17.5459V16.8768C16.8519 16.8345 16.8097 16.783 16.7608 16.783H15.6473C15.6045 16.783 15.5966 16.7258 15.6091 16.6946C15.888 15.9168 16.6535 15.3785 17.5268 15.3785C18.4005 15.3785 19.1648 15.9168 19.4437 16.6946C19.4546 16.7258 19.4448 16.783 19.4073 16.783H18.2904C18.2414 16.783 18.1985 16.8345 18.1985 16.8768V17.5459C18.1985 17.5877 18.158 17.6396 18.1062 17.6396H17.5268ZM17.5028 18.9185C17.5028 18.6839 17.7764 18.4987 18.0036 18.392C18.1788 18.3083 18.2807 18.1231 18.3004 17.9218C18.5014 18.1714 18.6606 18.5555 18.6606 19.2257C18.6606 19.8438 18.4048 20.0751 18.127 20.1109C17.8604 20.1474 17.5028 19.9936 17.5028 19.6432C17.5028 19.9936 17.1531 20.1474 16.8859 20.1109C16.6077 20.0751 16.3512 19.8438 16.3512 19.2257C16.3512 18.5555 16.5122 18.1714 16.7088 17.9218C16.7274 18.1231 16.833 18.3083 17.0082 18.392C17.2336 18.4987 17.5028 18.6839 17.5028 18.9185ZM47.3726 20.6427C47.4406 20.6374 47.5276 20.6653 47.5704 20.7107L47.6034 20.749C47.6484 20.7961 47.6784 20.886 47.6695 20.9489L47.558 21.9213C47.549 21.9846 47.4889 22.0429 47.4263 22.0511L47.0096 22.1038C46.9453 22.1109 46.8702 22.1648 46.8445 22.2218L46.5612 22.6141C46.5126 22.6548 46.4392 22.6548 46.3927 22.6098L46.1094 22.2199C46.0816 22.1624 46.0083 22.1066 45.945 22.1001L45.5255 22.0501C45.4646 22.0429 45.4067 21.9846 45.3978 21.9213L45.2858 20.9489C45.2805 20.886 45.3073 20.7961 45.3512 20.749L45.3852 20.7107C45.4282 20.6653 45.5165 20.6295 45.579 20.6374C46.2657 20.7265 46.7253 20.7136 47.3726 20.6427ZM45.8938 17.6396C45.8473 17.6396 45.8044 17.5877 45.8044 17.5459V16.8768C45.8044 16.8345 45.7644 16.783 45.7107 16.783H44.5974C44.5544 16.783 44.5454 16.7258 44.5616 16.6946C44.8424 15.9168 45.6041 15.3785 46.4796 15.3785C47.3512 15.3785 48.113 15.9168 48.3938 16.6946C48.4073 16.7258 48.3955 16.783 48.3562 16.783H47.2439C47.1931 16.783 47.1509 16.8345 47.1509 16.8768V17.5459C47.1509 17.5877 47.1098 17.6396 47.0597 17.6396H46.4796H45.8938ZM47.7983 17.601C48.0683 17.6582 48.3312 17.5559 48.4903 17.4722C48.4903 17.4722 48.6566 17.3006 48.6566 17.9693C48.6566 18.5999 48.4163 19.0033 48.2499 19.1828C48.3047 18.0291 47.7983 17.601 47.7983 17.601ZM44.7332 19.1828C44.5651 19.0033 44.3238 18.5999 44.3238 17.9693C44.3238 17.3006 44.4929 17.4722 44.4929 17.4722C44.6467 17.5559 44.912 17.6582 45.1857 17.601C45.1857 17.601 44.6753 18.0291 44.7332 19.1828ZM18.7993 17.601C19.0736 17.6582 19.3394 17.5559 19.4914 17.4722C19.4914 17.4722 19.6602 17.3006 19.6602 17.9693C19.6602 18.5999 19.4216 19.0033 19.2499 19.1828C19.3079 18.0291 18.7993 17.601 18.7993 17.601ZM15.7343 19.1828C15.5679 19.0033 15.3266 18.5999 15.3266 17.9693C15.3266 17.3006 15.4953 17.4722 15.4953 17.4722C15.652 17.5559 15.9167 17.6582 16.1856 17.601C16.1856 17.601 15.6796 18.0291 15.7343 19.1828ZM46.4957 18.9185C46.4957 18.6839 46.77 18.4987 46.9918 18.392C47.1681 18.3083 47.2726 18.1231 47.2904 17.9218C47.4925 18.1714 47.6499 18.5555 47.6499 19.2257C47.6499 19.8438 47.3942 20.0751 47.1169 20.1109C46.8533 20.1474 46.4957 19.9936 46.4957 19.6432C46.4957 19.9936 46.1452 20.1474 45.8795 20.1109C45.6006 20.0751 45.343 19.8438 45.343 19.2257C45.343 18.5555 45.4986 18.1714 45.7007 17.9218C45.7186 18.1231 45.8259 18.3083 46.0011 18.392C46.2229 18.4987 46.4957 18.6839 46.4957 18.9185Z" fill="#202B30"/>
</svg>
