<svg width="75" height="57" viewBox="0 0 75 57" fill="none" xmlns="http://www.w3.org/2000/svg">
<path d="M74.7487 3.19015C74.863 2.62616 74.5361 2.08391 74.0185 1.97901L65.5843 0.269476C65.0667 0.164572 64.5545 0.536736 64.4402 1.10073C64.3258 1.66473 64.6527 2.20698 65.1703 2.31188L72.6674 3.83146L71.0115 12.0011C70.8972 12.5651 71.2241 13.1073 71.7417 13.2122C72.2592 13.3171 72.7715 12.945 72.8858 12.381L74.7487 3.19015ZM1.51629 56.7573L2.30772 56.1823L1.27514 54.4695L0.483707 55.0445L1.51629 56.7573ZM3.89058 55.0323L5.47344 53.8823L4.44085 52.1694L2.858 53.3194L3.89058 55.0323ZM7.0563 52.7322L8.63916 51.5822L7.60657 49.8694L6.02371 51.0194L7.0563 52.7322ZM10.222 50.4322L11.8049 49.2822L10.7723 47.5694L9.18943 48.7194L10.222 50.4322ZM13.3877 48.1322L14.9706 46.9822L13.938 45.2693L12.3552 46.4194L13.3877 48.1322ZM16.5535 45.8322L18.1363 44.6821L17.1037 42.9693L15.5209 44.1193L16.5535 45.8322ZM19.7192 43.5321L21.302 42.3821L20.2694 40.6693L18.6866 41.8193L19.7192 43.5321ZM22.8849 41.2321L24.4678 40.0821L23.4352 38.3693L21.8523 39.5193L22.8849 41.2321ZM26.0506 38.9321L27.6335 37.782L26.6009 36.0692L25.018 37.2192L26.0506 38.9321ZM29.2163 36.632L30.7992 35.482L29.7666 33.7692L28.1837 34.9192L29.2163 36.632ZM32.382 34.332L33.9649 33.182L32.9323 31.4692L31.3495 32.6192L32.382 34.332ZM35.5478 32.032L37.1306 30.882L36.098 29.1691L34.5152 30.3192L35.5478 32.032ZM38.7135 29.732L40.2963 28.5819L39.2637 26.8691L37.6809 28.0191L38.7135 29.732ZM41.8792 27.4319L43.4621 26.2819L42.4295 24.5691L40.8466 25.7191L41.8792 27.4319ZM45.0449 25.1319L46.6278 23.9819L45.5952 22.2691L44.0123 23.4191L45.0449 25.1319ZM48.2106 22.8319L49.7935 21.6819L48.7609 19.969L47.178 21.119L48.2106 22.8319ZM51.3763 20.5318L52.9592 19.3818L51.9266 17.669L50.3438 18.819L51.3763 20.5318ZM54.5421 18.2318L56.1249 17.0818L55.0923 15.369L53.5095 16.519L54.5421 18.2318ZM57.7078 15.9318L59.2906 14.7818L58.258 13.0689L56.6752 14.219L57.7078 15.9318ZM60.8735 13.6318L62.4564 12.4817L61.4238 10.7689L59.8409 11.9189L60.8735 13.6318ZM64.0392 11.3317L65.6221 10.1817L64.5895 8.4689L63.0066 9.61891L64.0392 11.3317ZM67.2049 9.0317L68.7878 7.88169L67.7552 6.16887L66.1723 7.31888L67.2049 9.0317ZM70.3706 6.73168L71.9535 5.58166L70.9209 3.86884L69.3381 5.01885L70.3706 6.73168ZM73.5364 4.43165L74.3278 3.85662L73.2952 2.1438L72.5038 2.71883L73.5364 4.43165Z" fill="#656C6F"/>
</svg>
