<svg width="75" height="57" viewBox="0 0 75 57" fill="none" xmlns="http://www.w3.org/2000/svg">
<path d="M74.0185 54.9221C74.5361 54.8172 74.863 54.2749 74.7487 53.7109L72.8858 44.5201C72.7715 43.9561 72.2592 43.584 71.7417 43.6889C71.2241 43.7938 70.8972 44.336 71.0115 44.9L72.6674 53.0696L65.1703 54.5892C64.6527 54.6941 64.3258 55.2364 64.4402 55.8004C64.5545 56.3643 65.0667 56.7365 65.5843 56.6316L74.0185 54.9221ZM74.3278 53.0445L73.5364 52.4695L72.5038 54.1823L73.2952 54.7573L74.3278 53.0445ZM71.9535 51.3194L70.3707 50.1694L69.3381 51.8823L70.9209 53.0323L71.9535 51.3194ZM68.7878 49.0194L67.2049 47.8694L66.1724 49.5822L67.7552 50.7322L68.7878 49.0194ZM65.6221 46.7194L64.0392 45.5694L63.0066 47.2822L64.5895 48.4322L65.6221 46.7194ZM62.4564 44.4194L60.8735 43.2693L59.8409 44.9822L61.4238 46.1322L62.4564 44.4194ZM59.2907 42.1193L57.7078 40.9693L56.6752 42.6821L58.2581 43.8322L59.2907 42.1193ZM56.1249 39.8193L54.5421 38.6693L53.5095 40.3821L55.0923 41.5321L56.1249 39.8193ZM52.9592 37.5193L51.3764 36.3693L50.3438 38.0821L51.9266 39.2321L52.9592 37.5193ZM49.7935 35.2192L48.2106 34.0692L47.178 35.782L48.7609 36.9321L49.7935 35.2192ZM46.6278 32.9192L45.0449 31.7692L44.0123 33.482L45.5952 34.632L46.6278 32.9192ZM43.4621 30.6192L41.8792 29.4692L40.8466 31.182L42.4295 32.332L43.4621 30.6192ZM40.2963 28.3192L38.7135 27.1691L37.6809 28.882L39.2638 30.032L40.2963 28.3192ZM37.1306 26.0191L35.5478 24.8691L34.5152 26.5819L36.098 27.732L37.1306 26.0191ZM33.9649 23.7191L32.3821 22.5691L31.3495 24.2819L32.9323 25.4319L33.9649 23.7191ZM30.7992 21.4191L29.2163 20.2691L28.1838 21.9819L29.7666 23.1319L30.7992 21.4191ZM27.6335 19.119L26.0506 17.969L25.018 19.6819L26.6009 20.8319L27.6335 19.119ZM24.4678 16.819L22.8849 15.669L21.8523 17.3818L23.4352 18.5318L24.4678 16.819ZM21.302 14.519L19.7192 13.369L18.6866 15.0818L20.2695 16.2318L21.302 14.519ZM18.1363 12.219L16.5535 11.0689L15.5209 12.7818L17.1037 13.9318L18.1363 12.219ZM14.9706 9.91894L13.3878 8.76892L12.3552 10.4817L13.938 11.6318L14.9706 9.91894ZM11.8049 7.61891L10.222 6.46889L9.18945 8.18172L10.7723 9.33173L11.8049 7.61891ZM8.63918 5.31888L7.05632 4.16887L6.02374 5.88169L7.60659 7.0317L8.63918 5.31888ZM5.47347 3.01885L3.89061 1.86884L2.85802 3.58166L4.44088 4.73168L5.47347 3.01885ZM2.30775 0.718827L1.51629 0.143795L0.4837 1.85662L1.27516 2.43165L2.30775 0.718827Z" fill="#B1B1B1"/>
</svg>
