<svg width="310" height="486" viewBox="0 0 310 486" fill="none" xmlns="http://www.w3.org/2000/svg">
<rect x="310" y="52" width="30" height="200" transform="rotate(90 310 52)" fill="#D9E4E6"/>
<rect x="298" y="94" width="30" height="187" transform="rotate(90 298 94)" fill="#D9E4E6"/>
<rect x="285" y="137" width="30" height="175" transform="rotate(90 285 137)" fill="#D9E4E6"/>
<rect x="273" y="180" width="30" height="162" transform="rotate(90 273 180)" fill="#D9E4E6"/>
<rect x="260" y="235" width="30" height="150" transform="rotate(90 260 235)" fill="#D9E4E6"/>
<rect x="248" y="293" width="30" height="137" transform="rotate(90 248 293)" fill="#D9E4E6"/>
<rect x="235" y="367" width="30" height="125" transform="rotate(90 235 367)" fill="#D9E4E6"/>
<rect x="223" y="438" width="30" height="112" transform="rotate(90 223 438)" fill="#D9E4E6"/>
<path d="M56.308 72L60.886 67.17C61.1007 66.9273 61.292 66.6893 61.46 66.456C61.6373 66.2227 61.7727 65.9753 61.866 65.714C61.9687 65.4433 62.02 65.154 62.02 64.846C62.02 64.6033 61.978 64.3607 61.894 64.118C61.81 63.8753 61.6793 63.656 61.502 63.46C61.3247 63.2547 61.1007 63.0913 60.83 62.97C60.5687 62.8393 60.256 62.774 59.892 62.774C59.416 62.774 59.0053 62.8907 58.66 63.124C58.3147 63.348 58.0487 63.67 57.862 64.09C57.6753 64.51 57.582 65 57.582 65.56H56.812C56.812 64.86 56.9333 64.2487 57.176 63.726C57.428 63.194 57.7827 62.7833 58.24 62.494C58.7067 62.1953 59.2573 62.046 59.892 62.046C60.4053 62.046 60.844 62.1347 61.208 62.312C61.5813 62.4893 61.8847 62.718 62.118 62.998C62.3607 63.2687 62.538 63.5673 62.65 63.894C62.762 64.2113 62.818 64.5193 62.818 64.818C62.818 65.35 62.6873 65.8493 62.426 66.316C62.174 66.7827 61.8613 67.2073 61.488 67.59L57.918 71.272H63V72H56.308ZM65.0703 67.1C65.0703 67.7067 65.1309 68.2713 65.2523 68.794C65.3736 69.3167 65.5463 69.774 65.7703 70.166C66.0036 70.558 66.2836 70.866 66.6103 71.09C66.9369 71.3047 67.3056 71.412 67.7163 71.412C68.1363 71.412 68.5049 71.3047 68.8223 71.09C69.1489 70.866 69.4243 70.558 69.6483 70.166C69.8816 69.774 70.0589 69.3167 70.1803 68.794C70.3016 68.2713 70.3623 67.7067 70.3623 67.1C70.3623 66.4933 70.3016 65.9287 70.1803 65.406C70.0589 64.8833 69.8816 64.426 69.6483 64.034C69.4243 63.642 69.1489 63.3387 68.8223 63.124C68.5049 62.9 68.1363 62.788 67.7163 62.788C67.3056 62.788 66.9369 62.9 66.6103 63.124C66.2836 63.3387 66.0036 63.642 65.7703 64.034C65.5463 64.426 65.3736 64.8833 65.2523 65.406C65.1309 65.9287 65.0703 66.4933 65.0703 67.1ZM64.3003 67.1C64.3003 66.1387 64.4403 65.28 64.7203 64.524C65.0003 63.768 65.3969 63.1707 65.9103 62.732C66.4236 62.284 67.0256 62.06 67.7163 62.06C68.4069 62.06 69.0089 62.284 69.5223 62.732C70.0356 63.1707 70.4323 63.768 70.7123 64.524C70.9923 65.28 71.1323 66.1387 71.1323 67.1C71.1323 68.0613 70.9923 68.92 70.7123 69.676C70.4323 70.432 70.0356 71.034 69.5223 71.482C69.0089 71.9207 68.4069 72.14 67.7163 72.14C67.0256 72.14 66.4236 71.9207 65.9103 71.482C65.3969 71.034 65.0003 70.432 64.7203 69.676C64.4403 68.92 64.3003 68.0613 64.3003 67.1ZM72.8133 61.08H73.5413V72H72.8133V61.08ZM76.2993 65.56H77.2373L74.1993 68.22L77.5033 72H76.5793L73.2753 68.22L76.2993 65.56Z" fill="#4C575C"/>
<path d="M59.514 108.072V107.568C59.8313 107.568 60.13 107.521 60.41 107.428C60.69 107.335 60.9373 107.204 61.152 107.036C61.376 106.868 61.5487 106.667 61.67 106.434C61.8007 106.191 61.866 105.925 61.866 105.636C61.866 105.3 61.7913 104.992 61.642 104.712C61.502 104.423 61.292 104.194 61.012 104.026C60.7413 103.849 60.4053 103.76 60.004 103.76C59.416 103.76 58.94 103.937 58.576 104.292C58.212 104.647 58.03 105.095 58.03 105.636H57.288C57.288 105.123 57.4 104.675 57.624 104.292C57.8573 103.909 58.1747 103.611 58.576 103.396C58.9867 103.172 59.458 103.06 59.99 103.06C60.55 103.06 61.026 103.181 61.418 103.424C61.8193 103.667 62.1227 103.979 62.328 104.362C62.5427 104.745 62.65 105.16 62.65 105.608C62.65 106.084 62.5053 106.509 62.216 106.882C61.936 107.255 61.558 107.549 61.082 107.764C60.6153 107.969 60.0927 108.072 59.514 108.072ZM59.934 113.14C59.458 113.14 59.0287 113.07 58.646 112.93C58.2727 112.79 57.9507 112.599 57.68 112.356C57.4187 112.104 57.218 111.815 57.078 111.488C56.938 111.152 56.868 110.793 56.868 110.41H57.652C57.652 110.793 57.7407 111.138 57.918 111.446C58.1047 111.745 58.3707 111.983 58.716 112.16C59.0613 112.328 59.4673 112.412 59.934 112.412C60.382 112.412 60.7693 112.328 61.096 112.16C61.432 111.983 61.6887 111.745 61.866 111.446C62.0527 111.138 62.146 110.783 62.146 110.382C62.146 110.027 62.0667 109.719 61.908 109.458C61.7587 109.187 61.5533 108.963 61.292 108.786C61.04 108.609 60.76 108.478 60.452 108.394C60.144 108.301 59.8313 108.254 59.514 108.254V107.75C59.9433 107.75 60.3587 107.806 60.76 107.918C61.1707 108.021 61.5393 108.184 61.866 108.408C62.1927 108.623 62.4493 108.903 62.636 109.248C62.832 109.593 62.93 109.999 62.93 110.466C62.93 110.998 62.7993 111.465 62.538 111.866C62.286 112.267 61.936 112.58 61.488 112.804C61.04 113.028 60.522 113.14 59.934 113.14ZM65.0839 108.1C65.0839 108.707 65.1446 109.271 65.2659 109.794C65.3873 110.317 65.5599 110.774 65.7839 111.166C66.0173 111.558 66.2973 111.866 66.6239 112.09C66.9506 112.305 67.3193 112.412 67.7299 112.412C68.1499 112.412 68.5186 112.305 68.8359 112.09C69.1626 111.866 69.4379 111.558 69.6619 111.166C69.8953 110.774 70.0726 110.317 70.1939 109.794C70.3153 109.271 70.3759 108.707 70.3759 108.1C70.3759 107.493 70.3153 106.929 70.1939 106.406C70.0726 105.883 69.8953 105.426 69.6619 105.034C69.4379 104.642 69.1626 104.339 68.8359 104.124C68.5186 103.9 68.1499 103.788 67.7299 103.788C67.3193 103.788 66.9506 103.9 66.6239 104.124C66.2973 104.339 66.0173 104.642 65.7839 105.034C65.5599 105.426 65.3873 105.883 65.2659 106.406C65.1446 106.929 65.0839 107.493 65.0839 108.1ZM64.3139 108.1C64.3139 107.139 64.4539 106.28 64.7339 105.524C65.0139 104.768 65.4106 104.171 65.9239 103.732C66.4373 103.284 67.0393 103.06 67.7299 103.06C68.4206 103.06 69.0226 103.284 69.5359 103.732C70.0493 104.171 70.4459 104.768 70.7259 105.524C71.0059 106.28 71.1459 107.139 71.1459 108.1C71.1459 109.061 71.0059 109.92 70.7259 110.676C70.4459 111.432 70.0493 112.034 69.5359 112.482C69.0226 112.921 68.4206 113.14 67.7299 113.14C67.0393 113.14 66.4373 112.921 65.9239 112.482C65.4106 112.034 65.0139 111.432 64.7339 110.676C64.4539 109.92 64.3139 109.061 64.3139 108.1ZM72.827 102.08H73.555V113H72.827V102.08ZM76.313 106.56H77.251L74.213 109.22L77.517 113H76.593L73.289 109.22L76.313 106.56Z" fill="#4C575C"/>
<path d="M56.308 155.04L61.712 147.2H62.006V157H61.236V154.732V154.606V148.978L57.596 154.354H61.558H61.712H63.546V155.04H56.308ZM65.412 152.1C65.412 152.707 65.4727 153.271 65.594 153.794C65.7154 154.317 65.888 154.774 66.112 155.166C66.3454 155.558 66.6254 155.866 66.952 156.09C67.2787 156.305 67.6474 156.412 68.058 156.412C68.478 156.412 68.8467 156.305 69.164 156.09C69.4907 155.866 69.766 155.558 69.99 155.166C70.2234 154.774 70.4007 154.317 70.522 153.794C70.6434 153.271 70.704 152.707 70.704 152.1C70.704 151.493 70.6434 150.929 70.522 150.406C70.4007 149.883 70.2234 149.426 69.99 149.034C69.766 148.642 69.4907 148.339 69.164 148.124C68.8467 147.9 68.478 147.788 68.058 147.788C67.6474 147.788 67.2787 147.9 66.952 148.124C66.6254 148.339 66.3454 148.642 66.112 149.034C65.888 149.426 65.7154 149.883 65.594 150.406C65.4727 150.929 65.412 151.493 65.412 152.1ZM64.642 152.1C64.642 151.139 64.782 150.28 65.062 149.524C65.342 148.768 65.7387 148.171 66.252 147.732C66.7654 147.284 67.3674 147.06 68.058 147.06C68.7487 147.06 69.3507 147.284 69.864 147.732C70.3774 148.171 70.774 148.768 71.054 149.524C71.334 150.28 71.474 151.139 71.474 152.1C71.474 153.061 71.334 153.92 71.054 154.676C70.774 155.432 70.3774 156.034 69.864 156.482C69.3507 156.921 68.7487 157.14 68.058 157.14C67.3674 157.14 66.7654 156.921 66.252 156.482C65.7387 156.034 65.342 155.432 65.062 154.676C64.782 153.92 64.642 153.061 64.642 152.1ZM73.1551 146.08H73.8831V157H73.1551V146.08ZM76.6411 150.56H77.5791L74.5411 153.22L77.8451 157H76.9211L73.6171 153.22L76.6411 150.56Z" fill="#4C575C"/>
<path d="M63.14 196.78C63.14 197.34 63.0513 197.83 62.874 198.25C62.706 198.67 62.468 199.02 62.16 199.3C61.8613 199.58 61.5113 199.79 61.11 199.93C60.7087 200.07 60.2793 200.14 59.822 200.14C59.262 200.14 58.772 200.051 58.352 199.874C57.9413 199.697 57.5867 199.454 57.288 199.146C56.9987 198.829 56.756 198.474 56.56 198.082L57.218 197.648C57.3767 197.975 57.5773 198.273 57.82 198.544C58.072 198.815 58.366 199.029 58.702 199.188C59.038 199.337 59.4113 199.412 59.822 199.412C60.326 199.412 60.7647 199.309 61.138 199.104C61.5207 198.889 61.8147 198.586 62.02 198.194C62.2347 197.802 62.342 197.331 62.342 196.78C62.342 196.285 62.2347 195.851 62.02 195.478C61.8147 195.105 61.5347 194.815 61.18 194.61C60.8253 194.395 60.4193 194.288 59.962 194.288C59.6167 194.288 59.2993 194.325 59.01 194.4C58.7207 194.475 58.4407 194.596 58.17 194.764C57.8993 194.932 57.6147 195.151 57.316 195.422L58.604 190.2H63.224V190.886H59.192L58.352 194.288C58.576 194.092 58.8513 193.929 59.178 193.798C59.514 193.658 59.878 193.588 60.27 193.588C60.8113 193.588 61.2967 193.723 61.726 193.994C62.1647 194.265 62.51 194.638 62.762 195.114C63.014 195.59 63.14 196.145 63.14 196.78ZM65.2617 195.1C65.2617 195.707 65.3223 196.271 65.4437 196.794C65.565 197.317 65.7377 197.774 65.9617 198.166C66.195 198.558 66.475 198.866 66.8017 199.09C67.1283 199.305 67.497 199.412 67.9077 199.412C68.3277 199.412 68.6963 199.305 69.0137 199.09C69.3403 198.866 69.6157 198.558 69.8397 198.166C70.073 197.774 70.2503 197.317 70.3717 196.794C70.493 196.271 70.5537 195.707 70.5537 195.1C70.5537 194.493 70.493 193.929 70.3717 193.406C70.2503 192.883 70.073 192.426 69.8397 192.034C69.6157 191.642 69.3403 191.339 69.0137 191.124C68.6963 190.9 68.3277 190.788 67.9077 190.788C67.497 190.788 67.1283 190.9 66.8017 191.124C66.475 191.339 66.195 191.642 65.9617 192.034C65.7377 192.426 65.565 192.883 65.4437 193.406C65.3223 193.929 65.2617 194.493 65.2617 195.1ZM64.4917 195.1C64.4917 194.139 64.6317 193.28 64.9117 192.524C65.1917 191.768 65.5883 191.171 66.1017 190.732C66.615 190.284 67.217 190.06 67.9077 190.06C68.5983 190.06 69.2003 190.284 69.7137 190.732C70.227 191.171 70.6237 191.768 70.9037 192.524C71.1837 193.28 71.3237 194.139 71.3237 195.1C71.3237 196.061 71.1837 196.92 70.9037 197.676C70.6237 198.432 70.227 199.034 69.7137 199.482C69.2003 199.921 68.5983 200.14 67.9077 200.14C67.217 200.14 66.615 199.921 66.1017 199.482C65.5883 199.034 65.1917 198.432 64.9117 197.676C64.6317 196.92 64.4917 196.061 64.4917 195.1ZM73.0048 189.08H73.7328V200H73.0048V189.08ZM76.4908 193.56H77.4288L74.3908 196.22L77.6948 200H76.7708L73.4668 196.22L76.4908 193.56Z" fill="#4C575C"/>
<path d="M56.448 245.928V245.2H63.196L58.31 255H57.498L62.034 245.928H56.448ZM70.4408 251.78C70.4408 252.34 70.3521 252.83 70.1748 253.25C70.0068 253.67 69.7688 254.02 69.4608 254.3C69.1621 254.58 68.8121 254.79 68.4108 254.93C68.0094 255.07 67.5801 255.14 67.1228 255.14C66.5628 255.14 66.0728 255.051 65.6528 254.874C65.2421 254.697 64.8874 254.454 64.5888 254.146C64.2994 253.829 64.0568 253.474 63.8608 253.082L64.5188 252.648C64.6774 252.975 64.8781 253.273 65.1208 253.544C65.3728 253.815 65.6668 254.029 66.0028 254.188C66.3388 254.337 66.7121 254.412 67.1228 254.412C67.6268 254.412 68.0654 254.309 68.4388 254.104C68.8214 253.889 69.1154 253.586 69.3208 253.194C69.5354 252.802 69.6428 252.331 69.6428 251.78C69.6428 251.285 69.5354 250.851 69.3208 250.478C69.1154 250.105 68.8354 249.815 68.4808 249.61C68.1261 249.395 67.7201 249.288 67.2628 249.288C66.9174 249.288 66.6001 249.325 66.3108 249.4C66.0214 249.475 65.7414 249.596 65.4708 249.764C65.2001 249.932 64.9154 250.151 64.6168 250.422L65.9048 245.2H70.5248V245.886H66.4928L65.6528 249.288C65.8768 249.092 66.1521 248.929 66.4788 248.798C66.8148 248.658 67.1788 248.588 67.5708 248.588C68.1121 248.588 68.5974 248.723 69.0268 248.994C69.4654 249.265 69.8108 249.638 70.0628 250.114C70.3148 250.59 70.4408 251.145 70.4408 251.78ZM72.1844 244.08H72.9124V255H72.1844V244.08ZM75.6704 248.56H76.6084L73.5704 251.22L76.8744 255H75.9504L72.6464 251.22L75.6704 248.56Z" fill="#4C575C"/>
<path d="M52.204 305.614V304.816L55.228 304.088V314H54.458V305.026L52.204 305.614ZM58.4843 309.1C58.4843 309.707 58.545 310.271 58.6663 310.794C58.7876 311.317 58.9603 311.774 59.1843 312.166C59.4176 312.558 59.6976 312.866 60.0243 313.09C60.351 313.305 60.7196 313.412 61.1303 313.412C61.5503 313.412 61.919 313.305 62.2363 313.09C62.563 312.866 62.8383 312.558 63.0623 312.166C63.2956 311.774 63.473 311.317 63.5943 310.794C63.7156 310.271 63.7763 309.707 63.7763 309.1C63.7763 308.493 63.7156 307.929 63.5943 307.406C63.473 306.883 63.2956 306.426 63.0623 306.034C62.8383 305.642 62.563 305.339 62.2363 305.124C61.919 304.9 61.5503 304.788 61.1303 304.788C60.7196 304.788 60.351 304.9 60.0243 305.124C59.6976 305.339 59.4176 305.642 59.1843 306.034C58.9603 306.426 58.7876 306.883 58.6663 307.406C58.545 307.929 58.4843 308.493 58.4843 309.1ZM57.7143 309.1C57.7143 308.139 57.8543 307.28 58.1343 306.524C58.4143 305.768 58.811 305.171 59.3243 304.732C59.8376 304.284 60.4396 304.06 61.1303 304.06C61.821 304.06 62.423 304.284 62.9363 304.732C63.4496 305.171 63.8463 305.768 64.1263 306.524C64.4063 307.28 64.5463 308.139 64.5463 309.1C64.5463 310.061 64.4063 310.92 64.1263 311.676C63.8463 312.432 63.4496 313.034 62.9363 313.482C62.423 313.921 61.821 314.14 61.1303 314.14C60.4396 314.14 59.8376 313.921 59.3243 313.482C58.811 313.034 58.4143 312.432 58.1343 311.676C57.8543 310.92 57.7143 310.061 57.7143 309.1ZM66.6054 309.1C66.6054 309.707 66.6661 310.271 66.7874 310.794C66.9087 311.317 67.0814 311.774 67.3054 312.166C67.5387 312.558 67.8187 312.866 68.1454 313.09C68.4721 313.305 68.8407 313.412 69.2514 313.412C69.6714 313.412 70.0401 313.305 70.3574 313.09C70.6841 312.866 70.9594 312.558 71.1834 312.166C71.4167 311.774 71.5941 311.317 71.7154 310.794C71.8367 310.271 71.8974 309.707 71.8974 309.1C71.8974 308.493 71.8367 307.929 71.7154 307.406C71.5941 306.883 71.4167 306.426 71.1834 306.034C70.9594 305.642 70.6841 305.339 70.3574 305.124C70.0401 304.9 69.6714 304.788 69.2514 304.788C68.8407 304.788 68.4721 304.9 68.1454 305.124C67.8187 305.339 67.5387 305.642 67.3054 306.034C67.0814 306.426 66.9087 306.883 66.7874 307.406C66.6661 307.929 66.6054 308.493 66.6054 309.1ZM65.8354 309.1C65.8354 308.139 65.9754 307.28 66.2554 306.524C66.5354 305.768 66.9321 305.171 67.4454 304.732C67.9587 304.284 68.5607 304.06 69.2514 304.06C69.9421 304.06 70.5441 304.284 71.0574 304.732C71.5707 305.171 71.9674 305.768 72.2474 306.524C72.5274 307.28 72.6674 308.139 72.6674 309.1C72.6674 310.061 72.5274 310.92 72.2474 311.676C71.9674 312.432 71.5707 313.034 71.0574 313.482C70.5441 313.921 69.9421 314.14 69.2514 314.14C68.5607 314.14 67.9587 313.921 67.4454 313.482C66.9321 313.034 66.5354 312.432 66.2554 311.676C65.9754 310.92 65.8354 310.061 65.8354 309.1ZM74.3485 303.08H75.0765V314H74.3485V303.08ZM77.8345 307.56H78.7725L75.7345 310.22L79.0385 314H78.1145L74.8105 310.22L77.8345 307.56Z" fill="#4C575C"/>
<path d="M51.308 387L55.886 382.17C56.1007 381.927 56.292 381.689 56.46 381.456C56.6373 381.223 56.7727 380.975 56.866 380.714C56.9687 380.443 57.02 380.154 57.02 379.846C57.02 379.603 56.978 379.361 56.894 379.118C56.81 378.875 56.6793 378.656 56.502 378.46C56.3247 378.255 56.1007 378.091 55.83 377.97C55.5687 377.839 55.256 377.774 54.892 377.774C54.416 377.774 54.0053 377.891 53.66 378.124C53.3147 378.348 53.0487 378.67 52.862 379.09C52.6753 379.51 52.582 380 52.582 380.56H51.812C51.812 379.86 51.9333 379.249 52.176 378.726C52.428 378.194 52.7827 377.783 53.24 377.494C53.7067 377.195 54.2573 377.046 54.892 377.046C55.4053 377.046 55.844 377.135 56.208 377.312C56.5813 377.489 56.8847 377.718 57.118 377.998C57.3607 378.269 57.538 378.567 57.65 378.894C57.762 379.211 57.818 379.519 57.818 379.818C57.818 380.35 57.6873 380.849 57.426 381.316C57.174 381.783 56.8613 382.207 56.488 382.59L52.918 386.272H58V387H51.308ZM60.0703 382.1C60.0703 382.707 60.1309 383.271 60.2523 383.794C60.3736 384.317 60.5463 384.774 60.7703 385.166C61.0036 385.558 61.2836 385.866 61.6103 386.09C61.9369 386.305 62.3056 386.412 62.7163 386.412C63.1363 386.412 63.5049 386.305 63.8223 386.09C64.1489 385.866 64.4243 385.558 64.6483 385.166C64.8816 384.774 65.0589 384.317 65.1803 383.794C65.3016 383.271 65.3623 382.707 65.3623 382.1C65.3623 381.493 65.3016 380.929 65.1803 380.406C65.0589 379.883 64.8816 379.426 64.6483 379.034C64.4243 378.642 64.1489 378.339 63.8223 378.124C63.5049 377.9 63.1363 377.788 62.7163 377.788C62.3056 377.788 61.9369 377.9 61.6103 378.124C61.2836 378.339 61.0036 378.642 60.7703 379.034C60.5463 379.426 60.3736 379.883 60.2523 380.406C60.1309 380.929 60.0703 381.493 60.0703 382.1ZM59.3003 382.1C59.3003 381.139 59.4403 380.28 59.7203 379.524C60.0003 378.768 60.3969 378.171 60.9103 377.732C61.4236 377.284 62.0256 377.06 62.7163 377.06C63.4069 377.06 64.0089 377.284 64.5223 377.732C65.0356 378.171 65.4323 378.768 65.7123 379.524C65.9923 380.28 66.1323 381.139 66.1323 382.1C66.1323 383.061 65.9923 383.92 65.7123 384.676C65.4323 385.432 65.0356 386.034 64.5223 386.482C64.0089 386.921 63.4069 387.14 62.7163 387.14C62.0256 387.14 61.4236 386.921 60.9103 386.482C60.3969 386.034 60.0003 385.432 59.7203 384.676C59.4403 383.92 59.3003 383.061 59.3003 382.1ZM68.1913 382.1C68.1913 382.707 68.252 383.271 68.3733 383.794C68.4947 384.317 68.6673 384.774 68.8913 385.166C69.1247 385.558 69.4047 385.866 69.7313 386.09C70.058 386.305 70.4267 386.412 70.8373 386.412C71.2573 386.412 71.626 386.305 71.9433 386.09C72.27 385.866 72.5453 385.558 72.7693 385.166C73.0027 384.774 73.18 384.317 73.3013 383.794C73.4227 383.271 73.4833 382.707 73.4833 382.1C73.4833 381.493 73.4227 380.929 73.3013 380.406C73.18 379.883 73.0027 379.426 72.7693 379.034C72.5453 378.642 72.27 378.339 71.9433 378.124C71.626 377.9 71.2573 377.788 70.8373 377.788C70.4267 377.788 70.058 377.9 69.7313 378.124C69.4047 378.339 69.1247 378.642 68.8913 379.034C68.6673 379.426 68.4947 379.883 68.3733 380.406C68.252 380.929 68.1913 381.493 68.1913 382.1ZM67.4213 382.1C67.4213 381.139 67.5613 380.28 67.8413 379.524C68.1213 378.768 68.518 378.171 69.0313 377.732C69.5447 377.284 70.1467 377.06 70.8373 377.06C71.528 377.06 72.13 377.284 72.6433 377.732C73.1567 378.171 73.5533 378.768 73.8333 379.524C74.1133 380.28 74.2533 381.139 74.2533 382.1C74.2533 383.061 74.1133 383.92 73.8333 384.676C73.5533 385.432 73.1567 386.034 72.6433 386.482C72.13 386.921 71.528 387.14 70.8373 387.14C70.1467 387.14 69.5447 386.921 69.0313 386.482C68.518 386.034 68.1213 385.432 67.8413 384.676C67.5613 383.92 67.4213 383.061 67.4213 382.1ZM75.9344 376.08H76.6624V387H75.9344V376.08ZM79.4204 380.56H80.3584L77.3204 383.22L80.6244 387H79.7004L76.3964 383.22L79.4204 380.56Z" fill="#4C575C"/>
<path d="M54.514 454.072V453.568C54.8313 453.568 55.13 453.521 55.41 453.428C55.69 453.335 55.9373 453.204 56.152 453.036C56.376 452.868 56.5487 452.667 56.67 452.434C56.8007 452.191 56.866 451.925 56.866 451.636C56.866 451.3 56.7913 450.992 56.642 450.712C56.502 450.423 56.292 450.194 56.012 450.026C55.7413 449.849 55.4053 449.76 55.004 449.76C54.416 449.76 53.94 449.937 53.576 450.292C53.212 450.647 53.03 451.095 53.03 451.636H52.288C52.288 451.123 52.4 450.675 52.624 450.292C52.8573 449.909 53.1747 449.611 53.576 449.396C53.9867 449.172 54.458 449.06 54.99 449.06C55.55 449.06 56.026 449.181 56.418 449.424C56.8193 449.667 57.1227 449.979 57.328 450.362C57.5427 450.745 57.65 451.16 57.65 451.608C57.65 452.084 57.5053 452.509 57.216 452.882C56.936 453.255 56.558 453.549 56.082 453.764C55.6153 453.969 55.0927 454.072 54.514 454.072ZM54.934 459.14C54.458 459.14 54.0287 459.07 53.646 458.93C53.2727 458.79 52.9507 458.599 52.68 458.356C52.4187 458.104 52.218 457.815 52.078 457.488C51.938 457.152 51.868 456.793 51.868 456.41H52.652C52.652 456.793 52.7407 457.138 52.918 457.446C53.1047 457.745 53.3707 457.983 53.716 458.16C54.0613 458.328 54.4673 458.412 54.934 458.412C55.382 458.412 55.7693 458.328 56.096 458.16C56.432 457.983 56.6887 457.745 56.866 457.446C57.0527 457.138 57.146 456.783 57.146 456.382C57.146 456.027 57.0667 455.719 56.908 455.458C56.7587 455.187 56.5533 454.963 56.292 454.786C56.04 454.609 55.76 454.478 55.452 454.394C55.144 454.301 54.8313 454.254 54.514 454.254V453.75C54.9433 453.75 55.3587 453.806 55.76 453.918C56.1707 454.021 56.5393 454.184 56.866 454.408C57.1927 454.623 57.4493 454.903 57.636 455.248C57.832 455.593 57.93 455.999 57.93 456.466C57.93 456.998 57.7993 457.465 57.538 457.866C57.286 458.267 56.936 458.58 56.488 458.804C56.04 459.028 55.522 459.14 54.934 459.14ZM60.0839 454.1C60.0839 454.707 60.1446 455.271 60.2659 455.794C60.3873 456.317 60.5599 456.774 60.7839 457.166C61.0173 457.558 61.2973 457.866 61.6239 458.09C61.9506 458.305 62.3193 458.412 62.7299 458.412C63.1499 458.412 63.5186 458.305 63.8359 458.09C64.1626 457.866 64.4379 457.558 64.6619 457.166C64.8953 456.774 65.0726 456.317 65.1939 455.794C65.3153 455.271 65.3759 454.707 65.3759 454.1C65.3759 453.493 65.3153 452.929 65.1939 452.406C65.0726 451.883 64.8953 451.426 64.6619 451.034C64.4379 450.642 64.1626 450.339 63.8359 450.124C63.5186 449.9 63.1499 449.788 62.7299 449.788C62.3193 449.788 61.9506 449.9 61.6239 450.124C61.2973 450.339 61.0173 450.642 60.7839 451.034C60.5599 451.426 60.3873 451.883 60.2659 452.406C60.1446 452.929 60.0839 453.493 60.0839 454.1ZM59.3139 454.1C59.3139 453.139 59.4539 452.28 59.7339 451.524C60.0139 450.768 60.4106 450.171 60.9239 449.732C61.4373 449.284 62.0393 449.06 62.7299 449.06C63.4206 449.06 64.0226 449.284 64.5359 449.732C65.0493 450.171 65.4459 450.768 65.7259 451.524C66.0059 452.28 66.1459 453.139 66.1459 454.1C66.1459 455.061 66.0059 455.92 65.7259 456.676C65.4459 457.432 65.0493 458.034 64.5359 458.482C64.0226 458.921 63.4206 459.14 62.7299 459.14C62.0393 459.14 61.4373 458.921 60.9239 458.482C60.4106 458.034 60.0139 457.432 59.7339 456.676C59.4539 455.92 59.3139 455.061 59.3139 454.1ZM68.205 454.1C68.205 454.707 68.2657 455.271 68.387 455.794C68.5083 456.317 68.681 456.774 68.905 457.166C69.1383 457.558 69.4183 457.866 69.745 458.09C70.0717 458.305 70.4403 458.412 70.851 458.412C71.271 458.412 71.6397 458.305 71.957 458.09C72.2837 457.866 72.559 457.558 72.783 457.166C73.0163 456.774 73.1937 456.317 73.315 455.794C73.4363 455.271 73.497 454.707 73.497 454.1C73.497 453.493 73.4363 452.929 73.315 452.406C73.1937 451.883 73.0163 451.426 72.783 451.034C72.559 450.642 72.2837 450.339 71.957 450.124C71.6397 449.9 71.271 449.788 70.851 449.788C70.4403 449.788 70.0717 449.9 69.745 450.124C69.4183 450.339 69.1383 450.642 68.905 451.034C68.681 451.426 68.5083 451.883 68.387 452.406C68.2657 452.929 68.205 453.493 68.205 454.1ZM67.435 454.1C67.435 453.139 67.575 452.28 67.855 451.524C68.135 450.768 68.5317 450.171 69.045 449.732C69.5583 449.284 70.1603 449.06 70.851 449.06C71.5417 449.06 72.1437 449.284 72.657 449.732C73.1703 450.171 73.567 450.768 73.847 451.524C74.127 452.28 74.267 453.139 74.267 454.1C74.267 455.061 74.127 455.92 73.847 456.676C73.567 457.432 73.1703 458.034 72.657 458.482C72.1437 458.921 71.5417 459.14 70.851 459.14C70.1603 459.14 69.5583 458.921 69.045 458.482C68.5317 458.034 68.135 457.432 67.855 456.676C67.575 455.92 67.435 455.061 67.435 454.1ZM75.9481 448.08H76.6761V459H75.9481V448.08ZM79.4341 452.56H80.3721L77.3341 455.22L80.6381 459H79.7141L76.4101 455.22L79.4341 452.56Z" fill="#4C575C"/>
<path d="M2.352 16.08V15.328H4.16C4.53333 15.328 4.86933 15.264 5.168 15.136C5.46667 15.008 5.70133 14.8213 5.872 14.576C6.04267 14.3307 6.128 14.032 6.128 13.68C6.128 13.1467 5.94133 12.736 5.568 12.448C5.19467 12.1493 4.72533 12 4.16 12H2.64V20.8H4.32C4.8 20.8 5.22133 20.7147 5.584 20.544C5.95733 20.3733 6.24533 20.128 6.448 19.808C6.66133 19.488 6.768 19.0987 6.768 18.64C6.768 18.2987 6.70933 17.9947 6.592 17.728C6.47467 17.4613 6.304 17.2373 6.08 17.056C5.86667 16.8747 5.61067 16.7413 5.312 16.656C5.01333 16.56 4.68267 16.512 4.32 16.512H2.352V15.76H4.32C4.864 15.76 5.36533 15.8187 5.824 15.936C6.28267 16.0533 6.68267 16.2347 7.024 16.48C7.376 16.7147 7.648 17.0187 7.84 17.392C8.032 17.7653 8.128 18.208 8.128 18.72C8.128 19.456 7.95733 20.0693 7.616 20.56C7.28533 21.04 6.832 21.4027 6.256 21.648C5.69067 21.8827 5.04533 22 4.32 22H1.28V10.8H4.16C4.832 10.8 5.41333 10.9013 5.904 11.104C6.40533 11.3067 6.79467 11.616 7.072 12.032C7.34933 12.4373 7.488 12.96 7.488 13.6C7.488 14.1227 7.34933 14.5707 7.072 14.944C6.79467 15.3173 6.40533 15.6 5.904 15.792C5.41333 15.984 4.832 16.08 4.16 16.08H2.352ZM11.4019 19.12C11.4019 19.7067 11.5352 20.16 11.8019 20.48C12.0685 20.8 12.4579 20.96 12.9699 20.96C13.3432 20.96 13.6685 20.8853 13.9459 20.736C14.2339 20.576 14.4525 20.3573 14.6019 20.08C14.7619 19.8027 14.8419 19.4827 14.8419 19.12V14.64H16.1219V22H14.8419V20.848C14.5965 21.2853 14.2925 21.616 13.9299 21.84C13.5672 22.0533 13.1405 22.16 12.6499 22.16C11.8819 22.16 11.2685 21.8987 10.8099 21.376C10.3512 20.8533 10.1219 20.1547 10.1219 19.28V14.64H11.4019V19.12ZM18.5281 11.6C18.5281 11.3547 18.6135 11.1467 18.7841 10.976C18.9655 10.8053 19.1735 10.72 19.4081 10.72C19.6535 10.72 19.8615 10.8053 20.0321 10.976C20.2028 11.1467 20.2881 11.3547 20.2881 11.6C20.2881 11.8347 20.2028 12.0427 20.0321 12.224C19.8615 12.3947 19.6535 12.48 19.4081 12.48C19.1735 12.48 18.9655 12.3947 18.7841 12.224C18.6135 12.0427 18.5281 11.8347 18.5281 11.6ZM18.7681 14.64H20.0481V22H18.7681V14.64ZM22.6844 9.52H23.9644V22H22.6844V9.52ZM31.8919 9.52H33.1719V22H31.8919V9.52ZM25.7319 18.32C25.7319 17.52 25.8972 16.8373 26.2279 16.272C26.5585 15.696 27.0012 15.2533 27.5559 14.944C28.1105 14.6347 28.7185 14.48 29.3799 14.48C29.9985 14.48 30.5372 14.6347 30.9959 14.944C31.4545 15.2533 31.8119 15.696 32.0679 16.272C32.3345 16.8373 32.4679 17.52 32.4679 18.32C32.4679 19.1093 32.3345 19.792 32.0679 20.368C31.8119 20.944 31.4545 21.3867 30.9959 21.696C30.5372 22.0053 29.9985 22.16 29.3799 22.16C28.7185 22.16 28.1105 22.0053 27.5559 21.696C27.0012 21.3867 26.5585 20.944 26.2279 20.368C25.8972 19.792 25.7319 19.1093 25.7319 18.32ZM27.0279 18.32C27.0279 18.8853 27.1399 19.3653 27.3639 19.76C27.5985 20.1547 27.9079 20.4533 28.2919 20.656C28.6759 20.8587 29.0919 20.96 29.5399 20.96C29.9132 20.96 30.2812 20.8587 30.6439 20.656C31.0065 20.4533 31.3052 20.1547 31.5399 19.76C31.7745 19.3653 31.8919 18.8853 31.8919 18.32C31.8919 17.7547 31.7745 17.2747 31.5399 16.88C31.3052 16.4853 31.0065 16.1867 30.6439 15.984C30.2812 15.7813 29.9132 15.68 29.5399 15.68C29.0919 15.68 28.6759 15.7813 28.2919 15.984C27.9079 16.1867 27.5985 16.4853 27.3639 16.88C27.1399 17.2747 27.0279 17.7547 27.0279 18.32ZM40.8698 18.32C40.8698 18.832 40.9764 19.2853 41.1898 19.68C41.4138 20.0747 41.7124 20.3893 42.0858 20.624C42.4698 20.848 42.9018 20.96 43.3818 20.96C43.7764 20.96 44.1444 20.9013 44.4858 20.784C44.8378 20.656 45.1418 20.4907 45.3978 20.288C45.6538 20.0747 45.8351 19.8507 45.9418 19.616V21.216C45.6858 21.5147 45.3178 21.7493 44.8378 21.92C44.3684 22.08 43.8831 22.16 43.3818 22.16C42.6671 22.16 42.0218 21.9947 41.4457 21.664C40.8698 21.3333 40.4111 20.88 40.0698 20.304C39.7391 19.7173 39.5738 19.056 39.5738 18.32C39.5738 17.5733 39.7391 16.912 40.0698 16.336C40.4111 15.76 40.8698 15.3067 41.4457 14.976C42.0218 14.6453 42.6671 14.48 43.3818 14.48C43.8831 14.48 44.3684 14.5653 44.8378 14.736C45.3178 14.896 45.6858 15.1253 45.9418 15.424V17.024C45.8351 16.7787 45.6538 16.5547 45.3978 16.352C45.1418 16.1493 44.8378 15.9893 44.4858 15.872C44.1444 15.744 43.7764 15.68 43.3818 15.68C42.9018 15.68 42.4698 15.792 42.0858 16.016C41.7124 16.24 41.4138 16.5547 41.1898 16.96C40.9764 17.3547 40.8698 17.808 40.8698 18.32ZM47.2944 18.32C47.2944 17.5733 47.4597 16.912 47.7904 16.336C48.1317 15.76 48.5904 15.3067 49.1664 14.976C49.7424 14.6453 50.3877 14.48 51.1024 14.48C51.8277 14.48 52.473 14.6453 53.0384 14.976C53.6144 15.3067 54.0677 15.76 54.3984 16.336C54.7397 16.912 54.9104 17.5733 54.9104 18.32C54.9104 19.056 54.7397 19.7173 54.3984 20.304C54.0677 20.88 53.6144 21.3333 53.0384 21.664C52.473 21.9947 51.8277 22.16 51.1024 22.16C50.3877 22.16 49.7424 21.9947 49.1664 21.664C48.5904 21.3333 48.1317 20.88 47.7904 20.304C47.4597 19.7173 47.2944 19.056 47.2944 18.32ZM48.5904 18.32C48.5904 18.832 48.697 19.2853 48.9104 19.68C49.1344 20.0747 49.433 20.3893 49.8064 20.624C50.1904 20.848 50.6224 20.96 51.1024 20.96C51.5824 20.96 52.009 20.848 52.3824 20.624C52.7664 20.3893 53.065 20.0747 53.2784 19.68C53.5024 19.2853 53.6144 18.832 53.6144 18.32C53.6144 17.808 53.5024 17.3547 53.2784 16.96C53.065 16.5547 52.7664 16.24 52.3824 16.016C52.009 15.792 51.5824 15.68 51.1024 15.68C50.6224 15.68 50.1904 15.792 49.8064 16.016C49.433 16.24 49.1344 16.5547 48.9104 16.96C48.697 17.3547 48.5904 17.808 48.5904 18.32ZM56.9728 19.744C57.1221 19.968 57.2928 20.176 57.4848 20.368C57.6768 20.56 57.8954 20.7147 58.1408 20.832C58.3968 20.9387 58.6741 20.992 58.9728 20.992C59.3354 20.992 59.6181 20.912 59.8208 20.752C60.0341 20.5813 60.1408 20.352 60.1408 20.064C60.1408 19.808 60.0554 19.5947 59.8848 19.424C59.7248 19.2427 59.5168 19.0933 59.2608 18.976C59.0048 18.848 58.7328 18.7307 58.4448 18.624C58.1248 18.496 57.7994 18.3467 57.4688 18.176C57.1488 17.9947 56.8768 17.7653 56.6528 17.488C56.4394 17.2 56.3328 16.8427 56.3328 16.416C56.3328 15.9787 56.4448 15.616 56.6688 15.328C56.9034 15.04 57.2021 14.8267 57.5648 14.688C57.9381 14.5493 58.3221 14.48 58.7168 14.48C59.1114 14.48 59.4794 14.544 59.8208 14.672C60.1728 14.8 60.4821 14.9707 60.7488 15.184C61.0154 15.3973 61.2234 15.6427 61.3728 15.92L60.3488 16.576C60.1461 16.2987 59.8901 16.0693 59.5807 15.888C59.2821 15.7067 58.9408 15.616 58.5568 15.616C58.2901 15.616 58.0608 15.6747 57.8688 15.792C57.6768 15.9093 57.5807 16.0907 57.5807 16.336C57.5807 16.528 57.6554 16.6987 57.8048 16.848C57.9541 16.9973 58.1461 17.1307 58.3808 17.248C58.6154 17.3653 58.8608 17.4773 59.1168 17.584C59.5434 17.7547 59.9328 17.9413 60.2848 18.144C60.6368 18.336 60.9141 18.5707 61.1168 18.848C61.3301 19.1253 61.4368 19.4827 61.4368 19.92C61.4368 20.56 61.2021 21.0933 60.7328 21.52C60.2741 21.9467 59.6661 22.16 58.9088 22.16C58.4181 22.16 57.9754 22.0747 57.5807 21.904C57.1861 21.7227 56.8501 21.4933 56.5728 21.216C56.3061 20.9387 56.1034 20.656 55.9648 20.368L56.9728 19.744ZM62.0019 14.64H65.6819V15.84H62.0019V14.64ZM63.2019 12.08H64.4819V22H63.2019V12.08ZM73.8425 9.52H75.0425C74.4878 10.7147 74.0825 11.9787 73.8265 13.312C73.5705 14.6453 73.4425 15.9947 73.4425 17.36C73.4425 18.7147 73.5705 20.0587 73.8265 21.392C74.0825 22.7253 74.4878 23.9947 75.0425 25.2H73.8425C73.2025 23.9947 72.7332 22.7253 72.4345 21.392C72.1465 20.0587 72.0025 18.7147 72.0025 17.36C72.0025 15.9947 72.1465 14.6453 72.4345 13.312C72.7332 11.9787 73.2025 10.7147 73.8425 9.52ZM76.5876 16.08H82.3476V17.28H76.5876V16.08ZM82.7156 14.336C82.705 14.048 82.6516 13.7653 82.5556 13.488C82.4703 13.2 82.3423 12.944 82.1716 12.72C82.0116 12.496 81.8036 12.32 81.5476 12.192C81.2916 12.0533 80.993 11.984 80.6516 11.984C80.3316 11.984 80.0276 12.0427 79.7396 12.16C79.4516 12.2667 79.217 12.448 79.0356 12.704C78.8543 12.9493 78.7636 13.2747 78.7636 13.68C78.7636 14.0533 78.8116 14.3787 78.9076 14.656C79.0143 14.9333 79.1423 15.1893 79.2916 15.424C79.4516 15.648 79.6063 15.872 79.7556 16.096C79.905 16.32 80.0276 16.5653 80.1236 16.832C80.2303 17.0987 80.2836 17.4133 80.2836 17.776C80.2836 18.2027 80.2196 18.608 80.0916 18.992C79.9636 19.3653 79.7876 19.7067 79.5636 20.016C79.3396 20.3147 79.089 20.5653 78.8116 20.768C78.5343 20.9707 78.2463 21.1147 77.9476 21.2L77.9796 20.72H83.7876V22H76.5396C77.0623 21.456 77.505 20.976 77.8676 20.56C78.2303 20.1333 78.5076 19.7227 78.6996 19.328C78.8916 18.9227 78.9876 18.4853 78.9876 18.016C78.9876 17.7173 78.9343 17.4453 78.8276 17.2C78.721 16.9547 78.5876 16.7147 78.4276 16.48C78.2676 16.2453 78.1023 16 77.9316 15.744C77.7716 15.4773 77.6383 15.184 77.5316 14.864C77.425 14.5333 77.3716 14.1493 77.3716 13.712C77.3716 13.072 77.5103 12.5227 77.7876 12.064C78.0756 11.6053 78.465 11.2533 78.9556 11.008C79.457 10.7627 80.0223 10.64 80.6516 10.64C81.185 10.64 81.649 10.7467 82.0436 10.96C82.4383 11.1733 82.7636 11.4453 83.0196 11.776C83.2756 12.1067 83.473 12.4587 83.6116 12.832C83.7503 13.2053 83.8303 13.552 83.8516 13.872L82.7156 14.336ZM86.4769 25.2H85.2769C85.8422 23.9947 86.2475 22.7253 86.4929 21.392C86.7489 20.0587 86.8769 18.7147 86.8769 17.36C86.8769 15.9947 86.7489 14.6453 86.4929 13.312C86.2475 11.9787 85.8422 10.7147 85.2769 9.52H86.4769C87.1169 10.7147 87.5809 11.9787 87.8689 13.312C88.1675 14.6453 88.3169 15.9947 88.3169 17.36C88.3169 18.7147 88.1675 20.0587 87.8689 21.392C87.5809 22.7253 87.1169 23.9947 86.4769 25.2Z" fill="#4C575C"/>
<path d="M126.28 10.8H127.64V22H126.28V10.8ZM127.032 12.08V10.8H129.32C130.045 10.8 130.691 10.9387 131.256 11.216C131.832 11.4827 132.285 11.8667 132.616 12.368C132.957 12.8693 133.128 13.4667 133.128 14.16C133.128 14.8427 132.957 15.44 132.616 15.952C132.285 16.4533 131.832 16.8427 131.256 17.12C130.691 17.3867 130.045 17.52 129.32 17.52H127.032V16.24H129.32C130.045 16.24 130.632 16.064 131.08 15.712C131.539 15.36 131.768 14.8427 131.768 14.16C131.768 13.4667 131.539 12.9493 131.08 12.608C130.632 12.256 130.045 12.08 129.32 12.08H127.032ZM135.933 14.64V22H134.653V14.64H135.933ZM138.157 16.048C137.986 15.92 137.832 15.8293 137.693 15.776C137.554 15.712 137.378 15.68 137.165 15.68C136.845 15.68 136.594 15.76 136.413 15.92C136.232 16.08 136.104 16.2987 136.029 16.576C135.965 16.8533 135.933 17.168 135.933 17.52H135.357C135.357 16.9333 135.458 16.416 135.661 15.968C135.874 15.5093 136.146 15.1467 136.477 14.88C136.808 14.6133 137.144 14.48 137.485 14.48C137.752 14.48 137.997 14.5173 138.221 14.592C138.456 14.656 138.669 14.7893 138.861 14.992L138.157 16.048ZM142.751 22.16C142.068 22.16 141.46 22 140.927 21.68C140.404 21.3493 139.994 20.896 139.695 20.32C139.407 19.744 139.263 19.0773 139.263 18.32C139.263 17.552 139.412 16.88 139.711 16.304C140.02 15.728 140.447 15.28 140.991 14.96C141.546 14.64 142.186 14.48 142.911 14.48C143.636 14.48 144.255 14.6347 144.767 14.944C145.29 15.2427 145.69 15.6747 145.967 16.24C146.244 16.8053 146.383 17.4773 146.383 18.256C146.383 18.3307 146.378 18.4107 146.367 18.496C146.367 18.5707 146.367 18.6187 146.367 18.64H140.079V17.552H145.359L144.847 18.288C144.879 18.2347 144.911 18.1547 144.943 18.048C144.975 17.9307 144.991 17.8347 144.991 17.76C144.991 17.3227 144.9 16.944 144.719 16.624C144.548 16.304 144.308 16.0533 143.999 15.872C143.69 15.6907 143.327 15.6 142.911 15.6C142.42 15.6 141.999 15.7067 141.647 15.92C141.306 16.1227 141.039 16.4213 140.847 16.816C140.666 17.2 140.57 17.6747 140.559 18.24C140.559 18.816 140.65 19.3067 140.831 19.712C141.012 20.1173 141.279 20.4267 141.631 20.64C141.983 20.8533 142.41 20.96 142.911 20.96C143.412 20.96 143.855 20.8533 144.239 20.64C144.623 20.416 144.948 20.08 145.215 19.632L146.255 20.288C145.871 20.9067 145.386 21.376 144.799 21.696C144.223 22.0053 143.54 22.16 142.751 22.16ZM153.658 9.52H154.938V22H153.658V9.52ZM147.498 18.32C147.498 17.52 147.663 16.8373 147.993 16.272C148.324 15.696 148.767 15.2533 149.322 14.944C149.876 14.6347 150.484 14.48 151.146 14.48C151.764 14.48 152.303 14.6347 152.762 14.944C153.22 15.2533 153.578 15.696 153.834 16.272C154.1 16.8373 154.234 17.52 154.234 18.32C154.234 19.1093 154.1 19.792 153.834 20.368C153.578 20.944 153.22 21.3867 152.762 21.696C152.303 22.0053 151.764 22.16 151.146 22.16C150.484 22.16 149.876 22.0053 149.322 21.696C148.767 21.3867 148.324 20.944 147.993 20.368C147.663 19.792 147.498 19.1093 147.498 18.32ZM148.794 18.32C148.794 18.8853 148.906 19.3653 149.13 19.76C149.364 20.1547 149.674 20.4533 150.058 20.656C150.442 20.8587 150.858 20.96 151.306 20.96C151.679 20.96 152.047 20.8587 152.41 20.656C152.772 20.4533 153.071 20.1547 153.306 19.76C153.54 19.3653 153.658 18.8853 153.658 18.32C153.658 17.7547 153.54 17.2747 153.306 16.88C153.071 16.4853 152.772 16.1867 152.41 15.984C152.047 15.7813 151.679 15.68 151.306 15.68C150.858 15.68 150.442 15.7813 150.058 15.984C149.674 16.1867 149.364 16.4853 149.13 16.88C148.906 17.2747 148.794 17.7547 148.794 18.32ZM157.263 11.6C157.263 11.3547 157.348 11.1467 157.519 10.976C157.7 10.8053 157.908 10.72 158.143 10.72C158.388 10.72 158.596 10.8053 158.767 10.976C158.937 11.1467 159.023 11.3547 159.023 11.6C159.023 11.8347 158.937 12.0427 158.767 12.224C158.596 12.3947 158.388 12.48 158.143 12.48C157.908 12.48 157.7 12.3947 157.519 12.224C157.348 12.0427 157.263 11.8347 157.263 11.6ZM157.503 14.64H158.783V22H157.503V14.64ZM161.995 18.32C161.995 18.832 162.101 19.2853 162.315 19.68C162.539 20.0747 162.837 20.3893 163.211 20.624C163.595 20.848 164.027 20.96 164.507 20.96C164.901 20.96 165.269 20.9013 165.611 20.784C165.963 20.656 166.267 20.4907 166.523 20.288C166.779 20.0747 166.96 19.8507 167.067 19.616V21.216C166.811 21.5147 166.443 21.7493 165.963 21.92C165.493 22.08 165.008 22.16 164.507 22.16C163.792 22.16 163.147 21.9947 162.571 21.664C161.995 21.3333 161.536 20.88 161.195 20.304C160.864 19.7173 160.699 19.056 160.699 18.32C160.699 17.5733 160.864 16.912 161.195 16.336C161.536 15.76 161.995 15.3067 162.571 14.976C163.147 14.6453 163.792 14.48 164.507 14.48C165.008 14.48 165.493 14.5653 165.963 14.736C166.443 14.896 166.811 15.1253 167.067 15.424V17.024C166.96 16.7787 166.779 16.5547 166.523 16.352C166.267 16.1493 165.963 15.9893 165.611 15.872C165.269 15.744 164.901 15.68 164.507 15.68C164.027 15.68 163.595 15.792 163.211 16.016C162.837 16.24 162.539 16.5547 162.315 16.96C162.101 17.3547 161.995 17.808 161.995 18.32ZM167.939 14.64H171.619V15.84H167.939V14.64ZM169.139 12.08H170.419V22H169.139V12.08ZM175.751 22.16C175.068 22.16 174.46 22 173.927 21.68C173.404 21.3493 172.994 20.896 172.695 20.32C172.407 19.744 172.263 19.0773 172.263 18.32C172.263 17.552 172.412 16.88 172.711 16.304C173.02 15.728 173.447 15.28 173.991 14.96C174.546 14.64 175.186 14.48 175.911 14.48C176.636 14.48 177.255 14.6347 177.767 14.944C178.29 15.2427 178.69 15.6747 178.967 16.24C179.244 16.8053 179.383 17.4773 179.383 18.256C179.383 18.3307 179.378 18.4107 179.367 18.496C179.367 18.5707 179.367 18.6187 179.367 18.64H173.079V17.552H178.359L177.847 18.288C177.879 18.2347 177.911 18.1547 177.943 18.048C177.975 17.9307 177.991 17.8347 177.991 17.76C177.991 17.3227 177.9 16.944 177.719 16.624C177.548 16.304 177.308 16.0533 176.999 15.872C176.69 15.6907 176.327 15.6 175.911 15.6C175.42 15.6 174.999 15.7067 174.647 15.92C174.306 16.1227 174.039 16.4213 173.847 16.816C173.666 17.2 173.57 17.6747 173.559 18.24C173.559 18.816 173.65 19.3067 173.831 19.712C174.012 20.1173 174.279 20.4267 174.631 20.64C174.983 20.8533 175.41 20.96 175.911 20.96C176.412 20.96 176.855 20.8533 177.239 20.64C177.623 20.416 177.948 20.08 178.215 19.632L179.255 20.288C178.871 20.9067 178.386 21.376 177.799 21.696C177.223 22.0053 176.54 22.16 175.751 22.16ZM186.658 9.52H187.938V22H186.658V9.52ZM180.498 18.32C180.498 17.52 180.663 16.8373 180.993 16.272C181.324 15.696 181.767 15.2533 182.322 14.944C182.876 14.6347 183.484 14.48 184.146 14.48C184.764 14.48 185.303 14.6347 185.762 14.944C186.22 15.2533 186.578 15.696 186.834 16.272C187.1 16.8373 187.234 17.52 187.234 18.32C187.234 19.1093 187.1 19.792 186.834 20.368C186.578 20.944 186.22 21.3867 185.762 21.696C185.303 22.0053 184.764 22.16 184.146 22.16C183.484 22.16 182.876 22.0053 182.322 21.696C181.767 21.3867 181.324 20.944 180.993 20.368C180.663 19.792 180.498 19.1093 180.498 18.32ZM181.794 18.32C181.794 18.8853 181.906 19.3653 182.13 19.76C182.364 20.1547 182.674 20.4533 183.058 20.656C183.442 20.8587 183.858 20.96 184.306 20.96C184.679 20.96 185.047 20.8587 185.41 20.656C185.772 20.4533 186.071 20.1547 186.306 19.76C186.54 19.3653 186.658 18.8853 186.658 18.32C186.658 17.7547 186.54 17.2747 186.306 16.88C186.071 16.4853 185.772 16.1867 185.41 15.984C185.047 15.7813 184.679 15.68 184.306 15.68C183.858 15.68 183.442 15.7813 183.058 15.984C182.674 16.1867 182.364 16.4853 182.13 16.88C181.906 17.2747 181.794 17.7547 181.794 18.32ZM194.499 14.64H198.179V15.84H194.499V14.64ZM198.051 11.056C197.945 10.8747 197.817 10.7627 197.667 10.72C197.529 10.6667 197.395 10.64 197.267 10.64C197.107 10.64 196.969 10.688 196.851 10.784C196.745 10.8693 196.659 11.0187 196.595 11.232C196.531 11.4453 196.499 11.728 196.499 12.08V22H195.219V11.92C195.219 11.3333 195.305 10.8533 195.475 10.48C195.646 10.1067 195.886 9.82933 196.195 9.648C196.515 9.456 196.899 9.36 197.347 9.36C197.582 9.36 197.79 9.392 197.971 9.456C198.153 9.52 198.307 9.6 198.435 9.696C198.574 9.792 198.681 9.89333 198.755 10L198.051 11.056ZM202.486 22.16C201.803 22.16 201.195 22 200.662 21.68C200.139 21.3493 199.728 20.896 199.43 20.32C199.142 19.744 198.998 19.0773 198.998 18.32C198.998 17.552 199.147 16.88 199.446 16.304C199.755 15.728 200.182 15.28 200.726 14.96C201.28 14.64 201.92 14.48 202.646 14.48C203.371 14.48 203.99 14.6347 204.502 14.944C205.024 15.2427 205.424 15.6747 205.702 16.24C205.979 16.8053 206.118 17.4773 206.118 18.256C206.118 18.3307 206.112 18.4107 206.102 18.496C206.102 18.5707 206.102 18.6187 206.102 18.64H199.814V17.552H205.094L204.582 18.288C204.614 18.2347 204.646 18.1547 204.678 18.048C204.71 17.9307 204.726 17.8347 204.726 17.76C204.726 17.3227 204.635 16.944 204.454 16.624C204.283 16.304 204.043 16.0533 203.734 15.872C203.424 15.6907 203.062 15.6 202.646 15.6C202.155 15.6 201.734 15.7067 201.382 15.92C201.04 16.1227 200.774 16.4213 200.582 16.816C200.4 17.2 200.304 17.6747 200.294 18.24C200.294 18.816 200.384 19.3067 200.566 19.712C200.747 20.1173 201.014 20.4267 201.366 20.64C201.718 20.8533 202.144 20.96 202.646 20.96C203.147 20.96 203.59 20.8533 203.974 20.64C204.358 20.416 204.683 20.08 204.95 19.632L205.99 20.288C205.606 20.9067 205.12 21.376 204.534 21.696C203.958 22.0053 203.275 22.16 202.486 22.16ZM210.72 22.16C210.037 22.16 209.429 22 208.896 21.68C208.373 21.3493 207.963 20.896 207.664 20.32C207.376 19.744 207.232 19.0773 207.232 18.32C207.232 17.552 207.381 16.88 207.68 16.304C207.989 15.728 208.416 15.28 208.96 14.96C209.515 14.64 210.155 14.48 210.88 14.48C211.605 14.48 212.224 14.6347 212.736 14.944C213.259 15.2427 213.659 15.6747 213.936 16.24C214.213 16.8053 214.352 17.4773 214.352 18.256C214.352 18.3307 214.347 18.4107 214.336 18.496C214.336 18.5707 214.336 18.6187 214.336 18.64H208.048V17.552H213.328L212.816 18.288C212.848 18.2347 212.88 18.1547 212.912 18.048C212.944 17.9307 212.96 17.8347 212.96 17.76C212.96 17.3227 212.869 16.944 212.688 16.624C212.517 16.304 212.277 16.0533 211.968 15.872C211.659 15.6907 211.296 15.6 210.88 15.6C210.389 15.6 209.968 15.7067 209.616 15.92C209.275 16.1227 209.008 16.4213 208.816 16.816C208.635 17.2 208.539 17.6747 208.528 18.24C208.528 18.816 208.619 19.3067 208.8 19.712C208.981 20.1173 209.248 20.4267 209.6 20.64C209.952 20.8533 210.379 20.96 210.88 20.96C211.381 20.96 211.824 20.8533 212.208 20.64C212.592 20.416 212.917 20.08 213.184 19.632L214.224 20.288C213.84 20.9067 213.355 21.376 212.768 21.696C212.192 22.0053 211.509 22.16 210.72 22.16ZM220.743 18.56V17.28H228.503V18.56H220.743ZM223.943 14H225.303V21.84H223.943V14ZM238.392 22.16C237.709 22.16 237.101 22 236.568 21.68C236.045 21.3493 235.634 20.896 235.336 20.32C235.048 19.744 234.904 19.0773 234.904 18.32C234.904 17.552 235.053 16.88 235.352 16.304C235.661 15.728 236.088 15.28 236.632 14.96C237.186 14.64 237.826 14.48 238.552 14.48C239.277 14.48 239.896 14.6347 240.408 14.944C240.93 15.2427 241.33 15.6747 241.608 16.24C241.885 16.8053 242.024 17.4773 242.024 18.256C242.024 18.3307 242.018 18.4107 242.008 18.496C242.008 18.5707 242.008 18.6187 242.008 18.64H235.72V17.552H241L240.488 18.288C240.52 18.2347 240.552 18.1547 240.584 18.048C240.616 17.9307 240.632 17.8347 240.632 17.76C240.632 17.3227 240.541 16.944 240.36 16.624C240.189 16.304 239.949 16.0533 239.64 15.872C239.33 15.6907 238.968 15.6 238.552 15.6C238.061 15.6 237.64 15.7067 237.288 15.92C236.946 16.1227 236.68 16.4213 236.488 16.816C236.306 17.2 236.21 17.6747 236.2 18.24C236.2 18.816 236.29 19.3067 236.472 19.712C236.653 20.1173 236.92 20.4267 237.272 20.64C237.624 20.8533 238.05 20.96 238.552 20.96C239.053 20.96 239.496 20.8533 239.88 20.64C240.264 20.416 240.589 20.08 240.856 19.632L241.896 20.288C241.512 20.9067 241.026 21.376 240.44 21.696C239.864 22.0053 239.181 22.16 238.392 22.16ZM247.464 14.64H248.904L246.392 18.208L249.064 22H247.624L245.704 19.216L243.784 22H242.344L245.016 18.208L242.504 14.64H243.944L245.704 17.2L247.464 14.64ZM251.463 25.52H250.183V14.64H251.463V25.52ZM257.623 18.32C257.623 19.1093 257.457 19.792 257.127 20.368C256.796 20.944 256.353 21.3867 255.799 21.696C255.255 22.0053 254.647 22.16 253.975 22.16C253.367 22.16 252.828 22.0053 252.359 21.696C251.9 21.3867 251.537 20.944 251.271 20.368C251.015 19.792 250.887 19.1093 250.887 18.32C250.887 17.52 251.015 16.8373 251.271 16.272C251.537 15.696 251.9 15.2533 252.359 14.944C252.828 14.6347 253.367 14.48 253.975 14.48C254.647 14.48 255.255 14.6347 255.799 14.944C256.353 15.2533 256.796 15.696 257.127 16.272C257.457 16.8373 257.623 17.52 257.623 18.32ZM256.327 18.32C256.327 17.7547 256.209 17.2747 255.975 16.88C255.751 16.4853 255.447 16.1867 255.063 15.984C254.689 15.7813 254.273 15.68 253.815 15.68C253.441 15.68 253.073 15.7813 252.711 15.984C252.348 16.1867 252.049 16.4853 251.815 16.88C251.58 17.2747 251.463 17.7547 251.463 18.32C251.463 18.8853 251.58 19.3653 251.815 19.76C252.049 20.1547 252.348 20.4533 252.711 20.656C253.073 20.8587 253.441 20.96 253.815 20.96C254.273 20.96 254.689 20.8587 255.063 20.656C255.447 20.4533 255.751 20.1547 255.975 19.76C256.209 19.3653 256.327 18.8853 256.327 18.32ZM262.236 22.16C261.553 22.16 260.945 22 260.412 21.68C259.889 21.3493 259.478 20.896 259.18 20.32C258.892 19.744 258.748 19.0773 258.748 18.32C258.748 17.552 258.897 16.88 259.196 16.304C259.505 15.728 259.932 15.28 260.476 14.96C261.03 14.64 261.67 14.48 262.396 14.48C263.121 14.48 263.74 14.6347 264.252 14.944C264.774 15.2427 265.174 15.6747 265.452 16.24C265.729 16.8053 265.868 17.4773 265.868 18.256C265.868 18.3307 265.862 18.4107 265.852 18.496C265.852 18.5707 265.852 18.6187 265.852 18.64H259.564V17.552H264.844L264.332 18.288C264.364 18.2347 264.396 18.1547 264.428 18.048C264.46 17.9307 264.476 17.8347 264.476 17.76C264.476 17.3227 264.385 16.944 264.204 16.624C264.033 16.304 263.793 16.0533 263.484 15.872C263.174 15.6907 262.812 15.6 262.396 15.6C261.905 15.6 261.484 15.7067 261.132 15.92C260.79 16.1227 260.524 16.4213 260.332 16.816C260.15 17.2 260.054 17.6747 260.044 18.24C260.044 18.816 260.134 19.3067 260.316 19.712C260.497 20.1173 260.764 20.4267 261.116 20.64C261.468 20.8533 261.894 20.96 262.396 20.96C262.897 20.96 263.34 20.8533 263.724 20.64C264.108 20.416 264.433 20.08 264.7 19.632L265.74 20.288C265.356 20.9067 264.87 21.376 264.284 21.696C263.708 22.0053 263.025 22.16 262.236 22.16ZM272.342 17.52C272.342 16.912 272.209 16.4533 271.942 16.144C271.675 15.8347 271.286 15.68 270.774 15.68C270.401 15.68 270.07 15.76 269.782 15.92C269.505 16.0693 269.286 16.2827 269.126 16.56C268.977 16.8373 268.902 17.1573 268.902 17.52V22H267.622V14.64H268.902V15.792C269.147 15.344 269.451 15.0133 269.814 14.8C270.187 14.5867 270.614 14.48 271.094 14.48C271.873 14.48 272.486 14.7413 272.934 15.264C273.393 15.776 273.622 16.4747 273.622 17.36V22H272.342V17.52ZM276.332 19.744C276.481 19.968 276.652 20.176 276.844 20.368C277.036 20.56 277.255 20.7147 277.5 20.832C277.756 20.9387 278.033 20.992 278.332 20.992C278.695 20.992 278.977 20.912 279.18 20.752C279.393 20.5813 279.5 20.352 279.5 20.064C279.5 19.808 279.415 19.5947 279.244 19.424C279.084 19.2427 278.876 19.0933 278.62 18.976C278.364 18.848 278.092 18.7307 277.804 18.624C277.484 18.496 277.159 18.3467 276.828 18.176C276.508 17.9947 276.236 17.7653 276.012 17.488C275.799 17.2 275.692 16.8427 275.692 16.416C275.692 15.9787 275.804 15.616 276.028 15.328C276.263 15.04 276.561 14.8267 276.924 14.688C277.297 14.5493 277.681 14.48 278.076 14.48C278.471 14.48 278.839 14.544 279.18 14.672C279.532 14.8 279.841 14.9707 280.108 15.184C280.375 15.3973 280.583 15.6427 280.732 15.92L279.708 16.576C279.505 16.2987 279.249 16.0693 278.94 15.888C278.641 15.7067 278.3 15.616 277.916 15.616C277.649 15.616 277.42 15.6747 277.228 15.792C277.036 15.9093 276.94 16.0907 276.94 16.336C276.94 16.528 277.015 16.6987 277.164 16.848C277.313 16.9973 277.505 17.1307 277.74 17.248C277.975 17.3653 278.22 17.4773 278.476 17.584C278.903 17.7547 279.292 17.9413 279.644 18.144C279.996 18.336 280.273 18.5707 280.476 18.848C280.689 19.1253 280.796 19.4827 280.796 19.92C280.796 20.56 280.561 21.0933 280.092 21.52C279.633 21.9467 279.025 22.16 278.268 22.16C277.777 22.16 277.335 22.0747 276.94 21.904C276.545 21.7227 276.209 21.4933 275.932 21.216C275.665 20.9387 275.463 20.656 275.324 20.368L276.332 19.744ZM285.329 22.16C284.647 22.16 284.039 22 283.505 21.68C282.983 21.3493 282.572 20.896 282.273 20.32C281.985 19.744 281.841 19.0773 281.841 18.32C281.841 17.552 281.991 16.88 282.289 16.304C282.599 15.728 283.025 15.28 283.569 14.96C284.124 14.64 284.764 14.48 285.489 14.48C286.215 14.48 286.833 14.6347 287.345 14.944C287.868 15.2427 288.268 15.6747 288.545 16.24C288.823 16.8053 288.961 17.4773 288.961 18.256C288.961 18.3307 288.956 18.4107 288.945 18.496C288.945 18.5707 288.945 18.6187 288.945 18.64H282.657V17.552H287.937L287.425 18.288C287.457 18.2347 287.489 18.1547 287.521 18.048C287.553 17.9307 287.569 17.8347 287.569 17.76C287.569 17.3227 287.479 16.944 287.297 16.624C287.127 16.304 286.887 16.0533 286.577 15.872C286.268 15.6907 285.905 15.6 285.489 15.6C284.999 15.6 284.577 15.7067 284.225 15.92C283.884 16.1227 283.617 16.4213 283.425 16.816C283.244 17.2 283.148 17.6747 283.137 18.24C283.137 18.816 283.228 19.3067 283.409 19.712C283.591 20.1173 283.857 20.4267 284.209 20.64C284.561 20.8533 284.988 20.96 285.489 20.96C285.991 20.96 286.433 20.8533 286.817 20.64C287.201 20.416 287.527 20.08 287.793 19.632L288.833 20.288C288.449 20.9067 287.964 21.376 287.377 21.696C286.801 22.0053 286.119 22.16 285.329 22.16ZM291.02 19.744C291.169 19.968 291.34 20.176 291.532 20.368C291.724 20.56 291.942 20.7147 292.188 20.832C292.444 20.9387 292.721 20.992 293.02 20.992C293.382 20.992 293.665 20.912 293.868 20.752C294.081 20.5813 294.188 20.352 294.188 20.064C294.188 19.808 294.102 19.5947 293.932 19.424C293.772 19.2427 293.564 19.0933 293.308 18.976C293.052 18.848 292.78 18.7307 292.492 18.624C292.172 18.496 291.846 18.3467 291.516 18.176C291.196 17.9947 290.924 17.7653 290.7 17.488C290.486 17.2 290.38 16.8427 290.38 16.416C290.38 15.9787 290.492 15.616 290.716 15.328C290.95 15.04 291.249 14.8267 291.612 14.688C291.985 14.5493 292.369 14.48 292.764 14.48C293.158 14.48 293.526 14.544 293.868 14.672C294.22 14.8 294.529 14.9707 294.796 15.184C295.062 15.3973 295.27 15.6427 295.42 15.92L294.396 16.576C294.193 16.2987 293.937 16.0693 293.628 15.888C293.329 15.7067 292.988 15.616 292.604 15.616C292.337 15.616 292.108 15.6747 291.916 15.792C291.724 15.9093 291.628 16.0907 291.628 16.336C291.628 16.528 291.702 16.6987 291.852 16.848C292.001 16.9973 292.193 17.1307 292.428 17.248C292.662 17.3653 292.908 17.4773 293.164 17.584C293.59 17.7547 293.98 17.9413 294.332 18.144C294.684 18.336 294.961 18.5707 295.164 18.848C295.377 19.1253 295.484 19.4827 295.484 19.92C295.484 20.56 295.249 21.0933 294.78 21.52C294.321 21.9467 293.713 22.16 292.956 22.16C292.465 22.16 292.022 22.0747 291.628 21.904C291.233 21.7227 290.897 21.4933 290.62 21.216C290.353 20.9387 290.15 20.656 290.012 20.368L291.02 19.744Z" fill="#4C575C"/>
<path d="M160.204 63.614V62.816L163.228 62.088V72H162.458V63.026L160.204 63.614ZM166.512 68.836C166.512 69.34 166.615 69.788 166.82 70.18C167.035 70.5627 167.329 70.8707 167.702 71.104C168.076 71.328 168.505 71.44 168.99 71.44C169.476 71.44 169.905 71.328 170.278 71.104C170.652 70.8707 170.941 70.5627 171.146 70.18C171.361 69.788 171.468 69.34 171.468 68.836C171.468 68.3507 171.361 67.9167 171.146 67.534C170.932 67.142 170.642 66.8387 170.278 66.624C169.914 66.4 169.504 66.288 169.046 66.288C168.533 66.288 168.085 66.4047 167.702 66.638C167.329 66.862 167.035 67.17 166.82 67.562C166.615 67.9447 166.512 68.3693 166.512 68.836ZM169.69 62.2H170.656L167.464 66.554L167.408 66.512C167.642 66.232 167.917 66.0313 168.234 65.91C168.552 65.7793 168.911 65.714 169.312 65.714C169.714 65.714 170.087 65.7933 170.432 65.952C170.787 66.1107 171.095 66.3347 171.356 66.624C171.627 66.904 171.837 67.2353 171.986 67.618C172.136 67.9913 172.21 68.3973 172.21 68.836C172.21 69.4893 172.07 70.0633 171.79 70.558C171.52 71.0527 171.142 71.44 170.656 71.72C170.18 72 169.625 72.14 168.99 72.14C168.365 72.14 167.81 72 167.324 71.72C166.839 71.44 166.456 71.0527 166.176 70.558C165.906 70.0633 165.77 69.4893 165.77 68.836C165.77 68.4347 165.836 68.0473 165.966 67.674C166.106 67.3007 166.27 66.9833 166.456 66.722L169.69 62.2ZM173.394 64.244C173.394 63.8333 173.483 63.4647 173.66 63.138C173.838 62.8113 174.09 62.55 174.416 62.354C174.743 62.158 175.121 62.06 175.55 62.06C175.989 62.06 176.367 62.158 176.684 62.354C177.011 62.55 177.263 62.8113 177.44 63.138C177.618 63.4647 177.706 63.8333 177.706 64.244C177.706 64.6453 177.618 65.014 177.44 65.35C177.263 65.6767 177.011 65.938 176.684 66.134C176.367 66.33 175.989 66.428 175.55 66.428C175.121 66.428 174.743 66.33 174.416 66.134C174.09 65.938 173.838 65.6767 173.66 65.35C173.483 65.014 173.394 64.6453 173.394 64.244ZM174.052 64.244C174.052 64.524 174.113 64.7853 174.234 65.028C174.356 65.2707 174.528 65.4667 174.752 65.616C174.976 65.756 175.242 65.826 175.55 65.826C175.868 65.826 176.134 65.756 176.348 65.616C176.572 65.4667 176.745 65.2707 176.866 65.028C176.988 64.7853 177.048 64.524 177.048 64.244C177.048 63.9547 176.988 63.6933 176.866 63.46C176.745 63.2173 176.572 63.026 176.348 62.886C176.134 62.7367 175.868 62.662 175.55 62.662C175.242 62.662 174.976 62.7367 174.752 62.886C174.528 63.026 174.356 63.2173 174.234 63.46C174.113 63.6933 174.052 63.9547 174.052 64.244ZM178.336 69.956C178.336 69.5453 178.425 69.1767 178.602 68.85C178.78 68.5233 179.032 68.262 179.358 68.066C179.685 67.87 180.063 67.772 180.492 67.772C180.931 67.772 181.309 67.87 181.626 68.066C181.953 68.262 182.205 68.5233 182.382 68.85C182.56 69.1767 182.648 69.5453 182.648 69.956C182.648 70.3573 182.56 70.726 182.382 71.062C182.205 71.3887 181.953 71.65 181.626 71.846C181.309 72.042 180.931 72.14 180.492 72.14C180.063 72.14 179.685 72.042 179.358 71.846C179.032 71.65 178.78 71.3887 178.602 71.062C178.425 70.726 178.336 70.3573 178.336 69.956ZM178.994 69.956C178.994 70.236 179.055 70.4973 179.176 70.74C179.298 70.9827 179.47 71.1787 179.694 71.328C179.918 71.468 180.184 71.538 180.492 71.538C180.81 71.538 181.076 71.468 181.29 71.328C181.514 71.1787 181.687 70.9827 181.808 70.74C181.93 70.4973 181.99 70.236 181.99 69.956C181.99 69.6667 181.93 69.4053 181.808 69.172C181.687 68.9293 181.514 68.738 181.29 68.598C181.076 68.4487 180.81 68.374 180.492 68.374C180.184 68.374 179.918 68.4487 179.694 68.598C179.47 68.738 179.298 68.9293 179.176 69.172C179.055 69.4053 178.994 69.6667 178.994 69.956ZM180.842 62.2H181.542L175.2 72H174.5L180.842 62.2Z" fill="#4C575C"/>
<path d="M160.204 104.614V103.816L163.228 103.088V113H162.458V104.026L160.204 104.614ZM172.21 109.78C172.21 110.34 172.122 110.83 171.944 111.25C171.776 111.67 171.538 112.02 171.23 112.3C170.932 112.58 170.582 112.79 170.18 112.93C169.779 113.07 169.35 113.14 168.892 113.14C168.332 113.14 167.842 113.051 167.422 112.874C167.012 112.697 166.657 112.454 166.358 112.146C166.069 111.829 165.826 111.474 165.63 111.082L166.288 110.648C166.447 110.975 166.648 111.273 166.89 111.544C167.142 111.815 167.436 112.029 167.772 112.188C168.108 112.337 168.482 112.412 168.892 112.412C169.396 112.412 169.835 112.309 170.208 112.104C170.591 111.889 170.885 111.586 171.09 111.194C171.305 110.802 171.412 110.331 171.412 109.78C171.412 109.285 171.305 108.851 171.09 108.478C170.885 108.105 170.605 107.815 170.25 107.61C169.896 107.395 169.49 107.288 169.032 107.288C168.687 107.288 168.37 107.325 168.08 107.4C167.791 107.475 167.511 107.596 167.24 107.764C166.97 107.932 166.685 108.151 166.386 108.422L167.674 103.2H172.294V103.886H168.262L167.422 107.288C167.646 107.092 167.922 106.929 168.248 106.798C168.584 106.658 168.948 106.588 169.34 106.588C169.882 106.588 170.367 106.723 170.796 106.994C171.235 107.265 171.58 107.638 171.832 108.114C172.084 108.59 172.21 109.145 172.21 109.78ZM173.408 105.244C173.408 104.833 173.497 104.465 173.674 104.138C173.851 103.811 174.103 103.55 174.43 103.354C174.757 103.158 175.135 103.06 175.564 103.06C176.003 103.06 176.381 103.158 176.698 103.354C177.025 103.55 177.277 103.811 177.454 104.138C177.631 104.465 177.72 104.833 177.72 105.244C177.72 105.645 177.631 106.014 177.454 106.35C177.277 106.677 177.025 106.938 176.698 107.134C176.381 107.33 176.003 107.428 175.564 107.428C175.135 107.428 174.757 107.33 174.43 107.134C174.103 106.938 173.851 106.677 173.674 106.35C173.497 106.014 173.408 105.645 173.408 105.244ZM174.066 105.244C174.066 105.524 174.127 105.785 174.248 106.028C174.369 106.271 174.542 106.467 174.766 106.616C174.99 106.756 175.256 106.826 175.564 106.826C175.881 106.826 176.147 106.756 176.362 106.616C176.586 106.467 176.759 106.271 176.88 106.028C177.001 105.785 177.062 105.524 177.062 105.244C177.062 104.955 177.001 104.693 176.88 104.46C176.759 104.217 176.586 104.026 176.362 103.886C176.147 103.737 175.881 103.662 175.564 103.662C175.256 103.662 174.99 103.737 174.766 103.886C174.542 104.026 174.369 104.217 174.248 104.46C174.127 104.693 174.066 104.955 174.066 105.244ZM178.35 110.956C178.35 110.545 178.439 110.177 178.616 109.85C178.793 109.523 179.045 109.262 179.372 109.066C179.699 108.87 180.077 108.772 180.506 108.772C180.945 108.772 181.323 108.87 181.64 109.066C181.967 109.262 182.219 109.523 182.396 109.85C182.573 110.177 182.662 110.545 182.662 110.956C182.662 111.357 182.573 111.726 182.396 112.062C182.219 112.389 181.967 112.65 181.64 112.846C181.323 113.042 180.945 113.14 180.506 113.14C180.077 113.14 179.699 113.042 179.372 112.846C179.045 112.65 178.793 112.389 178.616 112.062C178.439 111.726 178.35 111.357 178.35 110.956ZM179.008 110.956C179.008 111.236 179.069 111.497 179.19 111.74C179.311 111.983 179.484 112.179 179.708 112.328C179.932 112.468 180.198 112.538 180.506 112.538C180.823 112.538 181.089 112.468 181.304 112.328C181.528 112.179 181.701 111.983 181.822 111.74C181.943 111.497 182.004 111.236 182.004 110.956C182.004 110.667 181.943 110.405 181.822 110.172C181.701 109.929 181.528 109.738 181.304 109.598C181.089 109.449 180.823 109.374 180.506 109.374C180.198 109.374 179.932 109.449 179.708 109.598C179.484 109.738 179.311 109.929 179.19 110.172C179.069 110.405 179.008 110.667 179.008 110.956ZM180.856 103.2H181.556L175.214 113H174.514L180.856 103.2Z" fill="#4C575C"/>
<path d="M160.204 148.614V147.816L163.228 147.088V157H162.458V148.026L160.204 148.614ZM165.378 155.04L170.782 147.2H171.076V157H170.306V154.732V154.606V148.978L166.666 154.354H170.628H170.782H172.616V155.04H165.378ZM173.558 149.244C173.558 148.833 173.647 148.465 173.824 148.138C174.002 147.811 174.254 147.55 174.58 147.354C174.907 147.158 175.285 147.06 175.714 147.06C176.153 147.06 176.531 147.158 176.848 147.354C177.175 147.55 177.427 147.811 177.604 148.138C177.782 148.465 177.87 148.833 177.87 149.244C177.87 149.645 177.782 150.014 177.604 150.35C177.427 150.677 177.175 150.938 176.848 151.134C176.531 151.33 176.153 151.428 175.714 151.428C175.285 151.428 174.907 151.33 174.58 151.134C174.254 150.938 174.002 150.677 173.824 150.35C173.647 150.014 173.558 149.645 173.558 149.244ZM174.216 149.244C174.216 149.524 174.277 149.785 174.398 150.028C174.52 150.271 174.692 150.467 174.916 150.616C175.14 150.756 175.406 150.826 175.714 150.826C176.032 150.826 176.298 150.756 176.512 150.616C176.736 150.467 176.909 150.271 177.03 150.028C177.152 149.785 177.212 149.524 177.212 149.244C177.212 148.955 177.152 148.693 177.03 148.46C176.909 148.217 176.736 148.026 176.512 147.886C176.298 147.737 176.032 147.662 175.714 147.662C175.406 147.662 175.14 147.737 174.916 147.886C174.692 148.026 174.52 148.217 174.398 148.46C174.277 148.693 174.216 148.955 174.216 149.244ZM178.5 154.956C178.5 154.545 178.589 154.177 178.766 153.85C178.944 153.523 179.196 153.262 179.522 153.066C179.849 152.87 180.227 152.772 180.656 152.772C181.095 152.772 181.473 152.87 181.79 153.066C182.117 153.262 182.369 153.523 182.546 153.85C182.724 154.177 182.812 154.545 182.812 154.956C182.812 155.357 182.724 155.726 182.546 156.062C182.369 156.389 182.117 156.65 181.79 156.846C181.473 157.042 181.095 157.14 180.656 157.14C180.227 157.14 179.849 157.042 179.522 156.846C179.196 156.65 178.944 156.389 178.766 156.062C178.589 155.726 178.5 155.357 178.5 154.956ZM179.158 154.956C179.158 155.236 179.219 155.497 179.34 155.74C179.462 155.983 179.634 156.179 179.858 156.328C180.082 156.468 180.348 156.538 180.656 156.538C180.974 156.538 181.24 156.468 181.454 156.328C181.678 156.179 181.851 155.983 181.972 155.74C182.094 155.497 182.154 155.236 182.154 154.956C182.154 154.667 182.094 154.405 181.972 154.172C181.851 153.929 181.678 153.738 181.454 153.598C181.24 153.449 180.974 153.374 180.656 153.374C180.348 153.374 180.082 153.449 179.858 153.598C179.634 153.738 179.462 153.929 179.34 154.172C179.219 154.405 179.158 154.667 179.158 154.956ZM181.006 147.2H181.706L175.364 157H174.664L181.006 147.2Z" fill="#4C575C"/>
<path d="M160.204 191.614V190.816L163.228 190.088V200H162.458V191.026L160.204 191.614ZM168.584 195.072V194.568C168.902 194.568 169.2 194.521 169.48 194.428C169.76 194.335 170.008 194.204 170.222 194.036C170.446 193.868 170.619 193.667 170.74 193.434C170.871 193.191 170.936 192.925 170.936 192.636C170.936 192.3 170.862 191.992 170.712 191.712C170.572 191.423 170.362 191.194 170.082 191.026C169.812 190.849 169.476 190.76 169.074 190.76C168.486 190.76 168.01 190.937 167.646 191.292C167.282 191.647 167.1 192.095 167.1 192.636H166.358C166.358 192.123 166.47 191.675 166.694 191.292C166.928 190.909 167.245 190.611 167.646 190.396C168.057 190.172 168.528 190.06 169.06 190.06C169.62 190.06 170.096 190.181 170.488 190.424C170.89 190.667 171.193 190.979 171.398 191.362C171.613 191.745 171.72 192.16 171.72 192.608C171.72 193.084 171.576 193.509 171.286 193.882C171.006 194.255 170.628 194.549 170.152 194.764C169.686 194.969 169.163 195.072 168.584 195.072ZM169.004 200.14C168.528 200.14 168.099 200.07 167.716 199.93C167.343 199.79 167.021 199.599 166.75 199.356C166.489 199.104 166.288 198.815 166.148 198.488C166.008 198.152 165.938 197.793 165.938 197.41H166.722C166.722 197.793 166.811 198.138 166.988 198.446C167.175 198.745 167.441 198.983 167.786 199.16C168.132 199.328 168.538 199.412 169.004 199.412C169.452 199.412 169.84 199.328 170.166 199.16C170.502 198.983 170.759 198.745 170.936 198.446C171.123 198.138 171.216 197.783 171.216 197.382C171.216 197.027 171.137 196.719 170.978 196.458C170.829 196.187 170.624 195.963 170.362 195.786C170.11 195.609 169.83 195.478 169.522 195.394C169.214 195.301 168.902 195.254 168.584 195.254V194.75C169.014 194.75 169.429 194.806 169.83 194.918C170.241 195.021 170.61 195.184 170.936 195.408C171.263 195.623 171.52 195.903 171.706 196.248C171.902 196.593 172 196.999 172 197.466C172 197.998 171.87 198.465 171.608 198.866C171.356 199.267 171.006 199.58 170.558 199.804C170.11 200.028 169.592 200.14 169.004 200.14ZM173.23 192.244C173.23 191.833 173.319 191.465 173.496 191.138C173.674 190.811 173.926 190.55 174.252 190.354C174.579 190.158 174.957 190.06 175.386 190.06C175.825 190.06 176.203 190.158 176.52 190.354C176.847 190.55 177.099 190.811 177.276 191.138C177.454 191.465 177.542 191.833 177.542 192.244C177.542 192.645 177.454 193.014 177.276 193.35C177.099 193.677 176.847 193.938 176.52 194.134C176.203 194.33 175.825 194.428 175.386 194.428C174.957 194.428 174.579 194.33 174.252 194.134C173.926 193.938 173.674 193.677 173.496 193.35C173.319 193.014 173.23 192.645 173.23 192.244ZM173.888 192.244C173.888 192.524 173.949 192.785 174.07 193.028C174.192 193.271 174.364 193.467 174.588 193.616C174.812 193.756 175.078 193.826 175.386 193.826C175.704 193.826 175.97 193.756 176.184 193.616C176.408 193.467 176.581 193.271 176.702 193.028C176.824 192.785 176.884 192.524 176.884 192.244C176.884 191.955 176.824 191.693 176.702 191.46C176.581 191.217 176.408 191.026 176.184 190.886C175.97 190.737 175.704 190.662 175.386 190.662C175.078 190.662 174.812 190.737 174.588 190.886C174.364 191.026 174.192 191.217 174.07 191.46C173.949 191.693 173.888 191.955 173.888 192.244ZM178.172 197.956C178.172 197.545 178.261 197.177 178.438 196.85C178.616 196.523 178.868 196.262 179.194 196.066C179.521 195.87 179.899 195.772 180.328 195.772C180.767 195.772 181.145 195.87 181.462 196.066C181.789 196.262 182.041 196.523 182.218 196.85C182.396 197.177 182.484 197.545 182.484 197.956C182.484 198.357 182.396 198.726 182.218 199.062C182.041 199.389 181.789 199.65 181.462 199.846C181.145 200.042 180.767 200.14 180.328 200.14C179.899 200.14 179.521 200.042 179.194 199.846C178.868 199.65 178.616 199.389 178.438 199.062C178.261 198.726 178.172 198.357 178.172 197.956ZM178.83 197.956C178.83 198.236 178.891 198.497 179.012 198.74C179.134 198.983 179.306 199.179 179.53 199.328C179.754 199.468 180.02 199.538 180.328 199.538C180.646 199.538 180.912 199.468 181.126 199.328C181.35 199.179 181.523 198.983 181.644 198.74C181.766 198.497 181.826 198.236 181.826 197.956C181.826 197.667 181.766 197.405 181.644 197.172C181.523 196.929 181.35 196.738 181.126 196.598C180.912 196.449 180.646 196.374 180.328 196.374C180.02 196.374 179.754 196.449 179.53 196.598C179.306 196.738 179.134 196.929 179.012 197.172C178.891 197.405 178.83 197.667 178.83 197.956ZM180.678 190.2H181.378L175.036 200H174.336L180.678 190.2Z" fill="#4C575C"/>
<path d="M160.204 246.614V245.816L163.228 245.088V255H162.458V246.026L160.204 246.614ZM165.378 255L169.956 250.17C170.171 249.927 170.362 249.689 170.53 249.456C170.708 249.223 170.843 248.975 170.936 248.714C171.039 248.443 171.09 248.154 171.09 247.846C171.09 247.603 171.048 247.361 170.964 247.118C170.88 246.875 170.75 246.656 170.572 246.46C170.395 246.255 170.171 246.091 169.9 245.97C169.639 245.839 169.326 245.774 168.962 245.774C168.486 245.774 168.076 245.891 167.73 246.124C167.385 246.348 167.119 246.67 166.932 247.09C166.746 247.51 166.652 248 166.652 248.56H165.882C165.882 247.86 166.004 247.249 166.246 246.726C166.498 246.194 166.853 245.783 167.31 245.494C167.777 245.195 168.328 245.046 168.962 245.046C169.476 245.046 169.914 245.135 170.278 245.312C170.652 245.489 170.955 245.718 171.188 245.998C171.431 246.269 171.608 246.567 171.72 246.894C171.832 247.211 171.888 247.519 171.888 247.818C171.888 248.35 171.758 248.849 171.496 249.316C171.244 249.783 170.932 250.207 170.558 250.59L166.988 254.272H172.07V255H165.378ZM173.217 247.244C173.217 246.833 173.305 246.465 173.483 246.138C173.66 245.811 173.912 245.55 174.239 245.354C174.565 245.158 174.943 245.06 175.373 245.06C175.811 245.06 176.189 245.158 176.507 245.354C176.833 245.55 177.085 245.811 177.263 246.138C177.44 246.465 177.529 246.833 177.529 247.244C177.529 247.645 177.44 248.014 177.263 248.35C177.085 248.677 176.833 248.938 176.507 249.134C176.189 249.33 175.811 249.428 175.373 249.428C174.943 249.428 174.565 249.33 174.239 249.134C173.912 248.938 173.66 248.677 173.483 248.35C173.305 248.014 173.217 247.645 173.217 247.244ZM173.875 247.244C173.875 247.524 173.935 247.785 174.057 248.028C174.178 248.271 174.351 248.467 174.575 248.616C174.799 248.756 175.065 248.826 175.373 248.826C175.69 248.826 175.956 248.756 176.171 248.616C176.395 248.467 176.567 248.271 176.689 248.028C176.81 247.785 176.871 247.524 176.871 247.244C176.871 246.955 176.81 246.693 176.689 246.46C176.567 246.217 176.395 246.026 176.171 245.886C175.956 245.737 175.69 245.662 175.373 245.662C175.065 245.662 174.799 245.737 174.575 245.886C174.351 246.026 174.178 246.217 174.057 246.46C173.935 246.693 173.875 246.955 173.875 247.244ZM178.159 252.956C178.159 252.545 178.247 252.177 178.425 251.85C178.602 251.523 178.854 251.262 179.181 251.066C179.507 250.87 179.885 250.772 180.315 250.772C180.753 250.772 181.131 250.87 181.449 251.066C181.775 251.262 182.027 251.523 182.205 251.85C182.382 252.177 182.471 252.545 182.471 252.956C182.471 253.357 182.382 253.726 182.205 254.062C182.027 254.389 181.775 254.65 181.449 254.846C181.131 255.042 180.753 255.14 180.315 255.14C179.885 255.14 179.507 255.042 179.181 254.846C178.854 254.65 178.602 254.389 178.425 254.062C178.247 253.726 178.159 253.357 178.159 252.956ZM178.817 252.956C178.817 253.236 178.877 253.497 178.999 253.74C179.12 253.983 179.293 254.179 179.517 254.328C179.741 254.468 180.007 254.538 180.315 254.538C180.632 254.538 180.898 254.468 181.113 254.328C181.337 254.179 181.509 253.983 181.631 253.74C181.752 253.497 181.813 253.236 181.813 252.956C181.813 252.667 181.752 252.405 181.631 252.172C181.509 251.929 181.337 251.738 181.113 251.598C180.898 251.449 180.632 251.374 180.315 251.374C180.007 251.374 179.741 251.449 179.517 251.598C179.293 251.738 179.12 251.929 178.999 252.172C178.877 252.405 178.817 252.667 178.817 252.956ZM180.665 245.2H181.365L175.023 255H174.323L180.665 245.2Z" fill="#4C575C"/>
<path d="M161.204 305.614V304.816L164.228 304.088V314H163.458V305.026L161.204 305.614ZM167.274 305.614V304.816L170.298 304.088V314H169.528V305.026L167.274 305.614ZM172.631 306.244C172.631 305.833 172.719 305.465 172.897 305.138C173.074 304.811 173.326 304.55 173.653 304.354C173.979 304.158 174.357 304.06 174.787 304.06C175.225 304.06 175.603 304.158 175.921 304.354C176.247 304.55 176.499 304.811 176.677 305.138C176.854 305.465 176.943 305.833 176.943 306.244C176.943 306.645 176.854 307.014 176.677 307.35C176.499 307.677 176.247 307.938 175.921 308.134C175.603 308.33 175.225 308.428 174.787 308.428C174.357 308.428 173.979 308.33 173.653 308.134C173.326 307.938 173.074 307.677 172.897 307.35C172.719 307.014 172.631 306.645 172.631 306.244ZM173.289 306.244C173.289 306.524 173.349 306.785 173.471 307.028C173.592 307.271 173.765 307.467 173.989 307.616C174.213 307.756 174.479 307.826 174.787 307.826C175.104 307.826 175.37 307.756 175.585 307.616C175.809 307.467 175.981 307.271 176.103 307.028C176.224 306.785 176.285 306.524 176.285 306.244C176.285 305.955 176.224 305.693 176.103 305.46C175.981 305.217 175.809 305.026 175.585 304.886C175.37 304.737 175.104 304.662 174.787 304.662C174.479 304.662 174.213 304.737 173.989 304.886C173.765 305.026 173.592 305.217 173.471 305.46C173.349 305.693 173.289 305.955 173.289 306.244ZM177.573 311.956C177.573 311.545 177.661 311.177 177.839 310.85C178.016 310.523 178.268 310.262 178.595 310.066C178.921 309.87 179.299 309.772 179.729 309.772C180.167 309.772 180.545 309.87 180.863 310.066C181.189 310.262 181.441 310.523 181.619 310.85C181.796 311.177 181.885 311.545 181.885 311.956C181.885 312.357 181.796 312.726 181.619 313.062C181.441 313.389 181.189 313.65 180.863 313.846C180.545 314.042 180.167 314.14 179.729 314.14C179.299 314.14 178.921 314.042 178.595 313.846C178.268 313.65 178.016 313.389 177.839 313.062C177.661 312.726 177.573 312.357 177.573 311.956ZM178.231 311.956C178.231 312.236 178.291 312.497 178.413 312.74C178.534 312.983 178.707 313.179 178.931 313.328C179.155 313.468 179.421 313.538 179.729 313.538C180.046 313.538 180.312 313.468 180.527 313.328C180.751 313.179 180.923 312.983 181.045 312.74C181.166 312.497 181.227 312.236 181.227 311.956C181.227 311.667 181.166 311.405 181.045 311.172C180.923 310.929 180.751 310.738 180.527 310.598C180.312 310.449 180.046 310.374 179.729 310.374C179.421 310.374 179.155 310.449 178.931 310.598C178.707 310.738 178.534 310.929 178.413 311.172C178.291 311.405 178.231 311.667 178.231 311.956ZM180.079 304.2H180.779L174.437 314H173.737L180.079 304.2Z" fill="#4C575C"/>
<path d="M158.204 378.614V377.816L161.228 377.088V387H160.458V378.026L158.204 378.614ZM164.484 382.1C164.484 382.707 164.545 383.271 164.666 383.794C164.788 384.317 164.96 384.774 165.184 385.166C165.418 385.558 165.698 385.866 166.024 386.09C166.351 386.305 166.72 386.412 167.13 386.412C167.55 386.412 167.919 386.305 168.236 386.09C168.563 385.866 168.838 385.558 169.062 385.166C169.296 384.774 169.473 384.317 169.594 383.794C169.716 383.271 169.776 382.707 169.776 382.1C169.776 381.493 169.716 380.929 169.594 380.406C169.473 379.883 169.296 379.426 169.062 379.034C168.838 378.642 168.563 378.339 168.236 378.124C167.919 377.9 167.55 377.788 167.13 377.788C166.72 377.788 166.351 377.9 166.024 378.124C165.698 378.339 165.418 378.642 165.184 379.034C164.96 379.426 164.788 379.883 164.666 380.406C164.545 380.929 164.484 381.493 164.484 382.1ZM163.714 382.1C163.714 381.139 163.854 380.28 164.134 379.524C164.414 378.768 164.811 378.171 165.324 377.732C165.838 377.284 166.44 377.06 167.13 377.06C167.821 377.06 168.423 377.284 168.936 377.732C169.45 378.171 169.846 378.768 170.126 379.524C170.406 380.28 170.546 381.139 170.546 382.1C170.546 383.061 170.406 383.92 170.126 384.676C169.846 385.432 169.45 386.034 168.936 386.482C168.423 386.921 167.821 387.14 167.13 387.14C166.44 387.14 165.838 386.921 165.324 386.482C164.811 386.034 164.414 385.432 164.134 384.676C163.854 383.92 163.714 383.061 163.714 382.1ZM171.681 379.244C171.681 378.833 171.77 378.465 171.947 378.138C172.125 377.811 172.377 377.55 172.703 377.354C173.03 377.158 173.408 377.06 173.837 377.06C174.276 377.06 174.654 377.158 174.971 377.354C175.298 377.55 175.55 377.811 175.727 378.138C175.905 378.465 175.993 378.833 175.993 379.244C175.993 379.645 175.905 380.014 175.727 380.35C175.55 380.677 175.298 380.938 174.971 381.134C174.654 381.33 174.276 381.428 173.837 381.428C173.408 381.428 173.03 381.33 172.703 381.134C172.377 380.938 172.125 380.677 171.947 380.35C171.77 380.014 171.681 379.645 171.681 379.244ZM172.339 379.244C172.339 379.524 172.4 379.785 172.521 380.028C172.643 380.271 172.815 380.467 173.039 380.616C173.263 380.756 173.529 380.826 173.837 380.826C174.155 380.826 174.421 380.756 174.635 380.616C174.859 380.467 175.032 380.271 175.153 380.028C175.275 379.785 175.335 379.524 175.335 379.244C175.335 378.955 175.275 378.693 175.153 378.46C175.032 378.217 174.859 378.026 174.635 377.886C174.421 377.737 174.155 377.662 173.837 377.662C173.529 377.662 173.263 377.737 173.039 377.886C172.815 378.026 172.643 378.217 172.521 378.46C172.4 378.693 172.339 378.955 172.339 379.244ZM176.623 384.956C176.623 384.545 176.712 384.177 176.889 383.85C177.067 383.523 177.319 383.262 177.645 383.066C177.972 382.87 178.35 382.772 178.779 382.772C179.218 382.772 179.596 382.87 179.913 383.066C180.24 383.262 180.492 383.523 180.669 383.85C180.847 384.177 180.935 384.545 180.935 384.956C180.935 385.357 180.847 385.726 180.669 386.062C180.492 386.389 180.24 386.65 179.913 386.846C179.596 387.042 179.218 387.14 178.779 387.14C178.35 387.14 177.972 387.042 177.645 386.846C177.319 386.65 177.067 386.389 176.889 386.062C176.712 385.726 176.623 385.357 176.623 384.956ZM177.281 384.956C177.281 385.236 177.342 385.497 177.463 385.74C177.585 385.983 177.757 386.179 177.981 386.328C178.205 386.468 178.471 386.538 178.779 386.538C179.097 386.538 179.363 386.468 179.577 386.328C179.801 386.179 179.974 385.983 180.095 385.74C180.217 385.497 180.277 385.236 180.277 384.956C180.277 384.667 180.217 384.405 180.095 384.172C179.974 383.929 179.801 383.738 179.577 383.598C179.363 383.449 179.097 383.374 178.779 383.374C178.471 383.374 178.205 383.449 177.981 383.598C177.757 383.738 177.585 383.929 177.463 384.172C177.342 384.405 177.281 384.667 177.281 384.956ZM179.129 377.2H179.829L173.487 387H172.787L179.129 377.2Z" fill="#4C575C"/>
<path d="M167.398 452.364C167.398 451.86 167.291 451.412 167.076 451.02C166.871 450.628 166.581 450.32 166.208 450.096C165.835 449.872 165.405 449.76 164.92 449.76C164.435 449.76 164.005 449.872 163.632 450.096C163.259 450.32 162.965 450.628 162.75 451.02C162.545 451.412 162.442 451.86 162.442 452.364C162.442 452.849 162.549 453.283 162.764 453.666C162.979 454.049 163.268 454.352 163.632 454.576C164.005 454.8 164.416 454.912 164.864 454.912C165.377 454.912 165.821 454.795 166.194 454.562C166.577 454.329 166.871 454.021 167.076 453.638C167.291 453.255 167.398 452.831 167.398 452.364ZM164.22 459H163.254L166.446 454.646L166.502 454.688C166.269 454.968 165.993 455.173 165.676 455.304C165.359 455.425 164.999 455.486 164.598 455.486C164.197 455.486 163.819 455.407 163.464 455.248C163.119 455.089 162.811 454.87 162.54 454.59C162.279 454.301 162.073 453.969 161.924 453.596C161.775 453.213 161.7 452.803 161.7 452.364C161.7 451.711 161.835 451.137 162.106 450.642C162.386 450.147 162.769 449.76 163.254 449.48C163.739 449.2 164.295 449.06 164.92 449.06C165.555 449.06 166.11 449.2 166.586 449.48C167.071 449.76 167.449 450.147 167.72 450.642C168 451.137 168.14 451.711 168.14 452.364C168.14 452.765 168.07 453.153 167.93 453.526C167.799 453.899 167.641 454.217 167.454 454.478L164.22 459ZM169.324 451.244C169.324 450.833 169.413 450.465 169.59 450.138C169.767 449.811 170.019 449.55 170.346 449.354C170.673 449.158 171.051 449.06 171.48 449.06C171.919 449.06 172.297 449.158 172.614 449.354C172.941 449.55 173.193 449.811 173.37 450.138C173.547 450.465 173.636 450.833 173.636 451.244C173.636 451.645 173.547 452.014 173.37 452.35C173.193 452.677 172.941 452.938 172.614 453.134C172.297 453.33 171.919 453.428 171.48 453.428C171.051 453.428 170.673 453.33 170.346 453.134C170.019 452.938 169.767 452.677 169.59 452.35C169.413 452.014 169.324 451.645 169.324 451.244ZM169.982 451.244C169.982 451.524 170.043 451.785 170.164 452.028C170.285 452.271 170.458 452.467 170.682 452.616C170.906 452.756 171.172 452.826 171.48 452.826C171.797 452.826 172.063 452.756 172.278 452.616C172.502 452.467 172.675 452.271 172.796 452.028C172.917 451.785 172.978 451.524 172.978 451.244C172.978 450.955 172.917 450.693 172.796 450.46C172.675 450.217 172.502 450.026 172.278 449.886C172.063 449.737 171.797 449.662 171.48 449.662C171.172 449.662 170.906 449.737 170.682 449.886C170.458 450.026 170.285 450.217 170.164 450.46C170.043 450.693 169.982 450.955 169.982 451.244ZM174.266 456.956C174.266 456.545 174.355 456.177 174.532 455.85C174.709 455.523 174.961 455.262 175.288 455.066C175.615 454.87 175.993 454.772 176.422 454.772C176.861 454.772 177.239 454.87 177.556 455.066C177.883 455.262 178.135 455.523 178.312 455.85C178.489 456.177 178.578 456.545 178.578 456.956C178.578 457.357 178.489 457.726 178.312 458.062C178.135 458.389 177.883 458.65 177.556 458.846C177.239 459.042 176.861 459.14 176.422 459.14C175.993 459.14 175.615 459.042 175.288 458.846C174.961 458.65 174.709 458.389 174.532 458.062C174.355 457.726 174.266 457.357 174.266 456.956ZM174.924 456.956C174.924 457.236 174.985 457.497 175.106 457.74C175.227 457.983 175.4 458.179 175.624 458.328C175.848 458.468 176.114 458.538 176.422 458.538C176.739 458.538 177.005 458.468 177.22 458.328C177.444 458.179 177.617 457.983 177.738 457.74C177.859 457.497 177.92 457.236 177.92 456.956C177.92 456.667 177.859 456.405 177.738 456.172C177.617 455.929 177.444 455.738 177.22 455.598C177.005 455.449 176.739 455.374 176.422 455.374C176.114 455.374 175.848 455.449 175.624 455.598C175.4 455.738 175.227 455.929 175.106 456.172C174.985 456.405 174.924 456.667 174.924 456.956ZM176.772 449.2H177.472L171.13 459H170.43L176.772 449.2Z" fill="#4C575C"/>
<line x1="110.5" y1="-2.11891e-08" x2="110.5" y2="486" stroke="#E4E4E4"/>
</svg>
