<svg width="104" height="54" viewBox="0 0 104 54" fill="none" xmlns="http://www.w3.org/2000/svg">
<path d="M18.7407 7.61499C17.7383 7.61499 16.8359 8.03805 16.1968 8.7133C15.557 8.03805 14.6552 7.61499 13.6524 7.61499C12.65 7.61499 11.7482 8.03805 11.1084 8.7133C10.4686 8.03805 9.56622 7.61499 8.56383 7.61499C6.6248 7.61499 5.05322 9.19005 5.05322 11.1345C5.05322 13.0789 6.6248 14.6539 8.56383 14.6539C9.56622 14.6539 10.4686 14.2309 11.1084 13.5556C11.7482 14.2309 12.65 14.6539 13.6524 14.6539C14.6552 14.6539 15.557 14.2309 16.1968 13.5556C16.8359 14.2309 17.7383 14.6539 18.7407 14.6539C20.6798 14.6539 22.252 13.0789 22.252 11.1345C22.252 9.19005 20.6798 7.61499 18.7407 7.61499Z" fill="#F2F2F2"/>
<path d="M27.2887 31.6873C27.2887 30.0354 26.1526 28.6537 24.6227 28.2746C26.1526 27.8954 27.2887 26.5124 27.2887 24.8609C27.2887 23.1507 26.0705 21.7254 24.4559 21.4081C26.0374 21.0664 27.2232 19.6573 27.2232 17.97C27.2232 16.0256 25.6514 14.4489 23.7124 14.4489C21.7734 14.4489 20.2011 16.0256 20.2011 17.97C20.2011 19.6801 21.4195 21.1055 23.034 21.4227C22.3328 21.5741 21.7096 21.9369 21.233 22.4397C20.5968 21.7954 19.7154 21.3967 18.7406 21.3967C17.7388 21.3967 16.8366 21.8214 16.1968 22.4966C15.557 21.8214 14.6552 21.3967 13.6528 21.3967C12.6505 21.3967 11.7481 21.8214 11.1083 22.4966C10.4691 21.8214 9.56671 21.3967 8.56449 21.3967C6.62545 21.3967 5.05322 22.9734 5.05322 24.9178C5.05322 26.8606 6.62545 28.4373 8.56449 28.4373C9.56671 28.4373 10.4691 28.0142 11.1083 27.3373C11.7481 28.0142 12.6505 28.4373 13.6528 28.4373C14.6552 28.4373 15.557 28.0142 16.1968 27.3373C16.8366 28.0142 17.7388 28.4373 18.7406 28.4373C19.7447 28.4373 20.6478 28.0126 21.2876 27.3357C21.7341 27.7848 22.2986 28.1167 22.9328 28.2746C21.4028 28.6537 20.2669 30.0354 20.2669 31.6873C20.2669 33.2905 21.3372 34.641 22.7996 35.066C22.1648 35.2505 21.6047 35.6103 21.1728 36.088C20.5416 35.4793 19.686 35.1034 18.7406 35.1034C17.7388 35.1034 16.8366 35.5266 16.1968 36.2019C15.557 35.5266 14.6552 35.1034 13.6528 35.1034C12.6505 35.1034 11.7481 35.5266 11.1083 36.2019C10.4691 35.5266 9.56671 35.1034 8.56449 35.1034C6.62545 35.1034 5.05322 36.679 5.05322 38.6231C5.05322 40.5663 6.62545 42.1432 8.56449 42.1432C9.56671 42.1432 10.4691 41.7193 11.1083 41.0442C11.7481 41.7193 12.6505 42.1432 13.6528 42.1432C14.6552 42.1432 15.557 41.7193 16.1968 41.0442C16.8366 41.7193 17.7388 42.1432 18.7406 42.1432C19.7754 42.1432 20.7017 41.6917 21.3445 40.979C21.9759 41.5883 22.8322 41.9647 23.7781 41.9647C25.7172 41.9647 27.2887 40.3891 27.2887 38.4452C27.2887 36.8414 26.2183 35.4915 24.7558 35.066C26.2183 34.641 27.2887 33.2905 27.2887 31.6873Z" fill="#F2F2F2"/>
<path d="M7.02204 31.7263C7.02204 33.6703 5.45046 35.246 3.51142 35.246C1.57223 35.246 0 33.6703 0 31.7263C0 29.7824 1.57223 28.2062 3.51142 28.2062C5.45046 28.2062 7.02204 29.7824 7.02204 31.7263Z" fill="#F2F2F2"/>
<path d="M49.2174 7.46204C48.1715 7.46204 47.2355 7.9225 46.5926 8.64983C45.9497 7.9225 45.0129 7.46204 43.9677 7.46204C42.9567 7.46204 42.0483 7.8916 41.4079 8.57661C40.7674 7.8916 39.859 7.46204 38.8487 7.46204C36.9096 7.46204 35.3374 9.0371 35.3374 10.9815C35.3374 12.9259 36.9096 14.501 38.8487 14.501C39.859 14.501 40.7674 14.0714 41.4079 13.3848C42.0483 14.0714 42.9567 14.501 43.9677 14.501C45.0129 14.501 45.9497 14.0405 46.5926 13.3132C47.2355 14.0405 48.1715 14.501 49.2174 14.501C51.1559 14.501 52.7282 12.9259 52.7282 10.9815C52.7282 9.0371 51.1559 7.46204 49.2174 7.46204Z" fill="#F2F2F2"/>
<path d="M74.995 34.8378C73.9491 34.8378 73.0125 35.2991 72.3696 36.0259C71.7267 35.2991 70.7907 34.8378 69.7453 34.8378C68.7345 34.8378 67.8259 35.269 67.1855 35.954C66.545 35.269 65.6366 34.8378 64.6263 34.8378C63.5535 34.8378 62.5946 35.3218 61.9506 36.0812C61.4352 35.5869 60.769 35.248 60.0281 35.1398C61.7259 34.8926 63.0313 33.4319 63.0313 31.6608C63.0313 29.8879 61.7224 28.4243 60.0213 28.1819C61.7224 27.9378 63.0313 26.4734 63.0313 24.7014C63.0313 23.0515 61.8978 21.6701 60.3691 21.2894C61.0219 21.1267 61.6014 20.7801 62.0536 20.3098C62.6824 20.9054 63.5288 21.2731 64.4619 21.2731C65.4729 21.2731 66.3806 20.8419 67.0211 20.1569C67.6615 20.8419 68.5701 21.2731 69.5809 21.2731C70.6263 21.2731 71.563 20.8126 72.2052 20.0853C72.8487 20.8126 73.7847 21.2731 74.8306 21.2731C76.7698 21.2731 78.3407 19.6964 78.3407 17.7536C78.3407 15.8092 76.7698 14.2342 74.8306 14.2342C73.7847 14.2342 72.8487 14.6946 72.2052 15.422C71.563 14.6946 70.6263 14.2342 69.5809 14.2342C68.5701 14.2342 67.6615 14.6637 67.0211 15.3487C66.3806 14.6637 65.4729 14.2342 64.4619 14.2342C63.4645 14.2342 62.5658 14.6523 61.9272 15.3211C61.4346 14.8557 60.8089 14.5303 60.112 14.4115C61.6849 14.0633 62.8627 12.6591 62.8627 10.9767C62.8627 9.20635 61.5573 7.74519 59.8599 7.49787C61.5573 7.25055 62.8627 5.78939 62.8627 4.01908C62.8627 2.07629 61.2911 0.499611 59.3526 0.499611C57.4131 0.499611 55.8413 2.07629 55.8413 4.01908C55.8413 5.78939 57.1467 7.25055 58.8447 7.49787C57.1467 7.74519 55.8413 9.20635 55.8413 10.9767C55.8413 12.7177 57.1043 14.1609 58.7613 14.4424C57.1878 14.7906 56.0095 16.1948 56.0095 17.8773C56.0095 19.5272 57.1431 20.9086 58.6717 21.2894C57.1431 21.6701 56.0095 23.0515 56.0095 24.7014C56.0095 26.4734 57.3186 27.9378 59.0208 28.1819C57.3186 28.4243 56.0095 29.8879 56.0095 31.6608C56.0095 33.4319 57.3149 34.8926 59.0122 35.1398C57.3149 35.3869 56.0095 36.8481 56.0095 38.6187C56.0095 40.5626 57.581 42.1382 59.5207 42.1382C60.5935 42.1382 61.5518 41.6548 62.196 40.8947C62.8272 41.5016 63.6822 41.8769 64.6263 41.8769C65.6366 41.8769 66.545 41.447 67.1855 40.7618C67.8259 41.447 68.7345 41.8769 69.7453 41.8769C70.7907 41.8769 71.7267 41.4162 72.3696 40.6892C73.0125 41.4162 73.9491 41.8769 74.995 41.8769C76.9336 41.8769 78.5051 40.3018 78.5051 38.3579C78.5051 36.414 76.9336 34.8378 74.995 34.8378Z" fill="#F2F2F2"/>
<path d="M80.5623 27.8776C82.1456 27.5668 83.3417 26.1691 83.3417 24.4899C83.3417 22.5813 81.7995 21.0355 79.8974 21.0355C77.9939 21.0355 76.4512 22.5813 76.4512 24.4899C76.4512 26.1691 77.648 27.5668 79.2318 27.8776C77.648 28.19 76.4512 29.5874 76.4512 31.2669C76.4512 33.1739 77.9939 34.7205 79.8974 34.7205C81.7995 34.7205 83.3417 33.1739 83.3417 31.2669C83.3417 29.5874 82.1456 28.19 80.5623 27.8776Z" fill="#F2F2F2"/>
<path d="M37.4507 24.7373C37.4507 23.0402 36.2417 21.6262 34.6406 21.3122C36.2417 20.9981 37.4507 19.5858 37.4507 17.8871C37.4507 15.9589 35.8915 14.3953 33.9684 14.3953C32.0446 14.3953 30.4854 15.9589 30.4854 17.8871C30.4854 19.5858 31.6943 20.9981 33.2961 21.3122C31.6943 21.6262 30.4854 23.0402 30.4854 24.7373C30.4854 26.423 31.6773 27.8304 33.2617 28.1575C31.6773 28.4845 30.4854 29.8907 30.4854 31.5764C30.4854 33.2736 31.6943 34.6863 33.2961 35.0012C31.6943 35.3149 30.4854 36.7287 30.4854 38.4259C30.4854 40.3546 32.0446 41.9177 33.9684 41.9177C35.8915 41.9177 37.4507 40.3546 37.4507 38.4259C37.4507 36.7287 36.2417 35.3149 34.6406 35.0012C36.2417 34.6863 37.4507 33.2736 37.4507 31.5764C37.4507 29.8907 36.259 28.4845 34.6744 28.1575C36.259 27.8304 37.4507 26.423 37.4507 24.7373Z" fill="#F2F2F2"/>
<path d="M2.02868 49.8114H3.71371L2.88678 47.432H2.86357L2.02868 49.8114ZM2.36838 46.4782H3.39722L5.52274 52.0117H4.48725L3.96885 50.5475H1.76607L1.24768 52.0117H0.250977L2.36838 46.4782Z" fill="#F2F2F2"/>
<path d="M5.88623 48.0053H6.71365V48.7801H6.72907C6.75488 48.6719 6.80519 48.5661 6.87936 48.4628C6.95418 48.3595 7.04443 48.2654 7.14992 48.1798C7.25542 48.0944 7.37309 48.0261 7.50196 47.9745C7.63083 47.9228 7.76213 47.8971 7.89635 47.8971C7.99942 47.8971 8.07002 47.8995 8.10865 47.9044C8.14727 47.9093 8.1872 47.9148 8.22826 47.9197V48.7728C8.16691 48.7622 8.10378 48.7531 8.03934 48.7451C7.97426 48.7376 7.91177 48.734 7.84977 48.734C7.70013 48.734 7.55957 48.7635 7.42843 48.8232C7.29713 48.8821 7.18238 48.9701 7.08419 49.0863C6.98665 49.2027 6.90939 49.3458 6.85242 49.5162C6.79594 49.6872 6.7677 49.8833 6.7677 50.1054V52.0117H5.88623V48.0053Z" fill="#F2F2F2"/>
<path d="M11.1274 49.346C11.0912 49.0982 10.9919 48.9112 10.8299 48.7845C10.6673 48.6572 10.4625 48.5944 10.2153 48.5944C10.1017 48.5944 9.98092 48.6135 9.85205 48.6523C9.72335 48.6911 9.60487 48.7636 9.49629 48.8694C9.38835 48.9758 9.29811 49.1228 9.22573 49.3115C9.15334 49.4998 9.11715 49.7463 9.11715 50.0513C9.11715 50.2168 9.13678 50.3821 9.17541 50.547C9.2142 50.7131 9.27604 50.86 9.36076 50.9892C9.44597 51.1184 9.55585 51.2229 9.68959 51.3028C9.82333 51.3828 9.98579 51.4227 10.1767 51.4227C10.4342 51.4227 10.647 51.3428 10.8145 51.1828C10.982 51.0224 11.0864 50.7979 11.1274 50.5089H12.0089C11.9261 51.0304 11.7292 51.4295 11.4176 51.7056C11.1054 51.9824 10.6918 52.1207 10.1767 52.1207C9.86195 52.1207 9.58523 52.0672 9.34534 51.9621C9.10611 51.8557 8.90372 51.7112 8.73866 51.528C8.57376 51.3441 8.44862 51.1264 8.3639 50.8729C8.27869 50.6195 8.23633 50.3459 8.23633 50.0513C8.23633 49.7518 8.27739 49.4701 8.36017 49.2064C8.44245 48.9431 8.5658 48.7143 8.7307 48.5207C8.89576 48.3269 9.10059 48.1745 9.34534 48.0632C9.5901 47.9524 9.87786 47.8966 10.2078 47.8966C10.4391 47.8966 10.66 47.9266 10.8686 47.9862C11.0771 48.0453 11.263 48.1344 11.4249 48.2532C11.5874 48.3718 11.72 48.5218 11.8231 48.7028C11.9261 48.884 11.9881 49.0982 12.0089 49.346H11.1274Z" fill="#F2F2F2"/>
<path d="M12.689 46.4786H13.5704V48.5325H13.5857C13.6938 48.3511 13.8551 48.2004 14.0692 48.0793C14.2826 47.9581 14.5212 47.8966 14.7838 47.8966C15.2217 47.8966 15.5671 48.0105 15.8198 48.238C16.072 48.4654 16.1983 48.8062 16.1983 49.2606V52.0121H15.3175V49.4931C15.3071 49.1783 15.2402 48.9495 15.1162 48.8075C14.993 48.6654 14.7991 48.594 14.5366 48.594C14.3868 48.594 14.2531 48.6216 14.1348 48.6752C14.0158 48.73 13.9158 48.805 13.8329 48.9002C13.7508 48.9962 13.6863 49.1088 13.6397 49.2374C13.5936 49.367 13.5704 49.5036 13.5704 49.648V52.0121H12.689V46.4786Z" fill="#F2F2F2"/>
<path d="M17.1104 48.005H17.9918V52.0116H17.1104V48.005ZM17.1104 46.4786H17.9918V47.3156H17.1104V46.4786Z" fill="#F2F2F2"/>
<path d="M18.5098 48.0053H19.1747V46.8042H20.0564V48.0053H20.8524V48.664H20.0564V50.8028C20.0564 50.8962 20.0599 50.9763 20.0674 51.0433C20.0753 51.1108 20.0937 51.1675 20.1219 51.2137C20.1502 51.2604 20.1925 51.2947 20.2495 51.3188C20.306 51.342 20.3832 51.3533 20.4814 51.3533C20.5428 51.3533 20.6046 51.352 20.6666 51.3495C20.7286 51.3471 20.7906 51.3378 20.8524 51.3225V52.0044C20.7544 52.0144 20.6593 52.0248 20.566 52.0352C20.4735 52.0456 20.3784 52.0507 20.2802 52.0507C20.0482 52.0507 19.8613 52.029 19.7196 51.9854C19.5777 51.9412 19.4674 51.8766 19.387 51.7911C19.3073 51.7056 19.2533 51.5986 19.225 51.4694C19.1968 51.3409 19.1798 51.1927 19.1747 51.0278V48.664H18.5098V48.0053Z" fill="#F2F2F2"/>
<path d="M24.1916 49.656C24.1812 49.5164 24.1518 49.3823 24.1026 49.2532C24.0536 49.1241 23.9868 49.0121 23.9014 48.9156C23.8168 48.8209 23.7138 48.7428 23.5929 48.6838C23.4715 48.624 23.3359 48.5946 23.1868 48.5946C23.0323 48.5946 22.8917 48.6216 22.7654 48.6758C22.639 48.7298 22.5311 48.8048 22.4408 48.9002C22.3508 48.9962 22.2784 49.1086 22.2243 49.2371C22.1704 49.367 22.1402 49.5066 22.1354 49.656H24.1916ZM22.1354 50.2378C22.1354 50.3921 22.1574 50.5421 22.2011 50.6867C22.2446 50.8319 22.3102 50.9578 22.398 51.0667C22.4856 51.175 22.5966 51.2618 22.7304 51.3257C22.8648 51.3908 23.0243 51.4229 23.2095 51.4229C23.4672 51.4229 23.6751 51.3675 23.8321 51.2567C23.9892 51.1454 24.1064 50.9788 24.1836 50.7569H25.0192C24.9726 50.9733 24.8927 51.1669 24.7793 51.3379C24.6658 51.5083 24.529 51.6516 24.3695 51.7678C24.2094 51.884 24.0303 51.972 23.8321 52.0316C23.6341 52.0906 23.4267 52.1202 23.2095 52.1202C22.8954 52.1202 22.6169 52.0691 22.3753 51.9652C22.1329 51.8625 21.9281 51.7174 21.7606 51.5317C21.5931 51.3454 21.4668 51.1233 21.3815 50.8656C21.2969 50.6067 21.2539 50.3226 21.2539 50.0126C21.2539 49.7279 21.2994 49.4579 21.3894 49.2022C21.4797 48.9469 21.6085 48.7225 21.7759 48.5287C21.9434 48.3344 22.1458 48.1813 22.3826 48.0676C22.62 47.9537 22.8875 47.8966 23.1868 47.8966C23.5008 47.8966 23.7831 47.9623 24.0333 48.0946C24.283 48.2262 24.4904 48.4008 24.6555 48.6174C24.8204 48.8344 24.94 49.0834 25.0148 49.3657C25.0896 49.6467 25.1088 49.9376 25.0731 50.2378H22.1354Z" fill="#F2F2F2"/>
<path d="M28.4048 49.346C28.3686 49.0982 28.2693 48.9112 28.1073 48.7845C27.9448 48.6572 27.7398 48.5944 27.4926 48.5944C27.3792 48.5944 27.2583 48.6135 27.1296 48.6523C27.0007 48.6911 26.8824 48.7636 26.7738 48.8694C26.6657 48.9758 26.5756 49.1228 26.5032 49.3115C26.4308 49.4998 26.3953 49.7463 26.3953 50.0513C26.3953 50.2168 26.4143 50.3821 26.4529 50.547C26.4916 50.7131 26.5535 50.86 26.6388 50.9892C26.7235 51.1184 26.8332 51.2229 26.9669 51.3028C27.1007 51.3828 27.2633 51.4227 27.454 51.4227C27.7117 51.4227 27.9245 51.3428 28.092 51.1828C28.2595 51.0224 28.3637 50.7979 28.4048 50.5089H29.2864C29.2035 51.0304 29.0066 51.4295 28.695 51.7056C28.3827 51.9824 27.9693 52.1207 27.454 52.1207C27.1393 52.1207 26.8627 52.0672 26.6229 51.9621C26.3836 51.8557 26.1812 51.7112 26.0162 51.528C25.8511 51.3441 25.726 51.1264 25.6414 50.8729C25.556 50.6195 25.5137 50.3459 25.5137 50.0513C25.5137 49.7518 25.5549 49.4701 25.6377 49.2064C25.7198 48.9431 25.8431 48.7143 26.0089 48.5207C26.1731 48.3269 26.3781 48.1745 26.6229 48.0632C26.8676 47.9524 27.1552 47.8966 27.4853 47.8966C27.7166 47.8966 27.9373 47.9266 28.1459 47.9862C28.3545 48.0453 28.5405 48.1344 28.7023 48.2532C28.8649 48.3718 28.9973 48.5218 29.1004 48.7028C29.2035 48.884 29.2655 49.0982 29.2864 49.346H28.4048Z" fill="#F2F2F2"/>
<path d="M29.5645 48.0053H30.2294V46.8042H31.1104V48.0053H31.9065V48.664H31.1104V50.8028C31.1104 50.8962 31.1146 50.9763 31.1219 51.0433C31.13 51.1108 31.1477 51.1675 31.176 51.2137C31.2048 51.2604 31.247 51.2947 31.3035 51.3188C31.3607 51.342 31.4379 51.3533 31.5355 51.3533C31.5975 51.3533 31.6593 51.352 31.7213 51.3495C31.7833 51.3471 31.8451 51.3378 31.9065 51.3225V52.0044C31.8089 52.0144 31.7133 52.0248 31.6207 52.0352C31.528 52.0456 31.4324 52.0507 31.3349 52.0507C31.1029 52.0507 30.9158 52.029 30.7741 51.9854C30.6324 51.9412 30.5214 51.8766 30.4417 51.7911C30.362 51.7056 30.308 51.5986 30.2797 51.4694C30.2508 51.3409 30.2343 51.1927 30.2294 51.0278V48.664H29.5645V48.0053Z" fill="#F2F2F2"/>
<path d="M33.1666 50.7255C33.1924 50.9839 33.29 51.1646 33.4604 51.268C33.6303 51.3718 33.834 51.4229 34.0708 51.4229C34.1536 51.4229 34.2474 51.4167 34.3529 51.4038C34.4586 51.391 34.5579 51.3662 34.6511 51.3299C34.7437 51.2937 34.8198 51.2408 34.8788 51.1713C34.9382 51.1018 34.9651 51.0096 34.9602 50.8958C34.9547 50.7821 34.9137 50.6898 34.8364 50.6173C34.7591 50.544 34.6597 50.4869 34.5389 50.4427C34.4173 50.3989 34.28 50.3615 34.1253 50.3301C33.9702 50.2993 33.8131 50.2655 33.6537 50.2292C33.4886 50.1936 33.3304 50.1493 33.1783 50.0976C33.0261 50.0466 32.8894 49.9765 32.7685 49.8885C32.6471 49.8006 32.5507 49.6887 32.4783 49.5515C32.4066 49.4143 32.3704 49.2453 32.3704 49.0435C32.3704 48.8265 32.4231 48.6444 32.5286 48.4975C32.6341 48.3505 32.7685 48.2317 32.9311 48.1414C33.0929 48.0503 33.2733 47.987 33.4721 47.9507C33.6703 47.9151 33.8598 47.8966 34.0401 47.8966C34.2463 47.8966 34.4431 47.9187 34.6314 47.9625C34.8198 48.0067 34.9898 48.078 35.1419 48.1758C35.2933 48.2742 35.4197 48.4021 35.5203 48.559C35.621 48.717 35.6841 48.907 35.7099 49.1289H34.7897C34.7486 48.9174 34.6523 48.7754 34.5003 48.7028C34.348 48.6302 34.1739 48.5939 33.9781 48.5939C33.9161 48.5939 33.8426 48.5995 33.7579 48.61C33.6727 48.6205 33.593 48.6402 33.5182 48.6678C33.4432 48.6961 33.3801 48.7379 33.3291 48.792C33.277 48.8461 33.2518 48.9174 33.2518 49.0048C33.2518 49.1136 33.2893 49.201 33.3641 49.2685C33.439 49.3356 33.5372 49.3911 33.6586 49.4353C33.78 49.4789 33.9187 49.5165 34.0733 49.5473C34.2284 49.5785 34.3886 49.6117 34.5542 49.648C34.7143 49.6843 34.8719 49.728 35.0271 49.7803C35.1823 49.8319 35.3204 49.9015 35.4418 49.9894C35.5632 50.0774 35.6614 50.188 35.7362 50.3228C35.8117 50.4573 35.8492 50.6222 35.8492 50.8184C35.8492 51.0564 35.7945 51.2574 35.6865 51.4229C35.578 51.5883 35.4369 51.7231 35.2639 51.8262C35.0909 51.9295 34.8982 52.0047 34.6868 52.0508C34.4751 52.0975 34.2659 52.1202 34.0591 52.1202C33.8064 52.1202 33.5727 52.0919 33.358 52.0355C33.1439 51.9788 32.9581 51.8915 32.8003 51.7759C32.6427 51.6596 32.5189 51.5145 32.4286 51.3417C32.3384 51.1689 32.29 50.9635 32.2852 50.7255H33.1666Z" fill="#F2F2F2"/>
<path d="M39.6755 48.9974H41.2607C41.5697 48.9974 41.8041 48.9242 41.9637 48.7766C42.1232 48.629 42.2035 48.4082 42.2035 48.1135C42.2035 47.9383 42.1777 47.7951 42.1263 47.6837C42.0747 47.5724 42.0036 47.4863 41.9133 47.4241C41.8231 47.3621 41.72 47.321 41.6041 47.3C41.4883 47.2796 41.3686 47.2692 41.2446 47.2692H39.6755V48.9974ZM38.7095 46.4784H41.3453C41.9533 46.4784 42.4097 46.6106 42.7133 46.8738C43.0175 47.1369 43.1696 47.5042 43.1696 47.9746C43.1696 48.2378 43.1309 48.4562 43.0537 48.629C42.9764 48.8023 42.8862 48.9419 42.7831 49.0477C42.6801 49.1536 42.5783 49.2297 42.4777 49.2764C42.377 49.3227 42.3042 49.3541 42.2574 49.37V49.3848C42.3397 49.3952 42.4293 49.4211 42.5242 49.4623C42.62 49.5041 42.7083 49.5698 42.7912 49.6596C42.8734 49.7501 42.9414 49.8676 42.9954 50.0127C43.0499 50.1572 43.077 50.3386 43.077 50.555C43.077 50.8803 43.1016 51.1761 43.1506 51.4425C43.1991 51.7087 43.2752 51.8987 43.3788 52.012H42.3428C42.2704 51.8932 42.228 51.7617 42.2152 51.6171C42.2022 51.4726 42.1961 51.333 42.1961 51.1982C42.1961 50.9455 42.1802 50.7272 42.1495 50.5433C42.1182 50.3601 42.0618 50.2076 41.9796 50.0858C41.8968 49.9654 41.7845 49.876 41.6428 49.8189C41.5011 49.7616 41.3195 49.7335 41.0981 49.7335H39.6755V52.012H38.7095V46.4784Z" fill="#F2F2F2"/>
<path d="M46.7334 49.656C46.723 49.5164 46.6935 49.3823 46.6445 49.2532C46.5953 49.1241 46.5286 49.0121 46.4439 48.9156C46.3587 48.8209 46.2556 48.7428 46.1347 48.6838C46.0133 48.624 45.8782 48.5946 45.7286 48.5946C45.5741 48.5946 45.4342 48.6216 45.3071 48.6758C45.1808 48.7298 45.0729 48.8048 44.9827 48.9002C44.8926 48.9962 44.8202 49.1086 44.7661 49.2371C44.7121 49.367 44.6821 49.5066 44.6772 49.656H46.7334ZM44.6772 50.2378C44.6772 50.3921 44.6993 50.5421 44.7428 50.6867C44.7869 50.8319 44.8527 50.9578 44.9403 51.0667C45.0281 51.175 45.1385 51.2618 45.2729 51.3257C45.4066 51.3908 45.5666 51.4229 45.752 51.4229C46.0096 51.4229 46.217 51.3675 46.3739 51.2567C46.531 51.1454 46.6482 50.9788 46.7255 50.7569H47.5608C47.5143 50.9733 47.4346 51.1669 47.3211 51.3379C47.2075 51.5083 47.0713 51.6516 46.9113 51.7678C46.7518 51.884 46.5721 51.972 46.3739 52.0316C46.1758 52.0906 45.9678 52.1202 45.752 52.1202C45.4373 52.1202 45.1594 52.0691 44.9171 51.9652C44.6748 51.8625 44.4698 51.7174 44.3024 51.5317C44.135 51.3454 44.0085 51.1233 43.9233 50.8656C43.8386 50.6067 43.7964 50.3226 43.7964 50.0126C43.7964 49.7279 43.841 49.4579 43.9313 49.2022C44.0215 48.9469 44.1502 48.7225 44.3177 48.5287C44.4852 48.3344 44.6876 48.1813 44.925 48.0676C45.1618 47.9537 45.4298 47.8966 45.7286 47.8966C46.0427 47.8966 46.3249 47.9623 46.5752 48.0946C46.8248 48.2262 47.0327 48.4008 47.1971 48.6174C47.3622 48.8344 47.4818 49.0834 47.5566 49.3657C47.6314 49.6467 47.6511 49.9376 47.6149 50.2378H44.6772Z" fill="#F2F2F2"/>
<path d="M49.9882 51.3145C50.1844 51.3145 50.35 51.2745 50.4868 51.1939C50.623 51.1141 50.734 51.0083 50.8194 50.8767C50.9046 50.745 50.9659 50.595 51.0052 50.4271C51.0438 50.2592 51.0628 50.0901 51.0628 49.9197C51.0628 49.7487 51.0427 49.5839 51.0015 49.4235C50.9597 49.2635 50.8966 49.1215 50.8114 48.9973C50.7267 48.873 50.6157 48.7752 50.4795 48.7027C50.3427 48.6307 50.1789 48.5944 49.9882 48.5944C49.7925 48.5944 49.6274 48.6356 49.4937 48.7181C49.3594 48.8011 49.2513 48.908 49.1692 49.0403C49.0864 49.1713 49.0269 49.3213 48.9913 49.4899C48.9551 49.6578 48.9366 49.8237 48.9366 49.9892C48.9366 50.1547 48.9576 50.3164 48.9993 50.4738C49.0404 50.6313 49.103 50.772 49.1882 50.8963C49.2734 51.0198 49.3815 51.1214 49.5127 51.1982C49.6446 51.2758 49.8029 51.3145 49.9882 51.3145ZM51.9443 51.8028C51.9443 52.4073 51.775 52.858 51.4377 53.1551C51.1003 53.4521 50.6144 53.601 49.9801 53.601C49.7796 53.601 49.5771 53.5801 49.3734 53.5388C49.1704 53.4976 48.9845 53.4275 48.817 53.3297C48.6497 53.2314 48.5091 53.1022 48.3957 52.9416C48.2827 52.7819 48.2154 52.5856 48.1951 52.3531H49.0765C49.1017 52.4768 49.1459 52.5777 49.2072 52.6551C49.2692 52.7326 49.3427 52.7936 49.4281 52.8378C49.5127 52.8814 49.6071 52.9097 49.7097 52.9226C49.8132 52.9356 49.9213 52.9416 50.0348 52.9416C50.3906 52.9416 50.6506 52.8544 50.8156 52.6785C50.9807 52.5026 51.0628 52.2493 51.0628 51.9196V51.307H51.0469C50.9242 51.5291 50.7549 51.7019 50.5408 51.8261C50.3268 51.9497 50.0961 52.0119 49.8494 52.0119C49.5292 52.0119 49.2575 51.9566 49.0337 51.8458C48.8097 51.7345 48.6239 51.5814 48.4773 51.3882C48.33 51.1939 48.2233 50.9714 48.1558 50.718C48.0896 50.4645 48.0552 50.1934 48.0552 49.9038C48.0552 49.6357 48.0969 49.3797 48.1798 49.1368C48.262 48.894 48.3803 48.6805 48.5349 48.4973C48.6895 48.3139 48.879 48.1683 49.103 48.0595C49.3275 47.9513 49.5815 47.8964 49.8649 47.8964C50.1169 47.8964 50.3488 47.95 50.5605 48.0557C50.7715 48.1621 50.9341 48.3281 51.0469 48.5557H51.0628V48.0053H51.9443V51.8028Z" fill="#F2F2F2"/>
<path d="M52.8174 48.005H53.699V52.0116H52.8174V48.005ZM52.8174 46.4786H53.699V47.3156H52.8174V46.4786Z" fill="#F2F2F2"/>
<path d="M55.2833 50.7255C55.3091 50.9839 55.4072 51.1646 55.5771 51.268C55.747 51.3718 55.9507 51.4229 56.1875 51.4229C56.2703 51.4229 56.3641 51.4167 56.4702 51.4038C56.5757 51.391 56.6746 51.3662 56.7677 51.3299C56.8604 51.2937 56.9365 51.2408 56.9959 51.1713C57.0555 51.1018 57.082 51.0096 57.0769 50.8958C57.0721 50.7821 57.0304 50.6898 56.9537 50.6173C56.8758 50.544 56.7763 50.4869 56.6556 50.4427C56.5347 50.3989 56.3967 50.3615 56.242 50.3301C56.0875 50.2993 55.9304 50.2655 55.7704 50.2292C55.6053 50.1936 55.4471 50.1493 55.295 50.0976C55.1428 50.0466 55.0061 49.9765 54.8852 49.8885C54.7643 49.8006 54.6674 49.6887 54.5956 49.5515C54.5233 49.4143 54.4871 49.2453 54.4871 49.0435C54.4871 48.8265 54.5398 48.6444 54.646 48.4975C54.7508 48.3505 54.8852 48.2317 55.0478 48.1414C55.2096 48.0503 55.3901 47.987 55.5888 47.9507C55.7869 47.9151 55.9765 47.8966 56.1568 47.8966C56.363 47.8966 56.5598 47.9187 56.7481 47.9625C56.9365 48.0067 57.1058 48.078 57.2585 48.1758C57.4106 48.2742 57.5364 48.4021 57.637 48.559C57.7377 48.717 57.8008 48.907 57.8266 49.1289H56.9065C56.8653 48.9174 56.769 48.7754 56.617 48.7028C56.4647 48.6302 56.2912 48.5939 56.0948 48.5939C56.033 48.5939 55.9593 48.5995 55.8746 48.61C55.7894 48.6205 55.7097 48.6402 55.6349 48.6678C55.5605 48.6961 55.4967 48.7379 55.4459 48.792C55.3937 48.8461 55.3685 48.9174 55.3685 49.0048C55.3685 49.1136 55.406 49.201 55.4808 49.2685C55.5557 49.3356 55.6539 49.3911 55.7759 49.4353C55.8967 49.4789 56.0354 49.5165 56.1906 49.5473C56.3451 49.5785 56.5053 49.6117 56.6708 49.648C56.8315 49.6843 56.9886 49.728 57.1438 49.7803C57.299 49.8319 57.4371 49.9015 57.5591 49.9894C57.68 50.0774 57.7781 50.188 57.8529 50.3228C57.9284 50.4573 57.9659 50.6222 57.9659 50.8184C57.9659 51.0564 57.9118 51.2574 57.8032 51.4229C57.6947 51.5883 57.5536 51.7231 57.3806 51.8262C57.2076 51.9295 57.0156 52.0047 56.8039 52.0508C56.5918 52.0975 56.3826 52.1202 56.1758 52.1202C55.9231 52.1202 55.6894 52.0919 55.4753 52.0355C55.2606 51.9788 55.0748 51.8915 54.9177 51.7759C54.7594 51.6596 54.6356 51.5145 54.546 51.3417C54.4553 51.1689 54.4074 50.9635 54.4019 50.7255H55.2833Z" fill="#F2F2F2"/>
<path d="M58.1899 48.0053H58.8549V46.8042H59.7357V48.0053H60.532V48.664H59.7357V50.8028C59.7357 50.8962 59.7394 50.9763 59.748 51.0433C59.7553 51.1108 59.7732 51.1675 59.8014 51.2137C59.8302 51.2604 59.8725 51.2947 59.929 51.3188C59.986 51.342 60.0634 51.3533 60.1614 51.3533C60.2228 51.3533 60.2848 51.352 60.3468 51.3495C60.4086 51.3471 60.4706 51.3378 60.532 51.3225V52.0044C60.4344 52.0144 60.3388 52.0248 60.2462 52.0352C60.1535 52.0456 60.0579 52.0507 59.9603 52.0507C59.7284 52.0507 59.5413 52.029 59.3996 51.9854C59.2579 51.9412 59.1475 51.8766 59.0677 51.7911C58.9873 51.7056 58.9334 51.5986 58.9046 51.4694C58.877 51.3409 58.8598 51.1927 58.8549 51.0278V48.664H58.1899V48.0053Z" fill="#F2F2F2"/>
<path d="M61.1274 48.0053H61.9544V48.7801H61.9703C61.9954 48.6719 62.0457 48.5661 62.1212 48.4628C62.1949 48.3595 62.2856 48.2654 62.3918 48.1798C62.4973 48.0944 62.6145 48.0261 62.7433 47.9745C62.8714 47.9228 63.0033 47.8971 63.1377 47.8971C63.2401 47.8971 63.3112 47.8995 63.3499 47.9044C63.3886 47.9093 63.4284 47.9148 63.4695 47.9197V48.7728C63.4083 48.7622 63.345 48.7531 63.2801 48.7451C63.2163 48.7376 63.153 48.734 63.0905 48.734C62.9413 48.734 62.8016 48.7635 62.6696 48.8232C62.5383 48.8821 62.4236 48.9701 62.3256 49.0863C62.2274 49.2027 62.1501 49.3458 62.0936 49.5162C62.0372 49.6872 62.0089 49.8833 62.0089 50.1054V52.0117H61.1274V48.0053Z" fill="#F2F2F2"/>
<path d="M66.2763 50.0048C66.1426 50.0927 65.977 50.1456 65.7813 50.164C65.5855 50.1819 65.39 50.2089 65.1936 50.2451C65.1011 50.2606 65.0108 50.2827 64.9232 50.3104C64.8354 50.3398 64.7581 50.3781 64.6919 50.4266C64.6244 50.4764 64.5716 50.541 64.533 50.621C64.4944 50.7009 64.4754 50.798 64.4754 50.9113C64.4754 51.0096 64.503 51.0921 64.5599 51.1596C64.6171 51.2266 64.6844 51.2795 64.7648 51.3184C64.8446 51.3571 64.9323 51.3841 65.0274 51.3996C65.1231 51.4155 65.2096 51.4229 65.2869 51.4229C65.3844 51.4229 65.4906 51.4107 65.6034 51.3841C65.7168 51.3583 65.8236 51.3147 65.9243 51.2525C66.0249 51.1903 66.1083 51.1117 66.1757 51.0164C66.2425 50.9204 66.2763 50.8029 66.2763 50.6633V50.0048ZM67.1578 51.1209C67.1578 51.2292 67.1719 51.3073 67.2001 51.3534C67.2277 51.3996 67.2835 51.4229 67.3658 51.4229H67.459C67.4945 51.4229 67.5358 51.418 67.583 51.4076V52.02C67.5517 52.0299 67.5117 52.0415 67.4627 52.055C67.4135 52.0674 67.3634 52.0791 67.3124 52.0901C67.2603 52.0999 67.2087 52.1074 67.1578 52.1129C67.1057 52.1178 67.0622 52.1202 67.026 52.1202C66.8457 52.1202 66.6958 52.084 66.5775 52.012C66.4592 51.9401 66.3818 51.8134 66.3456 51.6319C66.1708 51.803 65.9556 51.9266 65.7003 52.0047C65.4451 52.0815 65.1991 52.1202 64.9618 52.1202C64.7815 52.1202 64.609 52.0963 64.4441 52.047C64.279 51.9979 64.1336 51.9253 64.0073 51.83C63.8809 51.7341 63.7802 51.6129 63.7054 51.4653C63.6312 51.3184 63.5938 51.1467 63.5938 50.9505C63.5938 50.7022 63.6385 50.5011 63.7288 50.346C63.8195 50.1905 63.938 50.0693 64.0846 49.982C64.2311 49.894 64.3962 49.8301 64.5789 49.792C64.7623 49.7533 64.9464 49.7232 65.1317 49.7028C65.2918 49.6714 65.4438 49.6493 65.5881 49.6369C65.7323 49.6241 65.8598 49.6019 65.9708 49.5705C66.0812 49.5404 66.1697 49.4918 66.2334 49.4274C66.2977 49.3628 66.3303 49.2661 66.3303 49.1371C66.3303 49.0232 66.3034 48.9298 66.2493 48.8579C66.1948 48.7859 66.1279 48.73 66.0481 48.6911C65.9684 48.6524 65.8795 48.6266 65.7813 48.6136C65.6837 48.6008 65.5906 48.5939 65.5028 48.5939C65.2562 48.5939 65.0519 48.6463 64.8925 48.749C64.733 48.8528 64.6422 49.0134 64.6213 49.2298H63.7405C63.7557 48.9716 63.8184 48.7576 63.9257 48.5866C64.0342 48.4163 64.1722 48.2791 64.3397 48.1758C64.5072 48.0724 64.6968 48.0005 64.9078 47.9594C65.1194 47.9175 65.3359 47.8966 65.5575 47.8966C65.7524 47.8966 65.9463 47.9175 66.137 47.9594C66.3279 48.0005 66.499 48.0669 66.6512 48.1605C66.8033 48.2532 66.9253 48.3731 67.0185 48.5209C67.1105 48.6678 67.1578 48.8473 67.1578 49.0595V51.1209Z" fill="#F2F2F2"/>
<path d="M67.6675 48.0053H68.3319V46.8042H69.2134V48.0053H70.0097V48.664H69.2134V50.8028C69.2134 50.8962 69.217 50.9763 69.2251 51.0433C69.2331 51.1108 69.2507 51.1675 69.279 51.2137C69.3079 51.2604 69.3502 51.2947 69.4066 51.3188C69.4637 51.342 69.5409 51.3533 69.6385 51.3533C69.7005 51.3533 69.7623 51.352 69.8237 51.3495C69.8863 51.3471 69.9483 51.3378 70.0097 51.3225V52.0044C69.9121 52.0144 69.8164 52.0248 69.7237 52.0352C69.6312 52.0456 69.5354 52.0507 69.4372 52.0507C69.2059 52.0507 69.019 52.029 68.8773 51.9854C68.7354 51.9412 68.6244 51.8766 68.5447 51.7911C68.4644 51.7056 68.411 51.5986 68.3821 51.4694C68.354 51.3409 68.3375 51.1927 68.3319 51.0278V48.664H67.6675V48.0053Z" fill="#F2F2F2"/>
<path d="M70.6279 48.005H71.5094V52.0116H70.6279V48.005ZM70.6279 46.4786H71.5094V47.3156H70.6279V46.4786Z" fill="#F2F2F2"/>
<path d="M74.2617 51.4231C74.4568 51.4231 74.6274 51.3819 74.7715 51.2988C74.9163 51.2165 75.0346 51.1076 75.1273 50.9735C75.22 50.8394 75.288 50.6881 75.3316 50.5204C75.3758 50.3525 75.3985 50.1808 75.3985 50.0049C75.3985 49.8345 75.3758 49.6637 75.3316 49.4933C75.288 49.323 75.22 49.1716 75.1273 49.04C75.0346 48.9084 74.9163 48.8008 74.7715 48.7185C74.6274 48.636 74.4568 48.5942 74.2617 48.5942C74.0655 48.5942 73.8956 48.636 73.7514 48.7185C73.6067 48.8008 73.4882 48.9084 73.3962 49.04C73.303 49.1716 73.2342 49.323 73.1907 49.4933C73.1472 49.6637 73.1251 49.8345 73.1251 50.0049C73.1251 50.1808 73.1472 50.3525 73.1907 50.5204C73.2342 50.6881 73.303 50.8394 73.3962 50.9735C73.4882 51.1076 73.6067 51.2165 73.7514 51.2988C73.8956 51.3819 74.0655 51.4231 74.2617 51.4231ZM74.2617 52.1205C73.9415 52.1205 73.6568 52.0676 73.4072 51.9618C73.1576 51.8561 72.9459 51.7096 72.7729 51.524C72.6012 51.3377 72.4693 51.1162 72.3792 50.8573C72.2889 50.599 72.2441 50.3149 72.2441 50.0049C72.2441 49.7 72.2889 49.4188 72.3792 49.1599C72.4693 48.9017 72.6012 48.6796 72.7729 48.4933C72.9459 48.3076 73.1576 48.1619 73.4072 48.0561C73.6568 47.9497 73.9415 47.8968 74.2617 47.8968C74.5813 47.8968 74.8653 47.9497 75.1156 48.0561C75.3652 48.1619 75.5769 48.3076 75.7499 48.4933C75.9223 48.6796 76.0536 48.9017 76.1438 49.1599C76.2339 49.4188 76.2793 49.7 76.2793 50.0049C76.2793 50.3149 76.2339 50.599 76.1438 50.8573C76.0536 51.1162 75.9223 51.3377 75.7499 51.524C75.5769 51.7096 75.3652 51.8561 75.1156 51.9618C74.8653 52.0676 74.5813 52.1205 74.2617 52.1205Z" fill="#F2F2F2"/>
<path d="M76.9746 48.0053H77.8095V48.5944L77.8247 48.6097C77.9585 48.3878 78.1339 48.2137 78.3505 48.0869C78.567 47.9597 78.8068 47.8971 79.0695 47.8971C79.5073 47.8971 79.8527 48.0108 80.1056 48.2376C80.3576 48.4652 80.4839 48.8065 80.4839 49.2611V52.0117H79.6025V49.4934C79.5921 49.1786 79.5258 48.9492 79.4018 48.8078C79.278 48.6651 79.0847 48.5944 78.8223 48.5944C78.6726 48.5944 78.5389 48.6215 78.4204 48.6755C78.3014 48.7297 78.2008 48.8053 78.1187 48.9C78.0357 48.9965 77.972 49.1084 77.9254 49.2376C77.8788 49.3668 77.8561 49.5038 77.8561 49.6485V52.0117H76.9746V48.0053Z" fill="#F2F2F2"/>
<path d="M84.5736 51.2214H86.2825C86.5758 51.2214 86.804 51.1453 86.9666 50.9933C87.1291 50.8408 87.2101 50.6249 87.2101 50.3457C87.2101 50.072 87.1291 49.8618 86.9666 49.7142C86.804 49.5671 86.5758 49.4934 86.2825 49.4934H84.5736V51.2214ZM84.5736 48.796H86.1507C86.3831 48.796 86.5758 48.7297 86.7309 48.598C86.8856 48.4664 86.9622 48.2763 86.9622 48.0285C86.9622 47.7493 86.8929 47.5531 86.7537 47.4393C86.6151 47.3263 86.4138 47.269 86.1507 47.269H84.5736V48.796ZM83.6074 46.4782H86.29C86.785 46.4782 87.1812 46.5926 87.4806 46.8201C87.7793 47.0464 87.9284 47.3909 87.9284 47.8502C87.9284 48.1294 87.8602 48.3679 87.7241 48.5673C87.5879 48.7659 87.3928 48.9197 87.1408 49.0286V49.0438C87.4806 49.1158 87.7382 49.2775 87.913 49.5279C88.0884 49.7788 88.1762 50.093 88.1762 50.47C88.1762 50.6864 88.1376 50.8893 88.0602 51.0782C87.9829 51.267 87.8622 51.4294 87.6971 51.5659C87.5321 51.7031 87.3204 51.8119 87.0628 51.8918C86.8053 51.9717 86.4992 52.0117 86.1432 52.0117H83.6074V46.4782Z" fill="#F2F2F2"/>
<path d="M90.7197 51.4231C90.9155 51.4231 91.0854 51.3819 91.2302 51.2988C91.3743 51.2165 91.4926 51.1076 91.5853 50.9735C91.678 50.8394 91.746 50.6881 91.7901 50.5204C91.8338 50.3525 91.8565 50.1808 91.8565 50.0049C91.8565 49.8345 91.8338 49.6637 91.7901 49.4933C91.746 49.323 91.678 49.1716 91.5853 49.04C91.4926 48.9084 91.3743 48.8008 91.2302 48.7185C91.0854 48.636 90.9155 48.5942 90.7197 48.5942C90.5235 48.5942 90.3536 48.636 90.2095 48.7185C90.0647 48.8008 89.9462 48.9084 89.8542 49.04C89.761 49.1716 89.6922 49.323 89.6487 49.4933C89.6052 49.6637 89.5831 49.8345 89.5831 50.0049C89.5831 50.1808 89.6052 50.3525 89.6487 50.5204C89.6922 50.6881 89.761 50.8394 89.8542 50.9735C89.9462 51.1076 90.0647 51.2165 90.2095 51.2988C90.3536 51.3819 90.5235 51.4231 90.7197 51.4231ZM90.7197 52.1205C90.4002 52.1205 90.115 52.0676 89.8652 51.9618C89.6156 51.8561 89.4039 51.7096 89.2316 51.524C89.0592 51.3377 88.9273 51.1162 88.8372 50.8573C88.7469 50.599 88.7021 50.3149 88.7021 50.0049C88.7021 49.7 88.7469 49.4188 88.8372 49.1599C88.9273 48.9017 89.0592 48.6796 89.2316 48.4933C89.4039 48.3076 89.6156 48.1619 89.8652 48.0561C90.115 47.9497 90.4002 47.8968 90.7197 47.8968C91.0393 47.8968 91.3233 47.9497 91.5736 48.0561C91.8239 48.1619 92.0349 48.3076 92.2079 48.4933C92.3803 48.6796 92.5116 48.9017 92.6018 49.1599C92.6919 49.4188 92.7373 49.7 92.7373 50.0049C92.7373 50.3149 92.6919 50.599 92.6018 50.8573C92.5116 51.1162 92.3803 51.3377 92.2079 51.524C92.0349 51.7096 91.8239 51.8561 91.5736 51.9618C91.3233 52.0676 91.0393 52.1205 90.7197 52.1205Z" fill="#F2F2F2"/>
<path d="M95.8988 50.0048C95.7645 50.0927 95.6 50.1456 95.4038 50.164C95.2081 50.1819 95.0125 50.2089 94.8168 50.2451C94.7241 50.2606 94.634 50.2827 94.5462 50.3104C94.4579 50.3398 94.3811 50.3781 94.3143 50.4266C94.2474 50.4764 94.1947 50.541 94.156 50.621C94.1168 50.7009 94.0978 50.798 94.0978 50.9113C94.0978 51.0096 94.126 51.0921 94.1825 51.1596C94.239 51.2266 94.3076 51.2795 94.3873 51.3184C94.4677 51.3571 94.5555 51.3841 94.6506 51.3996C94.7455 51.4155 94.832 51.4229 94.9099 51.4229C95.0075 51.4229 95.113 51.4107 95.2266 51.3841C95.3394 51.3583 95.4467 51.3147 95.5473 51.2525C95.6479 51.1903 95.7313 51.1117 95.7982 51.0164C95.8651 50.9204 95.8988 50.8029 95.8988 50.6633V50.0048ZM96.7803 51.1209C96.7803 51.2292 96.7938 51.3073 96.8227 51.3534C96.8509 51.3996 96.9067 51.4229 96.9889 51.4229H97.0816C97.1171 51.4229 97.1588 51.418 97.2054 51.4076V52.02C97.1742 52.0299 97.1343 52.0415 97.0853 52.055C97.0361 52.0674 96.9864 52.0791 96.935 52.0901C96.8827 52.0999 96.8313 52.1074 96.7803 52.1129C96.7282 52.1178 96.6847 52.1202 96.6485 52.1202C96.4687 52.1202 96.3184 52.084 96.2001 52.012C96.0816 51.9401 96.0043 51.8134 95.9681 51.6319C95.7933 51.803 95.578 51.9266 95.3228 52.0047C95.0677 52.0815 94.8216 52.1202 94.5848 52.1202C94.4039 52.1202 94.2322 52.0963 94.0666 52.047C93.9022 51.9979 93.7561 51.9253 93.6303 51.83C93.5041 51.7341 93.4028 51.6129 93.3286 51.4653C93.2538 51.3184 93.2163 51.1467 93.2163 50.9505C93.2163 50.7022 93.2617 50.5011 93.3518 50.346C93.4421 50.1905 93.5604 50.0693 93.7078 49.982C93.8543 49.894 94.0194 49.8301 94.2015 49.792C94.3855 49.7533 94.5696 49.7232 94.7548 49.7028C94.9143 49.6714 95.0664 49.6493 95.2105 49.6369C95.3548 49.6241 95.4824 49.6019 95.5934 49.5705C95.7044 49.5404 95.7921 49.4918 95.8565 49.4274C95.9209 49.3628 95.9529 49.2661 95.9529 49.1371C95.9529 49.0232 95.9258 48.9298 95.8719 48.8579C95.8179 48.7859 95.751 48.73 95.6713 48.6911C95.591 48.6524 95.502 48.6266 95.4038 48.6136C95.3063 48.6008 95.2136 48.5939 95.126 48.5939C94.8788 48.5939 94.6744 48.6463 94.5149 48.749C94.3555 48.8528 94.2653 49.0134 94.2445 49.2298H93.3629C93.3789 48.9716 93.4408 48.7576 93.5489 48.5866C93.6568 48.4163 93.7948 48.2791 93.9623 48.1758C94.1304 48.0724 94.3193 48.0005 94.5303 47.9594C94.742 47.9175 94.9585 47.8966 95.1805 47.8966C95.3756 47.8966 95.5694 47.9175 95.7596 47.9594C95.9503 48.0005 96.1215 48.0669 96.2743 48.1605C96.4259 48.2532 96.5484 48.3731 96.6411 48.5209C96.7337 48.6678 96.7803 48.8473 96.7803 49.0595V51.1209Z" fill="#F2F2F2"/>
<path d="M97.6919 48.0053H98.5188V48.7801H98.5347C98.5599 48.6719 98.6109 48.5661 98.6857 48.4628C98.7598 48.3595 98.8501 48.2654 98.9561 48.1798C99.0616 48.0944 99.1787 48.0261 99.3076 47.9745C99.4365 47.9228 99.5678 47.8971 99.702 47.8971C99.8051 47.8971 99.8757 47.8995 99.9143 47.9044C99.9529 47.9093 99.9929 47.9148 100.034 47.9197V48.7728C99.9726 48.7622 99.9094 48.7531 99.8444 48.7451C99.7806 48.7376 99.7174 48.734 99.6554 48.734C99.5058 48.734 99.3659 48.7635 99.2341 48.8232C99.1028 48.8821 98.988 48.9701 98.8898 49.0863C98.7923 49.2027 98.7144 49.3458 98.6581 49.5162C98.6016 49.6872 98.5734 49.8833 98.5734 50.1054V52.0117H97.6919V48.0053Z" fill="#F2F2F2"/>
<path d="M100.924 50.0512C100.924 50.2216 100.946 50.3895 100.989 50.555C101.033 50.7203 101.1 50.8674 101.19 50.9964C101.281 51.1263 101.395 51.2289 101.535 51.307C101.673 51.3845 101.838 51.4232 102.029 51.4232C102.225 51.4232 102.393 51.3821 102.536 51.2991C102.677 51.2166 102.793 51.1077 102.883 50.9738C102.974 50.8391 103.041 50.6878 103.084 50.5205C103.128 50.3519 103.15 50.1804 103.15 50.0045C103.15 49.5605 103.051 49.2142 102.852 48.9664C102.654 48.718 102.385 48.5945 102.044 48.5945C101.838 48.5945 101.665 48.6368 101.523 48.7224C101.381 48.8078 101.265 48.9184 101.175 49.0556C101.084 49.1921 101.02 49.3477 100.981 49.5206C100.943 49.6934 100.924 49.8705 100.924 50.0512ZM104.001 52.0117H103.166V51.4694H103.15C103.031 51.7019 102.859 51.8692 102.632 51.9694C102.405 52.0702 102.166 52.1206 101.913 52.1206C101.598 52.1206 101.324 52.0653 101.09 51.954C100.855 51.8427 100.661 51.692 100.506 51.5008C100.351 51.3088 100.235 51.0838 100.158 50.8225C100.081 50.5617 100.042 50.2813 100.042 49.9817C100.042 49.6202 100.091 49.3071 100.189 49.0439C100.287 48.7801 100.417 48.5631 100.579 48.3927C100.742 48.2223 100.928 48.0969 101.136 48.017C101.345 47.937 101.557 47.8971 101.774 47.8971C101.898 47.8971 102.023 47.9086 102.153 47.9314C102.282 47.9548 102.405 47.9923 102.524 48.0447C102.642 48.0956 102.752 48.1621 102.852 48.242C102.953 48.3219 103.036 48.416 103.104 48.5243H103.119V46.4782H104.001V52.0117Z" fill="#F2F2F2"/>
</svg>
