<svg width="79" height="61" viewBox="0 0 79 61" fill="none" xmlns="http://www.w3.org/2000/svg">
<g clip-path="url(#clip0_1129_1884)">
<path d="M42.3901 54.2963H36.4715C35.8765 54.2963 35.3945 54.7795 35.3945 55.3767C35.3945 55.9722 35.8765 56.4564 36.4715 56.4564H42.3901C42.9863 56.4564 43.468 55.9722 43.468 55.3767C43.468 54.7795 42.9863 54.2963 42.3901 54.2963Z" fill="#F2F2F2"/>
<path d="M44.465 58.8194V60.9409H34.3606V56.7134H44.465V58.8602L43.4898 58.8577V57.7194H43.3752H35.3708V59.9542H43.4898V58.8144L44.465 58.8194ZM43.2612 57.9484C43.2612 58.1401 43.2612 59.5335 43.2612 59.7248C43.0433 59.7248 35.8178 59.7248 35.599 59.7248C35.599 59.5335 35.599 58.1401 35.599 57.9484C35.8178 57.9484 43.0433 57.9484 43.2612 57.9484Z" fill="#F2F2F2"/>
<path d="M45.9795 3.8176C45.7698 3.77822 45.5601 3.73948 45.3525 3.70397L44.9174 5.92216C45.1299 5.95336 45.3177 5.98392 45.4834 6.01318L45.9795 3.8176Z" fill="#F2F2F2"/>
<path d="M45.127 3.66654C44.4581 3.55615 43.8004 3.46664 43.1484 3.39584L42.8088 5.6803C43.5149 5.74206 44.1589 5.81651 44.6904 5.88989L45.127 3.66654Z" fill="#F2F2F2"/>
<path d="M39.5986 2.97093C39.9843 2.97093 40.3707 2.98018 40.758 2.99438L40.896 0.000875235H39.5986H38.3009L38.4387 2.99008C38.8105 2.97803 39.1959 2.97093 39.5986 2.97093Z" fill="#F2F2F2"/>
<path d="M39.7125 5.53183C40.3149 5.53441 40.9181 5.55485 41.5016 5.58691L41.6986 3.2691C41.0332 3.22585 40.3722 3.20325 39.7125 3.20067V5.53183Z" fill="#F2F2F2"/>
<path d="M46.0297 3.59412L46.6385 0.89735C46.3781 0.810198 44.7501 0.527008 44.7501 0.527008L44.2003 3.29608C44.8025 3.37914 45.4113 3.47813 46.0297 3.59412Z" fill="#F2F2F2"/>
<path d="M42.8961 8.20264L43.2043 5.94658C42.5384 5.88138 41.8008 5.82608 41.0383 5.79315L40.9104 8.20264H42.8961Z" fill="#F2F2F2"/>
<path d="M36.3879 5.68054L36.0464 3.38618C35.3371 3.463 34.6834 3.55833 34.0688 3.6627L34.5063 5.89014C35.0379 5.81676 35.6819 5.7423 36.3879 5.68054Z" fill="#F2F2F2"/>
<path d="M39.4839 3.20027C38.774 3.20242 38.1154 3.22523 37.4978 3.2631L37.6951 5.58716C38.2788 5.55509 38.882 5.53444 39.4839 5.53186V3.20027Z" fill="#F2F2F2"/>
<path d="M33.2173 3.81652L33.7132 6.01318C33.8789 5.98392 34.0674 5.95358 34.2799 5.92237L33.8439 3.70161C33.6305 3.73905 33.4225 3.77735 33.2173 3.81652Z" fill="#F2F2F2"/>
<path d="M35.7648 5.96961C34.9437 6.05461 34.2467 6.15209 33.7639 6.23666L34.2079 8.20264H36.0701L35.7648 5.96961Z" fill="#F2F2F2"/>
<path d="M43.4323 5.96961L43.1262 8.20264H44.9891L45.433 6.23666C44.9507 6.15209 44.2537 6.05461 43.4323 5.96961Z" fill="#F2F2F2"/>
<path d="M40.8095 5.7839C40.4089 5.76927 40.0034 5.76087 39.5986 5.76087C39.1937 5.76087 38.788 5.76927 38.387 5.78411L38.5153 8.20264H39.5986H40.6818L40.8095 5.7839Z" fill="#F2F2F2"/>
<path d="M34.9948 3.28696L34.4467 0.526929C34.4467 0.526929 32.8187 0.810118 32.5579 0.897271L33.1667 3.59253C33.7418 3.48386 34.3454 3.37885 34.9948 3.28696Z" fill="#F2F2F2"/>
<path d="M38.2862 8.20264L38.1587 5.79315C37.3966 5.82629 36.6588 5.88159 35.9921 5.94701L36.3005 8.20264H38.2862Z" fill="#F2F2F2"/>
<path d="M42.3901 8.43321H36.4715C35.8765 8.43321 35.3945 8.91653 35.3945 9.51325C35.3945 10.1093 35.8765 10.5927 36.4715 10.5927H42.3901C42.9863 10.5927 43.468 10.1093 43.468 9.51325C43.468 8.91653 42.9863 8.43321 42.3901 8.43321Z" fill="#F2F2F2"/>
<path d="M39.496 31.8804C39.3517 32.0248 38.0294 33.3504 38.0294 33.3504L36.5005 31.8178V34.7627C36.8367 35.0996 37.9061 36.1713 38.0294 36.295C38.1738 36.1504 39.496 34.8251 39.496 34.8251C39.496 34.8251 40.8499 36.1825 40.995 36.3275C41.1118 36.2109 42.0889 35.2305 42.4906 34.8274V31.883L40.995 33.3829C40.995 33.3829 39.6407 32.0254 39.496 31.8804Z" fill="#F2F2F2"/>
<path d="M40.995 49.726L42.4906 48.2259V51.1709C42.0889 51.574 41.1118 52.5539 40.995 52.6708C40.8499 52.5258 39.496 51.1684 39.496 51.1684C39.496 51.1684 38.1738 52.4934 38.0294 52.638C37.9061 52.5144 36.8367 51.4424 36.5005 51.1058V48.1608L38.0294 49.6932C38.0294 49.6932 39.3517 48.3682 39.496 48.2234C39.6407 48.3684 40.995 49.726 40.995 49.726Z" fill="#F2F2F2"/>
<path d="M40.995 13.771L42.4906 12.2709V15.2158C42.0889 15.6187 41.1118 16.5988 40.995 16.7157C40.8499 16.5709 39.496 15.2132 39.496 15.2132C39.496 15.2132 38.1738 16.5384 38.0294 16.683C37.9061 16.5593 36.8367 15.4874 36.5005 15.1504V12.206L38.0294 13.7383C38.0294 13.7383 39.3517 12.413 39.496 12.2686C39.6407 12.4134 40.995 13.771 40.995 13.771Z" fill="#F2F2F2"/>
<path d="M42.4906 10.8383V11.9471C42.0889 12.35 41.1118 13.3304 40.995 13.447C40.8499 13.3022 39.496 11.9446 39.496 11.9446C39.496 11.9446 38.1738 13.2699 38.0294 13.4145C37.9061 13.2908 36.8367 12.2189 36.5005 11.8822V10.8383H42.4906Z" fill="#F2F2F2"/>
<path d="M40.995 52.9948L42.4906 51.495V54.0499H36.5005V51.4294L38.0294 52.9625C38.0294 52.9625 39.3517 51.637 39.496 51.4925C39.6407 51.637 40.995 52.9948 40.995 52.9948Z" fill="#F2F2F2"/>
<path d="M25.5047 15.9103L23.7393 15.9094V15.1967L25.5047 15.1989V15.9103Z" fill="#F2F2F2"/>
<path d="M23.5151 16.6559L25.472 16.655H25.5047V17.3662L23.5151 17.3654V16.6559Z" fill="#F2F2F2"/>
<path d="M25.5047 20.2816L15.9399 20.281V19.5683L25.4721 19.5674H25.5047V20.2816Z" fill="#F2F2F2"/>
<path d="M25.5047 18.8223L22.9242 18.8216L23.3608 18.1244L23.3705 18.1091L25.5047 18.1113V18.8223Z" fill="#F2F2F2"/>
<path d="M17.7951 15.9094L15.9404 15.9103V15.1989L17.7623 15.1967H17.7951V15.9094Z" fill="#F2F2F2"/>
<path d="M18.0246 17.3654L15.9404 17.3662V16.655L18.0246 16.6559V17.3654Z" fill="#F2F2F2"/>
<path d="M17.2742 21.7504L15.9375 21.7512V21.0316L18.3111 21.0325L18.1743 21.094C18.1697 21.0964 17.6607 21.363 17.2837 21.7415L17.2742 21.7504Z" fill="#F2F2F2"/>
<path d="M16.6381 22.5332C16.3333 22.9337 16.1266 23.3479 15.9836 23.8717V22.5324L16.6381 22.5332Z" fill="#F2F2F2"/>
<path d="M18.6159 18.8188L15.9404 18.8226V18.1084L18.1513 18.1063L18.1693 18.106L18.6159 18.8188Z" fill="#F2F2F2"/>
<path d="M22.0518 16.5616L22.2952 16.8276L22.1183 18.3578L21.6536 18.4686V16.8939L22.0518 16.5616Z" fill="#F2F2F2"/>
<path d="M20.1904 18.0919C20.1904 17.626 20.1904 16.6563 20.1904 16.6563H21.3497C21.3497 16.6563 21.3497 17.626 21.3497 18.0919C21.3497 18.5575 21.1416 18.9417 20.77 19.193C20.3981 18.9417 20.1904 18.5575 20.1904 18.0919Z" fill="#F2F2F2"/>
<path d="M19.2559 16.8276L19.4993 16.5616L19.8974 16.8939V18.4686L19.4328 18.3578L19.2559 16.8276Z" fill="#F2F2F2"/>
<path d="M36.2389 20.1932C36.1827 20.1956 36.1331 20.2098 36.0872 20.2292C35.8251 20.3398 35.7381 20.6929 35.8603 20.9255C35.8828 20.9471 35.936 21.0235 36.0515 21.2167C36.252 21.5513 36.1825 21.8274 36.0953 22.0019C36.0953 22.0019 35.7252 21.7403 35.3661 21.8384C35.3661 21.8384 35.4859 21.7837 35.5292 21.5655C35.5733 21.3475 35.285 21.2513 35.0508 21.2604C34.759 21.2714 34.1824 21.4293 33.9647 22.0839C33.7473 22.7381 33.4702 23.439 32.3436 23.66C31.6631 23.7936 30.6649 23.9408 30.1673 24.0634C29.6388 24.1936 29.1472 24.3699 29.1148 24.6524C29.0821 24.9358 29.493 25.1624 29.906 25.2773C30.2926 25.3841 31.0326 25.4867 31.5381 25.4867C32.584 25.4867 33.2849 25.4049 33.8102 25.6886C34.0027 25.7975 34.2069 25.9746 34.3129 26.114C34.5959 26.4848 34.861 26.6119 35.0965 26.6595C35.3545 26.7112 35.5572 26.5433 35.4966 26.3296C35.4475 26.1577 35.3661 26.1084 35.3661 26.1084C35.8145 26.1577 36.0953 25.9446 36.0953 25.9446C36.1825 26.1194 36.219 26.3767 36.0515 26.6647C36.0105 26.7357 35.8839 26.916 35.8839 26.916C35.725 27.1902 35.775 27.5926 36.0588 27.7393C36.1013 27.7613 36.1486 27.7781 36.2018 27.7875C36.5169 27.8422 36.6803 27.695 36.6803 27.695C36.6326 28.089 36.3716 28.2607 36.0616 28.2844C36.0322 28.2868 36.0032 28.2896 35.9732 28.2891C34.9288 28.2775 34.5959 27.1392 34.5959 27.1392C34.232 26.3696 33.7799 26.1357 33.497 26.0376C33.2003 25.9347 32.8092 25.9068 31.8082 26.125C30.9521 26.3113 30.1748 26.3854 29.5233 26.347C27.6082 26.2341 26.7811 25.7975 26.3895 25.187C25.9978 24.576 25.9542 23.66 26.2154 23.1801C26.4956 22.6647 27.2583 22.4332 28.1719 22.6951C29.0862 22.9567 30.5155 23.2236 31.4731 23.2236C32.4305 23.2236 32.9992 23.0327 33.2791 22.5991C33.4586 22.3211 33.5449 21.8773 33.8012 21.4702C33.9789 21.1887 34.3129 20.9331 34.7461 20.7805C34.7461 20.7805 34.809 19.5851 35.9661 19.6805C36.0198 19.685 36.0704 19.6942 36.1189 19.7069C36.4746 19.8003 36.6876 20.0999 36.6876 20.3686C36.6876 20.3686 36.5614 20.179 36.2389 20.1932Z" fill="#F2F2F2"/>
<path d="M35.1603 23.9948C35.1603 24.4544 35.6012 24.6899 36.1735 24.6384C36.239 24.7202 36.2658 24.8233 36.2476 25.0094C36.2158 25.3348 35.8558 25.729 35.2032 25.729C34.4849 25.729 33.734 25.2405 33.734 23.9969C33.734 22.7536 34.4849 22.2604 35.2032 22.2604C35.8558 22.2604 36.2025 22.6565 36.2476 22.9804C36.2701 23.1437 36.239 23.2659 36.1817 23.3806C35.6336 23.3811 35.1603 23.6206 35.1603 23.9948Z" fill="#F2F2F2"/>
<path d="M25.581 23.7691C25.5133 24.3408 25.6623 24.8162 25.7604 25.0451C25.8583 25.2741 25.9534 25.7338 25.4395 25.9509C25.0228 26.1273 24.5486 26.2132 23.6803 26.1577C22.447 26.0785 21.1228 25.675 20.1223 25.2416C19.6658 25.0436 19.2277 24.8097 19.2277 24.4501C19.2277 23.9591 19.6315 23.8885 19.9698 23.7906C20.5646 23.6189 20.9931 23.3195 21.3626 22.9509C21.7242 22.5905 22.1787 22.2309 22.7664 22.2309C23.3538 22.2309 23.7616 22.2965 24.4147 22.5748C25.0462 22.8437 25.6554 23.1381 25.581 23.7691Z" fill="#F2F2F2"/>
<path d="M20.4271 26.7139C20.5363 26.4423 20.7311 26.223 21.1229 26.2887C21.5146 26.3539 21.7542 26.4193 22.0152 26.5504C22.193 26.6392 22.2527 26.7998 22.1872 27.0283C22.1219 27.2577 21.9268 28.0001 20.6771 29.1352C20.2269 29.5441 19.4682 30.0483 18.8492 30.084C18.205 30.1217 18.0004 29.7894 18.0004 29.4296C18.0004 29.4296 18.0004 29.0418 18.0004 28.8129C18.0004 28.5835 18.1622 28.2824 18.4249 28.2237C19.0064 28.0935 20.0711 27.6009 20.4271 26.7139Z" fill="#F2F2F2"/>
<path d="M26.5528 22.1592C26.5528 22.1592 26.1041 22.2901 25.7716 22.7327C25.7716 22.7327 24.9295 21.9847 23.3873 21.7603C21.9207 21.5965 21.6845 21.9494 20.8119 22.6884C20.1239 23.2707 19.5161 23.3882 19.4367 23.2453C19.2736 22.9509 19.8284 22.5582 20.0572 22.3292C20.2855 22.1003 20.0874 21.8756 19.7283 22.0719C19.3712 22.2673 18.5866 23.0404 18.45 23.7241C18.4497 23.7267 18.4488 23.7308 18.447 23.7364C18.4456 23.7447 18.4432 23.7527 18.4415 23.7613C18.4061 23.9821 18.3317 24.6965 18.9125 25.1969C19.1978 25.4428 19.4346 25.5567 19.7957 25.6995C20.084 25.8134 20.2203 26.2556 19.8938 26.6812C19.5672 27.1065 18.9613 27.5693 18.2267 27.7654C17.7833 27.8841 17.546 28.1962 17.546 28.6653C17.546 29.7996 17.546 33.1275 17.546 33.4765C17.546 33.8256 17.3804 34.2542 16.8797 34.2542C16.3791 34.2542 16.0336 34.3698 16.0336 33.9334C16.0336 33.4974 16.0336 27.1329 16.0336 26.3475C16.0336 23.0753 17.8779 21.7538 18.5044 21.4175C19.723 20.7631 21.6869 20.4358 23.8252 20.8894C25.1592 21.1724 26.0773 21.7118 26.5528 22.1592Z" fill="#F2F2F2"/>
<path d="M25.2471 27.7502C25.2471 27.7502 24.1632 27.7324 23.4842 27.129C23.259 26.9289 23.3865 26.6483 23.7455 26.6483C24.1046 26.6483 24.6799 26.7158 25.2481 26.5815L25.2471 27.7502Z" fill="#F2F2F2"/>
<path d="M25.0713 28.2327C25.0093 28.425 24.8762 28.697 24.7574 28.7427C24.7574 28.7427 24.4958 28.8173 24.1313 28.829C23.8936 28.8365 23.6893 28.8128 23.3213 28.5462C23.0717 28.3654 22.6923 27.9897 22.5704 27.8591C22.4279 27.7059 22.342 27.5647 22.4723 27.3353C22.599 27.1135 22.8168 27.0691 23.1103 27.2983C23.4044 27.5271 23.6966 27.7334 24.0394 27.8591C24.3562 27.9749 24.6083 28.0295 24.9028 28.0396C24.9927 28.0424 25.1035 28.1339 25.0713 28.2327Z" fill="#F2F2F2"/>
<path d="M24.4224 30.215C23.8348 30.3459 23.3525 30.0743 23.0623 29.9247C22.7797 29.7788 22.0707 29.2245 21.9174 29.0698C21.6804 28.8298 21.6562 28.5462 21.8195 28.35C21.9829 28.1535 22.2113 28.0803 22.4075 28.2114C22.6033 28.3424 22.9101 28.6882 23.1586 28.8533C23.4482 29.0452 23.8338 29.2219 24.1697 29.1825C24.1697 29.1825 24.4881 29.1604 24.6836 29.0949C24.8794 29.0293 24.9777 29.1352 24.9449 29.4296C24.912 29.7244 24.7165 30.1494 24.4224 30.215Z" fill="#F2F2F2"/>
<path d="M23.6803 31.393C23.2256 31.4257 22.7665 31.3276 22.2113 30.9678C21.6562 30.6078 20.6447 29.8878 20.9384 29.3971C21.0594 29.1946 21.3168 29.14 21.5781 29.336C21.8391 29.5327 22.4747 30.0406 22.8644 30.2478C23.0895 30.3679 23.4802 30.5613 23.7937 30.6016C24.2131 30.6556 24.4447 30.5936 24.4447 30.5936C24.4529 31.0931 24.136 31.3601 23.6803 31.393Z" fill="#F2F2F2"/>
<path d="M23.6476 31.7531C23.6476 31.7531 23.7128 32.0149 23.5169 32.2439C23.3213 32.4731 22.8316 32.5058 22.2112 32.3747C21.5913 32.2439 21.0035 31.9493 20.5791 31.5239C20.1549 31.0987 19.7306 30.5751 19.9591 30.2478C20.094 30.0546 20.4572 29.9909 20.6857 30.2525C20.9143 30.5144 21.7765 31.1819 22.2767 31.4258C22.7754 31.6693 23.1025 31.7778 23.6476 31.7531Z" fill="#F2F2F2"/>
<path d="M21.5259 33.3561C21.1668 33.2911 20.1692 32.9369 19.3897 32.1805C18.8912 31.6972 18.433 31.2541 18.2289 30.7058C18.1806 30.5757 18.2289 30.5098 18.4575 30.5423C18.6861 30.575 18.7226 30.5694 18.8492 30.575C19.0447 30.5838 19.2757 30.5735 19.4367 30.804C19.7794 31.295 20.2855 31.8186 20.7424 32.1786C21.1996 32.5382 22.0481 32.8001 22.6033 32.7676C22.6033 32.7676 22.7664 32.9636 22.6033 33.1928C22.4399 33.4218 21.8848 33.4218 21.5259 33.3561Z" fill="#F2F2F2"/>
<path d="M21.5913 33.8797C21.232 33.9781 20.4524 34.028 19.7957 33.8797C19.1431 33.7325 18.6418 33.4052 18.3126 32.9863C18.069 32.6766 17.9747 32.5268 17.9352 32.1787C17.9352 32.1787 17.8704 31.5281 18.0231 31.4636C18.1765 31.399 18.3126 31.5361 18.5134 31.8021C18.682 32.0248 19.2125 32.6639 19.9591 33.1274C20.6064 33.5292 21.4182 33.6555 21.712 33.6226C22.006 33.5901 21.9502 33.7818 21.5913 33.8797Z" fill="#F2F2F2"/>
<path d="M27.9058 26.6474C27.9058 26.6474 27.0566 26.9147 26.5017 27.4382C26.5017 27.4382 26.2733 26.9474 25.6497 26.483C25.6497 26.483 26.0487 26.3741 26.3012 25.9551C26.3012 25.9551 26.7052 26.534 27.9058 26.6474Z" fill="#F2F2F2"/>
<path d="M21.4082 42.1587C21.7129 43.1619 21.8195 44.6455 21.8195 46.6083C21.8195 48.5719 20.8187 52.2373 19.4259 52.2373C18.0331 52.2373 17.027 50.4326 16.9171 48.0356C16.8086 45.6579 17.2842 44.473 17.6847 43.2493C18.0029 42.2787 18.0112 41.738 17.7061 41.3105C17.4531 40.9562 17.072 40.8417 16.6403 40.7456C16.1749 40.6427 15.6579 40.4733 15.6579 39.541C15.6579 38.7556 15.6561 35.5269 15.6561 35.5269C15.6561 34.6982 16.1617 34.6982 16.5099 34.6982C16.8579 34.6982 17.3802 34.9164 17.7283 35.2217C18.0767 35.5269 18.3813 35.9196 18.3813 37.2723C18.3813 38.6245 18.2295 40.9806 19.4259 40.9806C20.7754 40.9806 21.1037 41.155 21.4082 42.1587Z" fill="#F2F2F2"/>
<path d="M13.4276 41.5265C12.6305 41.9348 11.7656 42.1251 10.7068 42.1251C8.60609 42.1251 5.01293 40.5934 4.94207 34.8528L4.92453 33.1026C4.86944 28.8079 4.98927 23.0599 3.76122 20.5844C3.31244 19.6799 2.64394 19.537 1.92195 19.8093C1.89847 19.8196 1.87424 19.8286 1.85034 19.8379C1.8443 19.8403 1.8381 19.8424 1.83206 19.8452L1.83181 19.8443C1.68783 19.896 1.53278 19.9257 1.37102 19.9257C0.613818 19.9257 0 19.3102 0 18.5513C0 17.7996 0.659014 17.1807 1.52909 17.1768C3.43336 17.1753 4.28707 18.7352 4.79809 19.9567C5.9661 22.7488 5.94497 28.1406 5.98857 33.0932L6.00635 34.7682C6.03344 36.9817 6.61983 38.6597 7.74894 39.7566C8.89614 40.8712 10.1996 40.9918 10.7068 40.9918C13.2632 40.9918 14.6598 38.7129 15.0011 37.8781L14.9933 41.0019C14.9933 41.3163 14.7718 41.3867 14.5911 41.3693C14.3267 41.3209 13.9357 41.3241 13.4276 41.5265Z" fill="#F2F2F2"/>
<path d="M22.2982 40.1515C22.2982 40.8933 21.8912 41.0179 21.4177 41.0179C21.6136 40.9688 21.8195 40.6416 21.8195 40.326C21.8195 40.0206 21.8195 36.4431 21.8195 35.8756C21.8195 35.1771 21.4278 35.0469 21.4278 35.0469V34.1743L21.7761 34.1311C21.7761 34.4362 21.8633 34.6107 22.0807 34.8287C22.2982 35.0469 22.2982 35.2649 22.2982 35.614C22.2982 35.9634 22.2982 39.4099 22.2982 40.1515Z" fill="#F2F2F2"/>
<path d="M28.6792 40.2605C28.4197 40.9034 27.8658 41.2781 27.4728 41.247C27.0473 41.2129 26.7878 41.1707 26.3958 40.8217C26.004 40.4724 25.2533 40.0687 24.274 40.0687C23.6586 40.0687 22.4511 40.1395 22.6404 38.6681C22.7273 37.9916 23.7747 37.573 24.9474 37.4904C26.1874 37.4028 27.4932 37.7082 28.146 38.1883C28.7988 38.6681 28.9712 39.5372 28.6792 40.2605Z" fill="#F2F2F2"/>
<path d="M15.0746 59.7547C15.0427 60.106 14.5862 60.6903 13.7667 60.7779C12.995 60.8603 11.8214 60.5747 11.5613 59.3184C11.4416 58.7409 11.3001 57.7665 11.3439 56.2648C11.3941 54.5311 11.438 53.4864 11.2784 52.7516C11.1188 52.0162 10.5464 50.2006 11.8527 49.8732C12.2354 49.7773 12.6183 49.9375 12.8734 50.0972C13.1288 50.2571 13.3599 50.3241 13.8464 50.1018C14.3114 49.8891 15.0133 49.742 15.8419 49.7334C15.7068 49.4793 15.6113 49.1297 15.5101 48.6631C15.1086 46.8187 15.163 43.2779 15.4892 41.5331C15.5546 41.184 15.8349 41.0968 16.2183 41.1403C16.6969 41.1949 17.0884 41.3272 17.2844 41.5728C17.5892 41.954 17.5377 42.2507 17.0926 43.6901C16.6139 45.239 16.4834 46.6785 16.527 47.9877C16.5528 48.764 16.6535 49.3411 16.7713 49.7609C16.8364 49.9463 16.7713 50.2191 16.5102 50.2408C16.2386 50.2792 15.9249 50.3317 15.5758 50.5414C15.475 50.6024 15.1586 50.8789 14.8379 51.092C14.4729 51.3337 14.026 51.5008 13.585 51.5174C13.1714 51.5329 13.0275 51.4699 12.6167 51.3593C12.274 51.266 11.9912 51.3757 11.8279 51.588C11.6973 51.7582 11.6252 52.0616 11.6593 52.346C11.7146 52.8066 11.8882 53.1862 12.0441 53.4251C12.4588 54.0639 12.46 54.74 12.4357 55.4549C12.3706 57.3746 12.2314 58.7519 12.7049 58.9889C13.0727 59.1734 13.4037 58.7619 13.8813 58.7342C14.5255 58.6977 14.4278 59.9993 14.6297 59.6349C14.7929 59.3403 15.1065 59.4025 15.0746 59.7547Z" fill="#F2F2F2"/>
<path d="M20.9274 51.5694C20.9603 53.0491 20.1345 53.6448 19.1887 53.7402C18.0788 53.8511 16.4712 53.2735 15.9136 53.2079C15.356 53.1419 15.2187 53.2466 14.9894 53.4767C14.7597 53.7066 14.238 54.3475 14.202 54.9202C14.1812 55.2485 14.202 56.1411 14.3003 56.7982C14.3988 57.456 15.6236 57.3787 15.6236 57.3787C15.1161 57.4531 14.8122 57.8946 14.7425 58.1039C14.612 58.4969 14.7589 59.0691 14.7589 59.0691C14.5957 58.6442 14.3832 58.3006 13.959 58.2842C13.7624 58.2767 13.4069 58.3871 13.0668 58.5625C12.676 58.764 12.7692 57.5645 12.7911 56.6915C12.8127 55.8129 12.9272 55.0223 12.7838 54.1613C12.6968 53.6376 13.5221 53.4834 13.7403 53.35C13.9807 53.2016 14.1265 52.9688 14.1999 52.6586C14.2887 52.2818 14.5961 51.9561 14.8886 51.6396C15.4049 51.081 15.9285 50.7254 16.5704 50.6601C16.6577 50.6513 17.0175 50.6296 17.205 51.0087C17.7379 52.0893 18.2679 52.2856 18.7465 52.4594C18.8776 52.5073 18.4652 53.1205 18.0572 53.1529C18.2361 53.2403 18.8731 53.3496 19.4607 53.1529C19.9869 52.9772 20.2659 52.3787 20.2659 52.3787C20.463 52.2801 20.7884 51.9317 20.9274 51.5694Z" fill="#F2F2F2"/>
<path d="M18.2125 58.4213C18.2125 58.4213 17.9436 58.6104 17.9023 59.043C17.8681 59.4024 17.9023 59.7571 17.8371 59.7739C17.7617 59.7928 17.7655 59.7752 17.7065 59.4469C17.6271 59.0044 17.4737 58.7644 17.2192 58.536C16.9785 58.3199 16.3978 58.2578 16.4956 58.5196C16.5936 58.7816 16.6208 59.0813 16.5968 59.3541C16.5591 59.7823 16.2624 60.1379 16.1725 59.8286C16.079 59.5066 15.6562 59.0472 15.1014 59.0145C15.1014 59.0145 14.9271 58.5297 15.1776 58.1098C15.5111 57.5501 16.5538 57.5069 16.9885 57.5708C17.3537 57.624 18.082 57.9303 18.2125 58.4213Z" fill="#F2F2F2"/>
<path d="M19.2735 59.7302C19.3389 60.0908 19.1432 60.6792 18.882 60.8753C18.6207 61.0716 18.588 60.8753 18.6534 60.6469C18.7185 60.4174 18.5227 60.2211 18.425 60.1555C18.3271 60.0908 18.2289 60.0576 18.2289 59.763C18.2289 59.4684 18.2765 58.7484 18.5554 58.7484C18.9145 58.7484 19.2082 59.37 19.2735 59.7302Z" fill="#F2F2F2"/>
<path d="M17.2985 59.37C17.4221 59.6882 17.5049 60.2148 17.4395 60.5427C17.3743 60.8691 17.2985 60.9737 17.2008 60.6793C17.1029 60.3851 16.7903 60.1804 16.9067 59.9269C17.0047 59.7138 17.0374 59.2881 16.9067 58.9447C16.9387 58.7455 17.2125 59.1481 17.2985 59.37Z" fill="#F2F2F2"/>
<path d="M15.9112 60.4502C15.9032 60.6784 15.8681 60.8014 15.7481 60.9409C15.6527 61.0519 15.5724 61.0418 15.5197 60.7775C15.4871 60.6141 15.4217 60.3195 15.2911 60.2212C15.2911 60.2212 15.4768 59.9967 15.3787 59.4407C15.7223 59.6786 15.9219 60.1539 15.9112 60.4502Z" fill="#F2F2F2"/>
<path d="M20.4625 10.2408L20.3971 8.47758H21.1432L21.0689 10.2408H20.4625Z" fill="#F2F2F2"/>
<path d="M22.1297 10.5488L21.5692 10.316L22.1643 8.7096L22.1821 8.66204L22.8714 8.94846L22.1297 10.5488Z" fill="#F2F2F2"/>
<path d="M22.5481 10.8077L23.671 9.51637L23.7047 9.47785L24.2485 9.99022L22.9901 11.2241L22.5481 10.8077Z" fill="#F2F2F2"/>
<path d="M23.2535 11.5841L24.7197 10.7029L24.7631 10.6766L25.1229 11.3321L23.5457 12.1167L23.2535 11.5841Z" fill="#F2F2F2"/>
<path d="M23.6429 12.5406L25.3251 12.2367L25.3749 12.2277L25.4803 12.9682L23.7282 13.1427L23.6429 12.5406Z" fill="#F2F2F2"/>
<path d="M23.7476 13.7244L25.5047 13.7265V14.4377L23.7472 14.4369L23.7476 13.7571V13.7244Z" fill="#F2F2F2"/>
<path d="M19.4131 10.5488L18.6713 8.94846L19.3136 8.68162L19.3607 8.66204L19.9735 10.316L19.4131 10.5488Z" fill="#F2F2F2"/>
<path d="M18.5495 11.2242L17.278 9.95053L17.7843 9.47367L17.8217 9.43859L18.9918 10.8079L18.5495 11.2242Z" fill="#F2F2F2"/>
<path d="M17.994 12.1167L16.3735 11.3099L16.7088 10.6992L16.7332 10.6547L18.2866 11.5841L17.994 12.1167Z" fill="#F2F2F2"/>
<path d="M17.8115 13.1425L15.9944 12.9684L16.0924 12.278L16.0997 12.2279L17.897 12.5401L17.8115 13.1425Z" fill="#F2F2F2"/>
<path d="M17.7923 14.4369L15.9404 14.4377V13.7265L17.7597 13.7244H17.7923V14.4369Z" fill="#F2F2F2"/>
<path d="M22.3916 15.2277C22.3916 16.2086 21.9114 16.3579 21.5716 16.3579C21.2309 16.3579 20.9331 16.2086 20.9331 15.761C20.9331 15.4197 20.9331 15.1376 20.9331 14.8389C20.9331 14.5404 21.1388 14.2493 21.4224 14.1141C21.6454 14.0074 21.7841 13.735 21.8054 13.4791C21.8193 13.3091 21.8702 13.2992 21.9541 13.4046C22.2094 13.7244 22.3916 14.3747 22.3916 15.2277Z" fill="#F2F2F2"/>
<path d="M22.6666 14.8758C22.6666 13.977 22.2965 13.3777 22.1688 13.2496C22.0413 13.122 22.1338 13.062 22.2753 13.1166C22.6692 13.2686 23.0755 13.1166 23.2992 12.9944C23.2992 12.9944 23.5143 12.7751 23.5143 13.6284C23.5143 14.6518 23.0189 15.2068 22.8441 15.2918C22.7675 15.3288 22.6782 15.3815 22.666 15.2487C22.6606 15.1889 22.6666 15.0721 22.6666 14.8758Z" fill="#F2F2F2"/>
<path d="M19.9685 16.3579C19.6282 16.3579 19.1484 16.2086 19.1484 15.2277C19.1484 14.3747 19.3302 13.7244 19.5855 13.4046C19.6697 13.2992 19.7205 13.3091 19.7345 13.4791C19.7558 13.735 19.8941 14.0074 20.1176 14.1141C20.401 14.2493 20.6066 14.5404 20.6066 14.8389C20.6066 15.1376 20.6066 15.4197 20.6066 15.761C20.6066 16.2086 20.3089 16.3579 19.9685 16.3579Z" fill="#F2F2F2"/>
<path d="M19.9149 13.4684V12.3807C19.9149 12.3275 19.8617 12.2619 19.7976 12.2619H18.3832C18.3298 12.2619 18.3193 12.1889 18.3341 12.1476C18.6899 11.1595 19.6596 10.4721 20.77 10.4721C21.8802 10.4721 22.8501 11.1595 23.2056 12.1476C23.2204 12.1889 23.2101 12.2619 23.1569 12.2619H21.742C21.6785 12.2619 21.6252 12.3275 21.6252 12.3807V13.4684C21.6252 13.5216 21.572 13.5859 21.5078 13.5859H20.77H20.0319C19.968 13.5859 19.9149 13.5216 19.9149 13.4684Z" fill="#F2F2F2"/>
<path d="M19.3796 13.2496C19.2519 13.3777 18.882 13.977 18.882 14.8758C18.882 15.0721 18.8878 15.1889 18.8825 15.2487C18.8704 15.3815 18.7809 15.3288 18.7041 15.2918C18.5295 15.2068 18.0339 14.6518 18.0339 13.6284C18.0339 12.7751 18.2493 12.9944 18.2493 12.9944C18.4729 13.1166 18.8796 13.2686 19.2732 13.1166C19.4144 13.062 19.5071 13.122 19.3796 13.2496Z" fill="#F2F2F2"/>
<path d="M36.2629 24.3574C36.2115 24.3677 36.1699 24.3746 36.1474 24.3778C36.0413 24.3918 35.478 24.4301 35.478 24.0253C35.478 23.7055 35.911 23.6728 36.1474 23.6728C36.1673 23.6728 36.2025 23.6771 36.2444 23.684C36.4254 23.7137 36.7862 23.8121 37.1591 24.026C36.8064 24.2263 36.4511 24.3193 36.2629 24.3574Z" fill="#F2F2F2"/>
<path d="M20.6506 35.3086V35.7678C20.6506 35.7921 20.6308 35.8119 20.6063 35.8119H20.0215C19.9969 35.8119 19.977 35.7921 19.977 35.7678V35.1564C19.977 35.1321 19.9969 35.1123 20.0215 35.1123H20.6063C20.6308 35.1123 20.6506 35.1321 20.6506 35.1564V35.3408H21.0254V34.4091C21.0254 34.4091 19.1588 34.8158 18.0415 33.4151C17.9836 33.3426 17.8968 33.4151 17.8968 33.5601C17.8968 33.705 17.9546 34.4005 17.3624 34.5018C17.3624 34.5018 17.9691 34.7338 18.3017 35.1685C18.5654 35.5132 18.787 36.119 18.787 37.2519C18.787 37.2519 18.787 38.2765 18.787 38.7193C18.787 39.6333 18.9101 40.5367 19.4681 40.5367C20.7002 40.5367 21.0254 40.8162 21.0254 40.8162C21.3045 40.8162 21.351 40.3501 21.351 40.0705C21.351 40.0252 21.351 39.8263 21.351 39.489L20.6506 39.4904V39.9561C20.6506 39.9806 20.6308 40.0005 20.6063 40.0005H20.0215C19.9969 40.0005 19.977 39.9806 19.977 39.9561V39.3449C19.977 39.3204 19.9969 39.3003 20.0215 39.3003H20.6063C20.6308 39.3003 20.6506 39.3204 20.6506 39.3449V39.5222L21.351 39.5369C21.351 39.1734 21.351 38.76 21.351 38.2181H20.6506V38.5164C20.6506 38.5405 20.6308 38.5609 20.6063 38.5609H20.0215C19.9969 38.5609 19.977 38.5405 19.977 38.5164V37.9053C19.977 37.8805 19.9969 37.8607 20.0215 37.8607H20.6063C20.6308 37.8607 20.6506 37.8805 20.6506 37.9053V38.2818H21.351C21.351 37.8551 21.351 37.2324 21.351 36.867H20.6506V37.1747C20.6506 37.199 20.6308 37.2192 20.6063 37.2192H20.0215C19.9969 37.2192 19.977 37.199 19.977 37.1747V36.5633C19.977 36.5388 19.9969 36.5188 20.0215 36.5188H20.6063C20.6308 36.5188 20.6506 36.5388 20.6506 36.5633V36.8986H21.351C21.351 36.4564 21.351 35.9883 21.351 35.9238C21.351 35.6905 21.2115 35.5044 21.1187 35.4577C21.0254 35.4112 21.0254 35.4112 21.0254 35.4112V35.3161L20.6506 35.3086Z" fill="#F2F2F2"/>
<path d="M14.1304 51.9384C13.9999 52.0864 13.7959 52.5359 13.7144 52.7486C13.6327 52.9612 13.4289 53.0432 13.2817 53.0924C13.1347 53.1415 13.0123 53.1987 12.8113 53.3378C12.663 53.4393 12.5056 53.4401 12.425 53.3273C12.2697 53.1088 12.2453 52.9814 12.1392 52.7158C12.0577 52.5111 12.0168 52.0616 12.1146 51.9145C12.2172 51.7602 12.4845 51.7069 12.8819 51.8325C13.2708 51.9557 13.6877 51.9502 14.0896 51.7997C14.2257 51.7489 14.2611 51.7917 14.1304 51.9384Z" fill="#F2F2F2"/>
<path d="M28.3708 43.0849C28.2238 43.7721 28.2238 44.4593 28.4032 44.7698C28.6282 45.1595 29.0942 45.2881 29.3336 45.3102C29.5729 45.3318 30.2588 45.3423 30.9331 45.3755C32.9241 45.4737 33.9034 46.2207 33.6969 46.4607C33.6203 46.5494 33.4629 46.6131 33.0875 46.4985C32.7895 46.4077 31.7656 45.9588 30.5851 45.9809C29.9321 45.9929 28.953 46.2861 28.3652 46.504C27.7777 46.7225 27.8376 46.1782 27.8429 46.0244C27.8554 45.6525 27.8447 45.3994 27.8337 45.0038C27.7611 42.3866 26.7878 41.4596 26.7878 41.4596C26.9396 41.5685 27.5458 41.6492 27.6686 41.6175C28.2238 41.476 28.6265 41.1814 28.8006 40.7451C28.795 41.3779 28.4861 42.5452 28.3708 43.0849Z" fill="#F2F2F2"/>
<path d="M55.2611 15.1967L53.4959 15.1989L53.4955 15.9103L55.2611 15.9094V15.2294V15.1967Z" fill="#F2F2F2"/>
<path d="M53.4959 16.655L53.4955 17.3662L55.4855 17.3654V16.6559L53.5283 16.655H53.4959Z" fill="#F2F2F2"/>
<path d="M53.4959 19.5674L53.4955 20.2816L63.0609 20.281V19.5683L53.5283 19.5674H53.4959Z" fill="#F2F2F2"/>
<path d="M55.6304 18.1091L53.4959 18.1113L53.4955 18.8223L56.0771 18.8216L55.64 18.1244L55.6304 18.1091Z" fill="#F2F2F2"/>
<path d="M61.2051 15.1967V15.9094L63.0605 15.9103L63.06 15.1989L61.2379 15.1967H61.2051Z" fill="#F2F2F2"/>
<path d="M63.06 16.655L60.9758 16.6559V17.3654L63.0605 17.3662L63.06 16.6877V16.655Z" fill="#F2F2F2"/>
<path d="M63.063 21.0316L60.6895 21.0325L60.8266 21.094C60.8307 21.0964 61.3393 21.363 61.7166 21.7415L61.7259 21.7504L63.063 21.7512V21.0641V21.0316Z" fill="#F2F2F2"/>
<path d="M63.0169 23.8717V22.5324L62.3633 22.5332C62.6673 22.9337 62.874 23.3479 63.0169 23.8717Z" fill="#F2F2F2"/>
<path d="M60.8312 18.106L60.3846 18.8188L63.0605 18.8226L63.0601 18.1084L60.8496 18.1063L60.8312 18.106Z" fill="#F2F2F2"/>
<path d="M57.3475 18.4686V16.8939L56.9486 16.5616L56.7058 16.8276L56.8825 18.3578L57.3475 18.4686Z" fill="#F2F2F2"/>
<path d="M58.2312 19.193C58.6022 18.9417 58.8106 18.5575 58.8106 18.0919C58.8106 17.626 58.8106 16.6563 58.8106 16.6563H57.6519C57.6519 16.6563 57.6519 17.626 57.6519 18.0919C57.6519 18.5575 57.8588 18.9417 58.2312 19.193Z" fill="#F2F2F2"/>
<path d="M59.1028 18.4686V16.8939L59.5012 16.5616L59.7451 16.8276L59.5678 18.3578L59.1028 18.4686Z" fill="#F2F2F2"/>
<path d="M59.7732 24.4501C59.7732 23.9591 59.3692 23.8885 59.0307 23.7906C58.4367 23.6189 58.0082 23.3195 57.6383 22.9509C57.2764 22.5905 56.822 22.2309 56.2342 22.2309C55.6469 22.2309 55.2384 22.2965 54.586 22.5748C53.9542 22.8437 53.3454 23.1381 53.4201 23.7691C53.4875 24.3408 53.3383 24.8162 53.2398 25.0451C53.1421 25.2741 53.0468 25.7338 53.5614 25.9509C53.9776 26.1273 54.4518 26.2132 55.3201 26.1577C56.5536 26.0785 57.8777 25.675 58.8785 25.2416C59.3351 25.0436 59.7732 24.8097 59.7732 24.4501Z" fill="#F2F2F2"/>
<path d="M56.9847 26.5504C56.8074 26.6392 56.748 26.7998 56.8132 27.0283C56.8787 27.2577 57.0736 28.0001 58.3234 29.1352C58.7742 29.5441 59.5326 30.0483 60.1515 30.084C60.7959 30.1217 60.9997 29.7894 60.9997 29.4296C60.9997 29.4296 60.9997 29.0418 60.9997 28.8129C60.9997 28.5835 60.8387 28.2824 60.5755 28.2237C59.9935 28.0935 58.9294 27.6009 58.5737 26.7139C58.4649 26.4423 58.2697 26.223 57.8777 26.2887C57.4862 26.3539 57.2468 26.4193 56.9847 26.5504Z" fill="#F2F2F2"/>
<path d="M55.6137 21.7603C57.0799 21.5965 57.3156 21.9494 58.1888 22.6884C58.8773 23.2707 59.4854 23.3882 59.5642 23.2453C59.7276 22.9509 59.1724 22.5582 58.944 22.3292C58.7161 22.1003 58.9133 21.8756 59.2727 22.0719C59.6295 22.2673 60.4137 23.0404 60.5506 23.7241C60.551 23.7267 60.5519 23.7308 60.5536 23.7364C60.5549 23.7447 60.5575 23.7527 60.559 23.7613C60.5944 23.9821 60.6689 24.6965 60.0882 25.1969C59.8036 25.4428 59.5661 25.5567 59.2053 25.6995C58.9168 25.8134 58.7809 26.2556 59.1068 26.6812C59.4337 27.1065 60.0393 27.5693 60.7741 27.7654C61.2169 27.8841 61.4546 28.1962 61.4546 28.6653C61.4546 29.7996 61.4546 33.1275 61.4546 33.4765C61.4546 33.8256 61.6203 34.2542 62.1209 34.2542C62.6215 34.2542 62.9673 34.3698 62.9673 33.9334C62.9673 33.4974 62.9673 27.1329 62.9673 26.3475C62.9673 23.0753 61.1223 21.7538 60.4963 21.4175C59.2783 20.7631 57.3143 20.4358 55.1755 20.8894C53.8416 21.1724 52.9228 21.7118 52.4478 22.1592C52.4478 22.1592 52.896 22.2901 53.2289 22.7327C53.2289 22.7327 54.0713 21.9847 55.6137 21.7603Z" fill="#F2F2F2"/>
<path d="M53.7533 27.7502C53.7533 27.7502 54.8367 27.7324 55.5164 27.129C55.7411 26.9289 55.614 26.6483 55.2547 26.6483C54.896 26.6483 54.3207 26.7158 53.7524 26.5815L53.7533 27.7502Z" fill="#F2F2F2"/>
<path d="M53.9291 28.2327C53.9911 28.425 54.124 28.697 54.2432 28.7427C54.2432 28.7427 54.505 28.8173 54.8691 28.829C55.1068 28.8365 55.3113 28.8128 55.6795 28.5462C55.9285 28.3654 56.3085 27.9897 56.43 27.8591C56.5729 27.7059 56.659 27.5647 56.5285 27.3353C56.4019 27.1135 56.184 27.0691 55.8899 27.2983C55.5964 27.5271 55.3038 27.7334 54.9612 27.8591C54.6444 27.9749 54.3928 28.0295 54.098 28.0396C54.0079 28.0424 53.8967 28.1339 53.9291 28.2327Z" fill="#F2F2F2"/>
<path d="M54.5785 30.215C55.1654 30.3459 55.6482 30.0743 55.9382 29.9247C56.2212 29.7788 56.9294 29.2245 57.0828 29.0698C57.3203 28.8298 57.3445 28.5462 57.1814 28.35C57.0178 28.1535 56.7894 28.0803 56.5936 28.2114C56.3978 28.3424 56.0904 28.6882 55.8418 28.8533C55.5529 29.0452 55.1667 29.2219 54.8305 29.1825C54.8305 29.1825 54.5126 29.1604 54.3168 29.0949C54.1211 29.0293 54.0234 29.1352 54.0558 29.4296C54.0884 29.7244 54.2842 30.1494 54.5785 30.215Z" fill="#F2F2F2"/>
<path d="M55.207 30.6016C55.5206 30.5613 55.9113 30.3679 56.1365 30.2478C56.5259 30.0406 57.1616 29.5327 57.4228 29.336C57.6836 29.14 57.941 29.1946 58.0627 29.3971C58.3562 29.8878 57.3445 30.6078 56.7893 30.9678C56.2342 31.3276 55.775 31.4257 55.3201 31.393C54.8644 31.3601 54.5482 31.0931 54.5559 30.5936C54.5559 30.5936 54.7878 30.6556 55.207 30.6016Z" fill="#F2F2F2"/>
<path d="M59.0416 30.2478C58.9066 30.0546 58.5436 29.9909 58.3146 30.2525C58.0866 30.5144 57.2245 31.1819 56.7243 31.4258C56.225 31.6693 55.8985 31.7778 55.3532 31.7531C55.3532 31.7531 55.288 32.0149 55.4837 32.2439C55.6795 32.4731 56.1692 32.5058 56.7893 32.3747C57.4095 32.2439 57.9973 31.9493 58.421 31.5239C58.8454 31.0987 59.2703 30.5751 59.0416 30.2478Z" fill="#F2F2F2"/>
<path d="M60.7721 30.7058C60.8202 30.5757 60.7721 30.5098 60.543 30.5423C60.3142 30.575 60.2781 30.5694 60.1515 30.575C59.9553 30.5838 59.7256 30.5735 59.5641 30.804C59.2211 31.295 58.716 31.8186 58.2581 32.1786C57.8011 32.5382 56.952 32.8001 56.3978 32.7676C56.3978 32.7676 56.2342 32.9636 56.3978 33.1928C56.5607 33.4218 57.1154 33.4218 57.4752 33.3561C57.8341 33.2911 58.8313 32.9369 59.6114 32.1805C60.1096 31.6972 60.5677 31.2541 60.7721 30.7058Z" fill="#F2F2F2"/>
<path d="M60.9775 31.4636C60.824 31.399 60.6881 31.5361 60.4872 31.8021C60.3183 32.0248 59.7885 32.6639 59.0416 33.1274C58.3946 33.5292 57.5825 33.6555 57.2882 33.6226C56.9948 33.5901 57.0506 33.7818 57.4095 33.8797C57.7682 33.9781 58.5485 34.028 59.2052 33.8797C59.8576 33.7325 60.3586 33.4052 60.6881 32.9863C60.9314 32.6766 61.0256 32.5268 61.0651 32.1787C61.0651 32.1787 61.1301 31.5281 60.9775 31.4636Z" fill="#F2F2F2"/>
<path d="M52.499 27.4382C52.499 27.4382 52.7274 26.9474 53.3508 26.483C53.3508 26.483 52.9517 26.3741 52.6993 25.9551C52.6993 25.9551 52.2955 26.534 51.0948 26.6474C51.0948 26.6474 51.9434 26.9147 52.499 27.4382Z" fill="#F2F2F2"/>
<path d="M63.3439 35.5269C63.3439 34.6982 62.8392 34.6982 62.4908 34.6982C62.1426 34.6982 61.6203 34.9164 61.2719 35.2217C60.9239 35.5269 60.6195 35.9196 60.6195 37.2723C60.6195 38.6245 60.7713 40.9806 59.5754 40.9806C58.2258 40.9806 57.8975 41.155 57.5927 42.1587C57.2879 43.1619 57.1814 44.6455 57.1814 46.6083C57.1814 48.5719 58.1822 52.2373 59.5754 52.2373C60.9675 52.2373 61.9736 50.4326 62.0836 48.0356C62.1922 45.6579 61.7163 44.473 61.3155 43.2493C60.998 42.2787 60.9896 41.738 61.294 41.3105C61.5473 40.9562 61.9284 40.8417 62.3603 40.7456C62.8261 40.6427 63.3426 40.4733 63.3426 39.541C63.3426 38.7556 63.3439 35.5269 63.3439 35.5269Z" fill="#F2F2F2"/>
<path d="M64.0076 41.0019L63.9996 37.8781C64.3414 38.7129 65.7376 40.9918 68.2939 40.9918C68.8011 40.9918 70.1046 40.8712 71.2518 39.7566C72.3813 38.6597 72.9672 36.9817 72.9944 34.7682L73.0116 33.0932C73.0554 28.1406 73.0344 22.7488 74.2028 19.9567C74.7139 18.7352 75.5677 17.1753 77.4713 17.1768C78.3418 17.1807 79.0006 17.7996 79.0006 18.5513C79.0006 19.3102 78.3867 19.9257 77.6296 19.9257C77.4681 19.9257 77.3129 19.896 77.1689 19.8443L77.1682 19.8452C77.162 19.8424 77.1562 19.8403 77.15 19.8379C77.1259 19.8286 77.1025 19.8196 77.0785 19.8093C76.357 19.537 75.6883 19.6799 75.2397 20.5844C74.0113 23.0599 74.1311 28.8079 74.0762 33.1026L74.0581 34.8528C73.9877 40.5934 70.3944 42.1251 68.2939 42.1251C67.2355 42.1251 66.3706 41.9348 65.5731 41.5265C65.065 41.3241 64.6737 41.3209 64.4096 41.3693C64.2293 41.3867 64.0076 41.3163 64.0076 41.0019Z" fill="#F2F2F2"/>
<path d="M57.583 41.0179C57.1096 41.0179 56.7026 40.8933 56.7026 40.1515C56.7026 39.4099 56.7026 35.9634 56.7026 35.614C56.7026 35.2649 56.7026 35.0469 56.9197 34.8287C57.1373 34.6107 57.2245 34.4362 57.2245 34.1311L57.5729 34.1743V35.0469C57.5729 35.0469 57.1813 35.1771 57.1813 35.8756C57.1813 36.4431 57.1813 40.0206 57.1813 40.326C57.1813 40.6416 57.3868 40.9688 57.583 41.0179Z" fill="#F2F2F2"/>
<path d="M56.3605 38.6681C56.2733 37.9916 55.226 37.573 54.0537 37.4904C52.8127 37.4028 51.5071 37.7082 50.8547 38.1883C50.2021 38.6681 50.0295 39.5372 50.3219 40.2605C50.5814 40.9034 51.1353 41.2781 51.527 41.247C51.9531 41.2129 52.2131 41.1707 52.6047 40.8217C52.9962 40.4724 53.7475 40.0687 54.7267 40.0687C55.3425 40.0687 56.5496 40.1395 56.3605 38.6681Z" fill="#F2F2F2"/>
<path d="M39.496 38.0936C39.496 38.0936 40.8499 39.451 40.995 39.5963C41.1118 39.4794 42.0889 38.499 42.4906 38.0964V35.1515L40.995 36.6514C40.995 36.6514 39.6407 35.2939 39.496 35.1491C39.3517 35.2935 38.0294 36.6189 38.0294 36.6189L36.5005 35.0867V38.031C36.8367 38.3679 37.9061 39.4398 38.0294 39.5637C38.1738 39.4187 39.496 38.0936 39.496 38.0936Z" fill="#F2F2F2"/>
<path d="M37.1677 41.727C37.1677 41.727 37.0803 41.722 36.953 41.7532C37.3909 42.1923 37.9428 42.7455 38.0294 42.8324C38.1738 42.6876 39.496 41.3626 39.496 41.3626C39.496 41.3626 40.8499 42.7201 40.995 42.865C41.0811 42.7782 41.6437 42.2141 42.0915 41.7652C41.941 41.7207 41.8333 41.727 41.8333 41.727C41.8936 41.3853 42.1016 41.0697 42.4906 40.9602V40.4403C42.2057 40.2791 41.9168 40.3018 41.9168 40.3018C41.9591 40.0056 42.2006 39.7907 42.4906 39.6434V38.4201L40.995 39.9202C40.995 39.9202 39.6407 38.5625 39.496 38.4175C39.3517 38.5621 38.0294 39.8874 38.0294 39.8874L36.5005 38.3553V39.6389C36.7954 39.7862 37.0421 40.0024 37.084 40.3018C37.084 40.3018 36.7894 40.2791 36.5005 40.4457V40.9583C36.8957 41.0655 37.1069 41.3832 37.1677 41.727Z" fill="#F2F2F2"/>
<path d="M41.8552 43.5871C41.9082 43.2808 42.1561 43.0672 42.4906 42.9374V41.9871C42.4328 41.9363 42.374 41.8959 42.3171 41.8629L40.995 43.189C40.995 43.189 39.6407 41.8312 39.496 41.6864C39.3517 41.8309 38.0294 43.1564 38.0294 43.1564L36.7188 41.8425C36.6478 41.8799 36.5737 41.9295 36.5005 41.9951V42.9336C36.8403 43.0631 37.0923 43.2778 37.146 43.5871C37.146 43.5871 36.7849 43.5998 36.5005 43.9566V44.5685C36.8367 44.9054 37.9061 45.9774 38.0294 46.1009C38.1738 45.9564 39.496 44.6312 39.496 44.6312C39.496 44.6312 40.8499 45.9887 40.995 46.1333C41.1118 46.0169 42.0889 45.0363 42.4906 44.6337V43.9442C42.2085 43.5989 41.8552 43.5871 41.8552 43.5871Z" fill="#F2F2F2"/>
<path d="M39.496 44.9552C39.3517 45.0994 38.0294 46.4246 38.0294 46.4246L36.5005 44.8926V47.837C36.8367 48.1738 37.9061 49.2456 38.0294 49.3695C38.1738 49.2248 39.496 47.8994 39.496 47.8994C39.496 47.8994 40.8499 49.2569 40.995 49.4023C41.1118 49.2855 42.0889 48.3054 42.4906 47.9019V44.9573L40.995 46.4573C40.995 46.4573 39.6407 45.0998 39.496 44.9552Z" fill="#F2F2F2"/>
<path d="M34.4515 43.9646C34.1492 44.0352 33.9071 44.0571 33.7029 43.9154C33.42 43.7192 33.4226 43.2783 33.4427 43.1165C33.3616 43.5792 32.7796 44.411 32.1803 44.5144C31.4244 44.6455 30.7562 44.5492 30.0454 44.3839C29.2971 44.2092 29.2365 43.8167 29.3673 43.3363C29.4978 42.8565 29.6365 41.5042 29.6017 40.5985C29.5815 40.0756 29.5233 39.4099 29.088 38.9735C29.088 38.9735 29.4572 40.1298 28.9349 42.3767C28.5876 43.8711 28.573 44.2071 28.7469 44.531C28.9753 44.9565 29.6395 44.9897 30.2197 44.967C31.6455 44.9115 33.6495 45.3747 34.076 46.0976C34.3293 46.5267 34.12 46.8108 33.7253 46.9273C33.2182 47.0769 32.3202 46.6679 31.9607 46.565C30.853 46.2325 29.7578 46.3899 28.7834 46.7987C28.5082 46.9298 28.1787 46.9953 27.9477 46.9621C27.7321 46.9319 27.3533 46.7612 27.4406 45.9707C27.4894 45.4087 27.4554 43.1613 26.7535 42.0323C26.4252 41.5045 25.623 40.4943 24.0128 40.4943C22.4026 40.4943 22.0638 41.5563 22.168 42.2023C22.3854 43.5548 23.0818 43.8167 23.6915 43.8167C24.3007 43.8167 25.0404 43.5981 25.5191 43.3363C25.9978 43.0749 26.1397 43.2942 26.1719 43.6854C26.2937 45.169 26.0655 46.7957 26.0655 46.7957C26.0369 47.1265 26.1088 47.4989 26.3437 47.6485C26.5815 47.8002 26.8705 47.7704 27.1478 47.6559C27.4576 47.5283 27.9487 47.6132 28.3068 47.5903C28.9319 47.5506 29.398 47.4304 30.3852 47.3833C31.2993 47.3396 33.2227 47.4812 34.2673 47.4812C35.229 47.4812 35.7687 46.7831 36.0082 46.2597C36.2354 45.7626 36.2794 44.8101 35.8004 44.3301C35.3222 43.8499 34.7509 43.8943 34.4515 43.9646Z" fill="#F2F2F2"/>
<path d="M34.7808 42.1686C34.278 42.2603 33.8727 42.7785 33.8006 43.2332C33.6815 43.9881 34.5496 43.5203 34.8014 43.6119C34.9665 43.2156 35.4031 42.6474 35.8633 42.6165C36.1083 42.6001 36.1212 42.5334 35.9943 42.4364C35.8118 42.2981 35.2835 42.077 34.7808 42.1686Z" fill="#F2F2F2"/>
<path d="M35.0025 41.8686C35.0025 41.8686 34.9905 41.7354 35.2313 41.4979C35.487 41.2455 35.751 41.31 35.5686 41.127C35.3945 40.9524 34.6504 40.629 34.1475 40.9957C33.6449 41.362 33.7362 42.0035 33.8733 42.4156C33.8733 42.4156 34.3387 41.8902 35.0025 41.8686Z" fill="#F2F2F2"/>
<path d="M36.1578 41.2247C36.1018 41.2357 36.0438 41.2529 35.9844 41.2781C35.7914 41.3605 35.5602 41.6114 35.4241 41.8899C35.4241 41.8899 35.7585 41.9471 36.0067 42.1687C36.0067 42.1687 36.0865 42.0282 36.2383 41.8754C36.3748 41.7379 36.5695 41.5908 36.8194 41.5269C36.8194 41.3882 36.5391 41.1512 36.1578 41.2247Z" fill="#F2F2F2"/>
<path d="M36.0769 39.8011C36.0269 39.793 35.9769 39.7848 35.9267 39.7848C35.6547 39.7848 35.1032 40.0357 34.8325 40.5267C35.454 40.5666 35.7262 40.9249 35.7262 40.9249C35.7262 40.9249 35.8483 40.5804 36.043 40.422C36.0722 40.398 36.0995 40.3791 36.1276 40.3588C36.4642 40.1135 36.7034 40.1034 36.7034 40.1034C36.5136 39.9413 36.2976 39.8359 36.0769 39.8011Z" fill="#F2F2F2"/>
<path d="M36.1279 43.1362C36.108 43.1353 36.0889 43.1343 36.0678 43.1343C35.8328 43.1349 35.3519 43.381 35.2354 43.6498C35.7261 43.7635 36.0401 44.144 36.0401 44.144C36.1018 44.0209 36.1807 43.9142 36.2645 43.8234C36.5186 43.5476 36.8168 43.4186 36.8168 43.4186C36.5987 43.2232 36.4182 43.145 36.1279 43.1362Z" fill="#F2F2F2"/>
<path d="M54.9877 40.4943C53.3777 40.4943 52.5753 41.5045 52.2471 42.0323C51.5451 43.1613 51.5112 45.4087 51.5603 45.9707C51.6475 46.7612 51.269 46.9319 51.0535 46.9621C50.8221 46.9953 50.4926 46.9298 50.2178 46.7987C49.2432 46.3899 48.148 46.2325 47.0403 46.565C46.6801 46.6679 45.7827 47.0769 45.2746 46.9273C44.8809 46.8108 44.6714 46.5267 44.9245 46.0976C45.3515 45.3747 47.3552 44.9115 48.781 44.967C49.3617 44.9897 50.0254 44.9565 50.2543 44.531C50.4284 44.2071 50.4138 43.8711 50.0656 42.3767C49.5442 40.1298 49.9128 38.9735 49.9128 38.9735C49.4778 39.4099 49.4197 40.0756 49.3995 40.5985C49.3643 41.5042 49.5036 42.8565 49.6339 43.3363C49.7642 43.8167 49.7039 44.2092 48.9551 44.3839C48.2448 44.5492 47.5769 44.6455 46.8202 44.5144C46.2211 44.411 45.6389 43.5792 45.5582 43.1165C45.5786 43.2783 45.5812 43.7192 45.2978 43.9154C45.0941 44.0571 44.8515 44.0352 44.5488 43.9646C44.2492 43.8943 43.6786 43.8499 43.2001 44.3301C42.7218 44.8101 42.7658 45.7626 42.9929 46.2597C43.2318 46.7831 43.7715 47.4812 44.733 47.4812C45.7778 47.4812 47.7019 47.3396 48.6155 47.3833C49.6032 47.4304 50.0695 47.5506 50.6937 47.5903C51.0522 47.6132 51.5427 47.5283 51.8525 47.6559C52.1301 47.7704 52.419 47.8002 52.6571 47.6485C52.8915 47.4989 52.9636 47.1265 52.9351 46.7957C52.9351 46.7957 52.7064 45.169 52.8286 43.6854C52.8604 43.2942 53.002 43.0749 53.4822 43.3363C53.9601 43.5981 54.6998 43.8167 55.3097 43.8167C55.9189 43.8167 56.6153 43.5548 56.8326 42.2023C56.9369 41.5563 56.5982 40.4943 54.9877 40.4943Z" fill="#F2F2F2"/>
<path d="M44.2197 42.1686C43.717 42.077 43.1882 42.2981 43.0073 42.4364C42.8798 42.5334 42.8926 42.6001 43.1372 42.6165C43.5972 42.6474 44.034 43.2156 44.1995 43.6119C44.4509 43.5203 45.3195 43.9881 45.1999 43.2332C45.1288 42.7785 44.7225 42.2603 44.2197 42.1686Z" fill="#F2F2F2"/>
<path d="M43.7699 41.4979C44.0106 41.7354 43.9979 41.8686 43.9979 41.8686C44.6617 41.8902 45.1279 42.4156 45.1279 42.4156C45.264 42.0035 45.3559 41.362 44.8527 40.9957C44.3506 40.629 43.6064 40.9524 43.4323 41.127C43.2496 41.31 43.5136 41.2455 43.7699 41.4979Z" fill="#F2F2F2"/>
<path d="M42.1812 41.5269C42.4302 41.5908 42.6262 41.7379 42.7627 41.8754C42.9145 42.0282 42.9945 42.1687 42.9945 42.1687C43.2425 41.9471 43.5761 41.8899 43.5761 41.8899C43.4408 41.6114 43.2088 41.3605 43.0169 41.2781C42.9563 41.2529 42.8986 41.2357 42.8428 41.2247C42.4622 41.1512 42.1812 41.3882 42.1812 41.5269Z" fill="#F2F2F2"/>
<path d="M42.2974 40.1034C42.2974 40.1034 42.5363 40.1133 42.8735 40.359C42.9017 40.3791 42.9287 40.398 42.9581 40.422C43.152 40.5804 43.2743 40.9249 43.2743 40.9249C43.2743 40.9249 43.5465 40.5666 44.1673 40.5267C43.8973 40.0357 43.3456 39.7848 43.0747 39.7848C43.0244 39.7848 42.9744 39.7929 42.9242 39.8009C42.7033 39.8358 42.4873 39.9412 42.2974 40.1034Z" fill="#F2F2F2"/>
<path d="M42.1842 43.4186C42.1842 43.4186 42.4822 43.5476 42.7363 43.8234C42.8203 43.9142 42.8991 44.0209 42.9611 44.144C42.9611 44.144 43.2743 43.7635 43.7657 43.6498C43.6487 43.381 43.1678 43.1349 42.9334 43.1343C42.9119 43.1343 42.893 43.1353 42.8731 43.1362C42.5824 43.145 42.4021 43.2232 42.1842 43.4186Z" fill="#F2F2F2"/>
<path d="M62.4907 50.2408C62.7623 50.2792 63.0755 50.3317 63.4247 50.5414C63.5254 50.6024 63.8418 50.8789 64.1628 51.092C64.5279 51.3337 64.9753 51.5008 65.4158 51.5174C65.8292 51.5329 65.9735 51.4699 66.3844 51.3593C66.727 51.266 67.0099 51.3757 67.1731 51.588C67.3029 51.7582 67.3759 52.0616 67.3416 52.346C67.2862 52.8066 67.1127 53.1862 66.9567 53.4251C66.5422 54.0639 66.5409 54.74 66.5647 55.4549C66.6302 57.3746 66.7697 58.7519 66.2959 58.9889C65.9278 59.1734 65.5974 58.7619 65.1196 58.7342C64.4755 58.6977 64.5732 59.9993 64.371 59.6349C64.2081 59.3403 63.894 59.4025 63.9262 59.7547C63.958 60.106 64.4146 60.6903 65.234 60.7779C66.0061 60.8603 67.1797 60.5747 67.4397 59.3184C67.5593 58.7409 67.7009 57.7665 67.6569 56.2648C67.6071 54.5311 67.5629 53.4864 67.7224 52.7516C67.8821 52.0162 68.454 50.2006 67.1488 49.8732C66.7652 49.7773 66.3827 49.9375 66.1274 50.0972C65.872 50.2571 65.641 50.3241 65.1548 50.1018C64.6898 49.8891 63.9878 49.742 63.1586 49.7334C63.2936 49.4793 63.3891 49.1297 63.4907 48.6631C63.8927 46.8187 63.8382 43.2779 63.511 41.5331C63.4462 41.184 63.1656 41.0968 62.7825 41.1403C62.3035 41.1949 61.9124 41.3272 61.7162 41.5728C61.4114 41.954 61.4625 42.2507 61.9079 43.6901C62.3862 45.239 62.5176 46.6785 62.4733 47.9877C62.4478 48.764 62.3469 49.3411 62.2295 49.7609C62.164 49.9463 62.2295 50.2191 62.4907 50.2408Z" fill="#F2F2F2"/>
<path d="M65.9343 58.5625C65.5938 58.3871 65.2381 58.2767 65.0419 58.2842C64.6173 58.3006 64.4054 58.6442 64.2416 59.0691C64.2416 59.0691 64.3887 58.4969 64.2584 58.1039C64.1884 57.8946 63.8848 57.4531 63.3765 57.3787C63.3765 57.3787 64.6018 57.456 64.7002 56.7982C64.7991 56.1411 64.8197 55.2485 64.7991 54.9202C64.7631 54.3475 64.2412 53.7066 64.0117 53.4767C63.782 53.2466 63.6448 53.1419 63.0869 53.2079C62.5292 53.2735 60.9214 53.8511 59.8124 53.7402C58.8661 53.6448 58.0409 53.0491 58.0736 51.5694C58.2125 51.9317 58.5381 52.2801 58.7352 52.3787C58.7352 52.3787 59.014 52.9772 59.5406 53.1529C60.1273 53.3496 60.7646 53.2403 60.9432 53.1529C60.5352 53.1205 60.123 52.5073 60.2544 52.4594C60.7327 52.2856 61.2622 52.0893 61.7959 51.0087C61.9833 50.6296 62.3431 50.6513 62.4303 50.6601C63.0719 50.7254 63.5959 51.081 64.112 51.6396C64.405 51.9561 64.712 52.2818 64.8008 52.6586C64.8742 52.9688 65.0207 53.2016 65.26 53.35C65.4783 53.4834 66.3039 53.6376 66.2168 54.1613C66.0742 55.0223 66.1878 55.8129 66.2101 56.6915C66.2314 57.5645 66.325 58.764 65.9343 58.5625Z" fill="#F2F2F2"/>
<path d="M63.8236 58.1098C63.4893 57.5501 62.4461 57.5069 62.0118 57.5708C61.6466 57.624 60.9183 57.9303 60.788 58.4213C60.788 58.4213 61.0572 58.6104 61.0982 59.043C61.1321 59.4024 61.0982 59.7571 61.1632 59.7739C61.2383 59.7928 61.2345 59.7752 61.2935 59.4469C61.3727 59.0044 61.5266 58.7644 61.7812 58.536C62.0223 58.3199 62.603 58.2578 62.5044 58.5196C62.4068 58.7816 62.3795 59.0813 62.4033 59.3541C62.4416 59.7823 62.7384 60.1379 62.8282 59.8286C62.922 59.5066 63.3438 59.0472 63.8994 59.0145C63.8994 59.0145 64.0735 58.5297 63.8236 58.1098Z" fill="#F2F2F2"/>
<path d="M60.4454 58.7484C60.7242 58.7484 60.7721 59.4684 60.7721 59.763C60.7721 60.0576 60.674 60.0908 60.5755 60.1555C60.4778 60.2211 60.2822 60.4174 60.3468 60.6469C60.4123 60.8753 60.3799 61.0716 60.1189 60.8753C59.8576 60.6792 59.6623 60.0908 59.7275 59.7302C59.7926 59.37 60.086 58.7484 60.4454 58.7484Z" fill="#F2F2F2"/>
<path d="M62.0936 58.9447C62.0616 58.7455 61.7883 59.1481 61.702 59.37C61.5786 59.6882 61.4957 60.2148 61.561 60.5427C61.626 60.8691 61.702 60.9737 61.8001 60.6793C61.8978 60.3851 62.2106 60.1804 62.0936 59.9269C61.9959 59.7138 61.9628 59.2881 62.0936 58.9447Z" fill="#F2F2F2"/>
<path d="M63.6218 59.4407C63.2783 59.6786 63.0785 60.1539 63.0894 60.4502C63.0978 60.6784 63.1326 60.8014 63.2524 60.9409C63.3477 61.0519 63.4282 61.0418 63.481 60.7775C63.5132 60.6141 63.5791 60.3195 63.7098 60.2212C63.7098 60.2212 63.5237 59.9967 63.6218 59.4407Z" fill="#F2F2F2"/>
<path d="M57.8575 8.47758L57.9318 10.2408H58.5385L58.6039 8.47758H57.9089H57.8575Z" fill="#F2F2F2"/>
<path d="M56.8188 8.66204L56.1295 8.94846L56.8712 10.5488L57.4313 10.316L56.836 8.7096L56.8188 8.66204Z" fill="#F2F2F2"/>
<path d="M55.2964 9.47785L54.7522 9.99022L56.0108 11.2241L56.4528 10.8077L55.3294 9.51637L55.2964 9.47785Z" fill="#F2F2F2"/>
<path d="M54.2372 10.6766L53.8774 11.3321L55.4553 12.1167L55.7468 11.5841L54.2808 10.7029L54.2372 10.6766Z" fill="#F2F2F2"/>
<path d="M53.6256 12.2277L53.5206 12.9682L55.2725 13.1427L55.358 12.5406L53.6754 12.2367L53.6256 12.2277Z" fill="#F2F2F2"/>
<path d="M55.2528 13.7244L53.4959 13.7265L53.4955 14.4377L55.2528 14.4369V13.7571V13.7244Z" fill="#F2F2F2"/>
<path d="M59.6403 8.66204L59.0275 10.316L59.5875 10.5488L60.3288 8.94846L59.6874 8.68162L59.6403 8.66204Z" fill="#F2F2F2"/>
<path d="M61.1783 9.43859L60.0085 10.8079L60.451 11.2242L61.7225 9.95053L61.2161 9.47367L61.1783 9.43859Z" fill="#F2F2F2"/>
<path d="M62.2675 10.6547L60.7137 11.5841L61.0063 12.1167L62.6269 11.3099L62.2916 10.6992L62.2675 10.6547Z" fill="#F2F2F2"/>
<path d="M62.9015 12.2279L61.1033 12.5401L61.1883 13.1425L63.0067 12.9684L62.9078 12.278L62.9015 12.2279Z" fill="#F2F2F2"/>
<path d="M61.2081 13.7244V14.4369L63.0605 14.4377L63.0601 13.7265L61.2408 13.7244H61.2081Z" fill="#F2F2F2"/>
<path d="M57.0463 13.4046C57.1307 13.2992 57.1814 13.3091 57.1953 13.4791C57.2166 13.735 57.3546 14.0074 57.5785 14.1141C57.8619 14.2493 58.0677 14.5404 58.0677 14.8389C58.0677 15.1376 58.0677 15.4197 58.0677 15.761C58.0677 16.2086 57.77 16.3579 57.4291 16.3579C57.0886 16.3579 56.6095 16.2086 56.6095 15.2277C56.6095 14.3747 56.7911 13.7244 57.0463 13.4046Z" fill="#F2F2F2"/>
<path d="M55.7014 12.9944C55.9253 13.1166 56.3319 13.2686 56.7256 13.1166C56.8669 13.062 56.9592 13.122 56.8312 13.2496C56.7046 13.3777 56.3341 13.977 56.3341 14.8758C56.3341 15.0721 56.3403 15.1889 56.3345 15.2487C56.3227 15.3815 56.2329 15.3288 56.1563 15.2918C55.9818 15.2068 55.4863 14.6518 55.4863 13.6284C55.4863 12.7751 55.7014 12.9944 55.7014 12.9944Z" fill="#F2F2F2"/>
<path d="M59.4152 13.4046C59.3311 13.2992 59.2798 13.3091 59.266 13.4791C59.245 13.735 59.1067 14.0074 58.8837 14.1141C58.5999 14.2493 58.394 14.5404 58.394 14.8389C58.394 15.1376 58.394 15.4197 58.394 15.761C58.394 16.2086 58.692 16.3579 59.032 16.3579C59.3725 16.3579 59.8523 16.2086 59.8523 15.2277C59.8523 14.3747 59.6702 13.7244 59.4152 13.4046Z" fill="#F2F2F2"/>
<path d="M58.2313 13.5859H58.9687C59.0324 13.5859 59.0857 13.5216 59.0857 13.4684V12.3807C59.0857 12.3275 59.1389 12.2619 59.2027 12.2619H60.6173C60.6706 12.2619 60.6815 12.1889 60.6663 12.1476C60.3103 11.1595 59.3411 10.4721 58.2313 10.4721C57.1206 10.4721 56.1503 11.1595 55.7948 12.1476C55.7802 12.1889 55.7907 12.2619 55.844 12.2619H57.2584C57.3226 12.2619 57.3754 12.3275 57.3754 12.3807V13.4684C57.3754 13.5216 57.4286 13.5859 57.4928 13.5859H58.2313Z" fill="#F2F2F2"/>
<path d="M60.7514 12.9944C60.528 13.1166 60.1208 13.2686 59.7279 13.1166C59.5862 13.062 59.4937 13.122 59.6219 13.2496C59.7489 13.3777 60.1188 13.977 60.1188 14.8758C60.1188 15.0721 60.1124 15.1889 60.118 15.2487C60.13 15.3815 60.2197 15.3288 60.2961 15.2918C60.4713 15.2068 60.9665 14.6518 60.9665 13.6284C60.9665 12.7751 60.7514 12.9944 60.7514 12.9944Z" fill="#F2F2F2"/>
<path d="M39.496 28.6116C39.3517 28.7562 38.0294 30.0814 38.0294 30.0814L36.5005 28.5492V31.4937C36.8367 31.8309 37.9061 32.9025 38.0294 33.0263C38.1738 32.8819 39.496 31.5565 39.496 31.5565C39.496 31.5565 40.8499 32.9137 40.995 33.059C41.1118 32.9421 42.0889 31.9619 42.4906 31.5591V28.6142L40.995 30.1143C40.995 30.1143 39.6407 28.7564 39.496 28.6116Z" fill="#F2F2F2"/>
<path d="M42.2031 27.3074C42.2847 27.3896 42.3818 27.4546 42.4906 27.4938V25.3455L40.995 26.8454C40.995 26.8454 39.6407 25.4882 39.496 25.3429C39.3517 25.4878 38.0294 26.8131 38.0294 26.8131L36.5005 25.2805V27.4974C36.614 27.4585 36.7134 27.392 36.7978 27.3074C36.7978 27.3074 37.0777 27.9147 36.5977 28.3227C37.0062 28.7318 37.9162 29.644 38.0294 29.7578C38.1738 29.613 39.496 28.2876 39.496 28.2876C39.496 28.2876 40.8499 29.6452 40.995 29.7903C41.1058 29.6788 42.0018 28.781 42.4316 28.3494C41.9088 27.9416 42.2031 27.3074 42.2031 27.3074Z" fill="#F2F2F2"/>
<path d="M39.496 25.019C39.496 25.019 40.8499 26.3767 40.995 26.5215C41.1118 26.4046 42.0889 25.4244 42.4906 25.0216V24.5667C41.6699 24.3188 41.4849 24.0399 41.4849 24.0399C41.4849 24.0399 41.627 23.7584 42.4906 23.4981V22.0769L40.995 23.5768C40.995 23.5768 39.6407 22.2194 39.496 22.0746C39.3517 22.219 38.0294 23.5443 38.0294 23.5443L36.5005 22.012V23.495C37.3725 23.7563 37.5161 24.0399 37.5161 24.0399C37.5161 24.0399 37.3302 24.3209 36.5005 24.5695V24.9566C36.8367 25.2934 37.9061 26.3655 38.0294 26.4888C38.1738 26.3446 39.496 25.019 39.496 25.019Z" fill="#F2F2F2"/>
<path d="M39.496 18.4818C39.496 18.4818 40.8499 19.8392 40.995 19.9843C41.1118 19.8678 42.0889 18.8872 42.4906 18.4844V15.5397L40.995 17.0396C40.995 17.0396 39.6407 15.6822 39.496 15.5371C39.3517 15.682 38.0294 17.0069 38.0294 17.0069L36.5005 15.4745V18.4194C36.8367 18.7562 37.9061 19.828 38.0294 19.952C38.1738 19.8072 39.496 18.4818 39.496 18.4818Z" fill="#F2F2F2"/>
<path d="M42.0831 20.8067C42.0123 20.142 42.1808 19.796 42.4906 19.5713V18.8083L40.995 20.3081C40.995 20.3081 39.6407 18.9507 39.496 18.8059C39.3517 18.9505 38.0294 20.2757 38.0294 20.2757L36.5005 18.7431V19.564C36.8167 19.7887 36.9895 20.1351 36.9176 20.8067C36.9176 20.8067 36.7708 20.6258 36.5005 20.5455V21.6882C36.8367 22.0249 37.9061 23.0966 38.0294 23.2205C38.1738 23.0759 39.496 21.7503 39.496 21.7503C39.496 21.7503 40.8499 23.1082 40.995 23.2528C41.1118 23.1362 42.0889 22.156 42.4906 21.7531V20.5483C42.2265 20.6299 42.0831 20.8067 42.0831 20.8067Z" fill="#F2F2F2"/>
<path d="M52.7845 23.1801C52.5048 22.6647 51.7417 22.4332 50.8283 22.6951C49.9148 22.9567 48.4849 23.2236 47.5277 23.2236C46.5699 23.2236 46.0017 23.0327 45.7217 22.5991C45.5421 22.3211 45.4558 21.8773 45.1994 21.4702C45.0217 21.1887 44.6877 20.9331 44.2545 20.7805C44.2545 20.7805 44.1914 19.5851 43.0352 19.6805C42.9813 19.685 42.9304 19.6942 42.8819 19.7069C42.5262 19.8003 42.3124 20.1001 42.3124 20.3686C42.3124 20.3686 42.439 20.179 42.7615 20.1932C42.8181 20.1956 42.8671 20.2098 42.9132 20.2292C43.1753 20.3398 43.2629 20.6929 43.1397 20.9255C43.1174 20.9471 43.0652 21.0235 42.9493 21.2167C42.7486 21.5513 42.8186 21.8274 42.9057 22.0019C42.9057 22.0019 43.2752 21.7403 43.6343 21.8384C43.6343 21.8384 43.5145 21.7837 43.4714 21.5655C43.4278 21.3475 43.7154 21.2513 43.9501 21.2604C44.2416 21.2714 44.818 21.4293 45.0361 22.0839C45.2535 22.7381 45.5305 23.439 46.6566 23.66C47.3373 23.7936 48.3358 23.9408 48.8336 24.0634C49.3621 24.1936 49.8534 24.3699 49.8863 24.6524C49.9189 24.9358 49.5081 25.1624 49.0942 25.2773C48.7076 25.3841 47.9685 25.4867 47.4625 25.4867C46.4168 25.4867 45.7162 25.4049 45.1906 25.6886C44.9979 25.7975 44.7937 25.9746 44.6877 26.114C44.4043 26.4848 44.1401 26.6119 43.9044 26.6595C43.6461 26.7112 43.4432 26.5433 43.5044 26.3296C43.5532 26.1577 43.6343 26.1084 43.6343 26.1084C43.1859 26.1577 42.9057 25.9446 42.9057 25.9446C42.8186 26.1194 42.7816 26.3767 42.9493 26.6647C42.9903 26.7357 43.1163 26.916 43.1163 26.916C43.2756 27.1902 43.2254 27.5928 42.9418 27.7395C42.8995 27.7615 42.8525 27.7781 42.7992 27.7875C42.4835 27.8422 42.3203 27.695 42.3203 27.695C42.3678 28.089 42.6286 28.2605 42.9392 28.2844C42.9686 28.2868 42.9976 28.2896 43.0279 28.2891C44.0722 28.2775 44.4043 27.1392 44.4043 27.1392C44.7682 26.3696 45.2209 26.1357 45.5038 26.0376C45.7999 25.9347 46.1916 25.9068 47.1929 26.125C48.049 26.3113 48.8258 26.3854 49.4778 26.347C51.3931 26.2341 52.2193 25.7975 52.6109 25.187C53.0024 24.576 53.0464 23.66 52.7845 23.1801Z" fill="#F2F2F2"/>
<path d="M42.8269 24.6384C42.7619 24.7202 42.735 24.8233 42.7531 25.0094C42.7853 25.3348 43.1448 25.729 43.7979 25.729C44.5157 25.729 45.2666 25.2405 45.2666 23.9969C45.2666 22.7536 44.5157 22.2604 43.7979 22.2604C43.1448 22.2604 42.7984 22.6565 42.7531 22.9804C42.7305 23.1437 42.7619 23.2659 42.8194 23.3806C43.3668 23.3811 43.8402 23.6206 43.8402 23.9948C43.8402 24.4544 43.3997 24.6899 42.8269 24.6384Z" fill="#F2F2F2"/>
<path d="M41.8416 24.026C42.194 24.2263 42.5493 24.3193 42.738 24.3574C42.7895 24.3677 42.831 24.3746 42.8533 24.3778C42.9598 24.3918 43.5228 24.4301 43.5228 24.0253C43.5228 23.7055 43.0903 23.6728 42.8533 23.6728C42.8331 23.6728 42.7983 23.6771 42.756 23.684C42.5753 23.7137 42.2146 23.8121 41.8416 24.026Z" fill="#F2F2F2"/>
<path d="M58.3502 39.6092V39.9561C58.3502 39.9806 58.3704 40.0005 58.3942 40.0005H58.9792C59.0034 40.0005 59.0236 39.9806 59.0236 39.9561V39.3449C59.0236 39.3204 59.0034 39.3003 58.9792 39.3003H58.3942C58.3704 39.3003 58.3502 39.3204 58.3502 39.3449V39.6339L57.6501 39.6461C57.6501 39.1415 57.6501 38.6201 57.6501 38.1288L58.3502 38.1217V38.5164C58.3502 38.5405 58.3704 38.5609 58.3942 38.5609H58.9792C59.0034 38.5609 59.0236 38.5405 59.0236 38.5164V37.9053C59.0236 37.8805 59.0034 37.8607 58.9792 37.8607H58.3942C58.3704 37.8607 58.3502 37.8805 58.3502 37.9053V38.1633L57.6501 38.1588C57.6501 37.6115 57.6501 37.173 57.6501 36.808L58.3502 36.8125V37.1747C58.3502 37.199 58.3704 37.2192 58.3942 37.2192H58.9792C59.0034 37.2192 59.0236 37.199 59.0236 37.1747V36.5633C59.0236 36.5388 59.0034 36.5188 58.9792 36.5188H58.3942C58.3704 36.5188 58.3502 36.5388 58.3502 36.5633V36.8581L57.6501 36.8575C57.6501 36.2905 57.6501 35.9858 57.6501 35.9238C57.6501 35.6905 57.7888 35.5044 57.882 35.4577C57.9749 35.4112 57.9749 35.4112 57.9749 35.4112V35.2959L58.3502 35.3004V35.7678C58.3502 35.7921 58.3704 35.8119 58.3942 35.8119H58.9792C59.0034 35.8119 59.0236 35.7921 59.0236 35.7678V35.1564C59.0236 35.1321 59.0034 35.1123 58.9792 35.1123H58.3942C58.3704 35.1123 58.3502 35.1321 58.3502 35.1564V35.326L57.9749 35.3206V34.4091C57.9749 34.4091 59.8421 34.8158 60.959 33.4151C61.0168 33.3426 61.1033 33.4151 61.1033 33.5601C61.1033 33.705 61.0458 34.4005 61.6383 34.5018C61.6383 34.5018 61.0312 34.7338 60.6991 35.1685C60.4348 35.5132 60.2135 36.119 60.2135 37.2519C60.2135 37.2519 60.2135 38.2765 60.2135 38.7193C60.2135 39.6333 60.0907 40.5367 59.5326 40.5367C58.2999 40.5367 57.9749 40.8162 57.9749 40.8162C57.6963 40.8162 57.6501 40.3501 57.6501 40.0705C57.6501 40.0194 57.6501 39.8559 57.6501 39.6213L58.3502 39.6092Z" fill="#F2F2F2"/>
<path d="M64.9115 51.7997C65.3127 51.9502 65.7294 51.9557 66.1194 51.8325C66.5164 51.7069 66.784 51.7602 66.8858 51.9145C66.9843 52.0616 66.9433 52.5111 66.862 52.7158C66.7559 52.9814 66.7306 53.1088 66.576 53.3273C66.4951 53.4401 66.3373 53.4393 66.1898 53.3378C65.9881 53.1987 65.8657 53.1415 65.7191 53.0924C65.5722 53.0432 65.3681 52.9612 65.2867 52.7486C65.2049 52.5359 65.0012 52.0864 64.8703 51.9384C64.7395 51.7917 64.7752 51.7489 64.9115 51.7997Z" fill="#F2F2F2"/>
<path d="M50.2006 40.7451C50.3747 41.1814 50.7768 41.476 51.3323 41.6175C51.4551 41.6492 52.0609 41.5685 52.2131 41.4596C52.2131 41.4596 51.24 42.3866 51.1672 45.0038C51.1563 45.3994 51.1453 45.6525 51.1578 46.0244C51.1634 46.1782 51.2233 46.7225 50.6359 46.504C50.0482 46.2861 49.0691 45.9929 48.4158 45.9809C47.2356 45.9588 46.2118 46.4077 45.9132 46.4985C45.5384 46.6131 45.3802 46.5494 45.304 46.4607C45.0973 46.2207 46.0762 45.4737 48.0679 45.3755C48.7415 45.3423 49.428 45.3318 49.6673 45.3102C49.9069 45.2881 50.373 45.1595 50.5977 44.7698C50.7768 44.4593 50.7768 43.7721 50.6306 43.0849C50.5153 42.5452 50.2062 41.3779 50.2006 40.7451Z" fill="#F2F2F2"/>
<path d="M29.9806 24.6892C29.9806 24.8588 30.8279 25.1669 32.2642 25.0563C32.6305 25.0281 33.2225 25.0563 33.4481 25.1409C33.4481 25.1409 33.1942 24.463 33.3073 23.8411C33.3073 23.8411 32.5676 24.1275 32.1228 24.2089C31.503 24.3216 29.9806 24.4348 29.9806 24.6892Z" fill="#F2F2F2"/>
<path d="M49.1165 24.6892C49.1165 24.8588 48.2694 25.1669 46.8331 25.0563C46.4662 25.0281 45.8746 25.0563 45.6486 25.1409C45.6486 25.1409 45.9027 24.463 45.7898 23.8411C45.7898 23.8411 46.5291 24.1275 46.9739 24.2089C47.5941 24.3216 49.1165 24.4348 49.1165 24.6892Z" fill="#F2F2F2"/>
</g>
<defs>
<clipPath id="clip0_1129_1884">
<rect width="79" height="61" fill="white"/>
</clipPath>
</defs>
</svg>
