<svg width="8" height="30" viewBox="0 0 8 30" fill="none" xmlns="http://www.w3.org/2000/svg">
<path d="M3.64645 29.3536C3.84171 29.5488 4.15829 29.5488 4.35355 29.3536L7.53554 26.1716C7.7308 25.9763 7.7308 25.6597 7.53554 25.4645C7.34027 25.2692 7.02369 25.2692 6.82843 25.4645L4 28.2929L1.17157 25.4645C0.976312 25.2692 0.659729 25.2692 0.464467 25.4645C0.269205 25.6597 0.269205 25.9763 0.464467 26.1716L3.64645 29.3536ZM3.5 2.18557e-08L3.5 1.03571L4.5 1.03571L4.5 -2.18557e-08L3.5 2.18557e-08ZM3.5 3.10714L3.5 5.17857L4.5 5.17857L4.5 3.10714L3.5 3.10714ZM3.5 7.25L3.5 9.32143L4.5 9.32143L4.5 7.25L3.5 7.25ZM3.5 11.3929L3.5 13.4643L4.5 13.4643L4.5 11.3929L3.5 11.3929ZM3.5 15.5357L3.5 17.6071L4.5 17.6071L4.5 15.5357L3.5 15.5357ZM3.5 19.6786L3.5 21.75L4.5 21.75L4.5 19.6786L3.5 19.6786ZM3.5 23.8214L3.5 25.8929L4.5 25.8929L4.5 23.8214L3.5 23.8214ZM3.5 27.9643L3.5 29L4.5 29L4.5 27.9643L3.5 27.9643Z" fill="#656C6F"/>
</svg>
