<svg width="8" height="36" viewBox="0 0 8 36" fill="none" xmlns="http://www.w3.org/2000/svg">
<path d="M3.64645 35.3536C3.84171 35.5488 4.15829 35.5488 4.35355 35.3536L7.53554 32.1716C7.7308 31.9763 7.7308 31.6597 7.53554 31.4645C7.34027 31.2692 7.02369 31.2692 6.82843 31.4645L4 34.2929L1.17157 31.4645C0.976312 31.2692 0.65973 31.2692 0.464467 31.4645C0.269205 31.6597 0.269205 31.9763 0.464468 32.1716L3.64645 35.3536ZM3.5 2.18557e-08L3.5 0.972222L4.5 0.972222L4.5 -2.18557e-08L3.5 2.18557e-08ZM3.5 2.91667L3.5 4.86111L4.5 4.86111L4.5 2.91667L3.5 2.91667ZM3.5 6.80556L3.5 8.75L4.5 8.75L4.5 6.80556L3.5 6.80556ZM3.5 10.6944L3.5 12.6389L4.5 12.6389L4.5 10.6944L3.5 10.6944ZM3.5 14.5833L3.5 16.5278L4.5 16.5278L4.5 14.5833L3.5 14.5833ZM3.5 18.4722L3.5 20.4167L4.5 20.4167L4.5 18.4722L3.5 18.4722ZM3.5 22.3611L3.5 24.3056L4.5 24.3056L4.5 22.3611L3.5 22.3611ZM3.5 26.25L3.5 28.1944L4.5 28.1944L4.5 26.25L3.5 26.25ZM3.5 30.1389L3.5 32.0833L4.5 32.0833L4.5 30.1389L3.5 30.1389ZM3.5 34.0278L3.5 35L4.5 35L4.5 34.0278L3.5 34.0278Z" fill="#656C6F"/>
</svg>
