<svg width="8" height="127" viewBox="0 0 8 127" fill="none" xmlns="http://www.w3.org/2000/svg">
<path d="M3.64645 126.354C3.84171 126.549 4.1583 126.549 4.35356 126.354L7.53554 123.172C7.7308 122.976 7.7308 122.66 7.53554 122.464C7.34028 122.269 7.02369 122.269 6.82843 122.464L4.00001 125.293L1.17158 122.464C0.976316 122.269 0.659734 122.269 0.464471 122.464C0.269209 122.66 0.269209 122.976 0.464471 123.172L3.64645 126.354ZM3.5 2.18557e-08L3.5 0.984375L4.5 0.984375L4.5 -2.18557e-08L3.5 2.18557e-08ZM3.5 2.95313L3.5 4.92188L4.5 4.92188L4.5 2.95313L3.5 2.95313ZM3.5 6.89063L3.5 8.85937L4.5 8.85937L4.5 6.89063L3.5 6.89063ZM3.5 10.8281L3.5 12.7969L4.5 12.7969L4.5 10.8281L3.5 10.8281ZM3.5 14.7656L3.5 16.7344L4.5 16.7344L4.5 14.7656L3.5 14.7656ZM3.5 18.7031L3.5 20.6719L4.5 20.6719L4.5 18.7031L3.5 18.7031ZM3.5 22.6406L3.5 24.6094L4.5 24.6094L4.5 22.6406L3.5 22.6406ZM3.5 26.5781L3.5 28.5469L4.5 28.5469L4.5 26.5781L3.5 26.5781ZM3.5 30.5156L3.5 32.4844L4.5 32.4844L4.5 30.5156L3.5 30.5156ZM3.5 34.4531L3.5 36.4219L4.5 36.4219L4.5 34.4531L3.5 34.4531ZM3.5 38.3906L3.5 40.3594L4.5 40.3594L4.5 38.3906L3.5 38.3906ZM3.5 42.3281L3.5 44.2969L4.5 44.2969L4.5 42.3281L3.5 42.3281ZM3.5 46.2656L3.5 48.2344L4.5 48.2344L4.5 46.2656L3.5 46.2656ZM3.5 50.2031L3.5 52.1719L4.5 52.1719L4.5 50.2031L3.5 50.2031ZM3.5 54.1406L3.5 56.1094L4.5 56.1094L4.5 54.1406L3.5 54.1406ZM3.5 58.0781L3.5 60.0469L4.5 60.0469L4.5 58.0781L3.5 58.0781ZM3.5 62.0156L3.5 63.9844L4.5 63.9844L4.5 62.0156L3.5 62.0156ZM3.5 65.9531L3.5 67.9219L4.5 67.9219L4.5 65.9531L3.5 65.9531ZM3.5 69.8906L3.5 71.8594L4.5 71.8594L4.5 69.8906L3.5 69.8906ZM3.5 73.8281L3.5 75.7969L4.5 75.7969L4.5 73.8281L3.5 73.8281ZM3.5 77.7656L3.5 79.7344L4.5 79.7344L4.5 77.7656L3.5 77.7656ZM3.5 81.7031L3.5 83.6719L4.5 83.6719L4.5 81.7031L3.5 81.7031ZM3.5 85.6406L3.5 87.6094L4.5 87.6094L4.5 85.6406L3.5 85.6406ZM3.5 89.5781L3.5 91.5469L4.5 91.5469L4.5 89.5781L3.5 89.5781ZM3.5 93.5156L3.5 95.4844L4.5 95.4844L4.5 93.5156L3.5 93.5156ZM3.5 97.4531L3.5 99.4219L4.5 99.4219L4.5 97.4531L3.5 97.4531ZM3.5 101.391L3.5 103.359L4.5 103.359L4.5 101.391L3.5 101.391ZM3.5 105.328L3.5 107.297L4.5 107.297L4.5 105.328L3.5 105.328ZM3.5 109.266L3.5 111.234L4.5 111.234L4.5 109.266L3.5 109.266ZM3.5 113.203L3.50001 115.172L4.50001 115.172L4.5 113.203L3.5 113.203ZM3.50001 117.141L3.50001 119.109L4.50001 119.109L4.50001 117.141L3.50001 117.141ZM3.50001 121.078L3.50001 123.047L4.50001 123.047L4.50001 121.078L3.50001 121.078ZM3.50001 125.016L3.50001 126L4.50001 126L4.50001 125.016L3.50001 125.016Z" fill="#656C6F"/>
</svg>
