<svg width="8" height="44" viewBox="0 0 8 44" fill="none" xmlns="http://www.w3.org/2000/svg">
<path d="M3.64645 43.3536C3.84171 43.5488 4.15829 43.5488 4.35356 43.3536L7.53554 40.1716C7.7308 39.9763 7.7308 39.6597 7.53554 39.4645C7.34027 39.2692 7.02369 39.2692 6.82843 39.4645L4 42.2929L1.17157 39.4645C0.976312 39.2692 0.65973 39.2692 0.464468 39.4645C0.269206 39.6597 0.269206 39.9763 0.464468 40.1716L3.64645 43.3536ZM3.5 2.08391e-08L3.5 0.977273L4.5 0.977273L4.5 -2.08391e-08L3.5 2.08391e-08ZM3.5 2.93182L3.5 4.88636L4.5 4.88636L4.5 2.93182L3.5 2.93182ZM3.5 6.84091L3.5 8.79545L4.5 8.79545L4.5 6.84091L3.5 6.84091ZM3.5 10.75L3.5 12.7045L4.5 12.7045L4.5 10.75L3.5 10.75ZM3.5 14.6591L3.5 16.6136L4.5 16.6136L4.5 14.6591L3.5 14.6591ZM3.5 18.5682L3.5 20.5227L4.5 20.5227L4.5 18.5682L3.5 18.5682ZM3.5 22.4773L3.5 24.4318L4.5 24.4318L4.5 22.4773L3.5 22.4773ZM3.5 26.3864L3.5 28.3409L4.5 28.3409L4.5 26.3864L3.5 26.3864ZM3.5 30.2955L3.5 32.25L4.5 32.25L4.5 30.2955L3.5 30.2955ZM3.5 34.2045L3.5 36.1591L4.5 36.1591L4.5 34.2045L3.5 34.2045ZM3.5 38.1136L3.5 40.0682L4.5 40.0682L4.5 38.1136L3.5 38.1136ZM3.5 42.0227L3.5 43L4.5 43L4.5 42.0227L3.5 42.0227Z" fill="#656C6F"/>
</svg>
