<svg width="8" height="52" viewBox="0 0 8 52" fill="none" xmlns="http://www.w3.org/2000/svg">
<path d="M3.64645 51.3536C3.84171 51.5488 4.15829 51.5488 4.35355 51.3536L7.53553 48.1716C7.7308 47.9763 7.7308 47.6597 7.53553 47.4645C7.34027 47.2692 7.02369 47.2692 6.82843 47.4645L4 50.2929L1.17157 47.4645C0.976311 47.2692 0.659728 47.2692 0.464466 47.4645C0.269204 47.6597 0.269204 47.9763 0.464466 48.1716L3.64645 51.3536ZM3.5 0V0.980769H4.5V0L3.5 0ZM3.5 2.94231L3.5 4.90385H4.5V2.94231H3.5ZM3.5 6.86538V8.82692H4.5L4.5 6.86538H3.5ZM3.5 10.7885V12.75H4.5V10.7885H3.5ZM3.5 14.7115V16.6731H4.5V14.7115H3.5ZM3.5 18.6346V20.5962H4.5V18.6346H3.5ZM3.5 22.5577V24.5192H4.5V22.5577H3.5ZM3.5 26.4808V28.4423H4.5V26.4808H3.5ZM3.5 30.4038V32.3654H4.5V30.4038H3.5ZM3.5 34.3269V36.2885H4.5V34.3269H3.5ZM3.5 38.25L3.5 40.2115H4.5V38.25H3.5ZM3.5 42.1731V44.1346H4.5V42.1731H3.5ZM3.5 46.0962L3.5 48.0577H4.5V46.0962H3.5ZM3.5 50.0192V51H4.5V50.0192H3.5Z" fill="#656C6F"/>
</svg>
