<svg width="8" height="45" viewBox="0 0 8 45" fill="none" xmlns="http://www.w3.org/2000/svg">
<path d="M3.64645 44.3536C3.84171 44.5488 4.15829 44.5488 4.35356 44.3536L7.53554 41.1716C7.7308 40.9763 7.7308 40.6597 7.53554 40.4645C7.34027 40.2692 7.02369 40.2692 6.82843 40.4645L4 43.2929L1.17158 40.4645C0.976314 40.2692 0.659731 40.2692 0.464469 40.4645C0.269207 40.6597 0.269207 40.9763 0.464469 41.1716L3.64645 44.3536ZM3.5 3.47704e-08L3.5 1L4.5 1L4.5 -3.47704e-08L3.5 3.47704e-08ZM3.5 3L3.5 5L4.5 5L4.5 3L3.5 3ZM3.5 7L3.5 9L4.5 9L4.5 7L3.5 7ZM3.5 11L3.5 13L4.5 13L4.5 11L3.5 11ZM3.5 15L3.5 17L4.5 17L4.5 15L3.5 15ZM3.5 19L3.5 21L4.5 21L4.5 19L3.5 19ZM3.5 23L3.5 25L4.5 25L4.5 23L3.5 23ZM3.5 27L3.5 29L4.5 29L4.5 27L3.5 27ZM3.5 31L3.5 33L4.5 33L4.5 31L3.5 31ZM3.5 35L3.5 37L4.5 37L4.5 35L3.5 35ZM3.5 39L3.5 41L4.5 41L4.5 39L3.5 39ZM3.5 43L3.5 44L4.5 44L4.5 43L3.5 43Z" fill="#656C6F"/>
</svg>
