<svg width="8" height="48" viewBox="0 0 8 48" fill="none" xmlns="http://www.w3.org/2000/svg">
<path d="M3.64645 47.3536C3.84171 47.5488 4.15829 47.5488 4.35356 47.3536L7.53554 44.1716C7.7308 43.9763 7.7308 43.6597 7.53554 43.4645C7.34027 43.2692 7.02369 43.2692 6.82843 43.4645L4 46.2929L1.17158 43.4645C0.976313 43.2692 0.659731 43.2692 0.464468 43.4645C0.269206 43.6597 0.269206 43.9763 0.464468 44.1716L3.64645 47.3536ZM3.5 2.69709e-08L3.5 0.979167L4.5 0.979167L4.5 -2.69709e-08L3.5 2.69709e-08ZM3.5 2.9375L3.5 4.89583L4.5 4.89583L4.5 2.9375L3.5 2.9375ZM3.5 6.85417L3.5 8.8125L4.5 8.8125L4.5 6.85417L3.5 6.85417ZM3.5 10.7708L3.5 12.7292L4.5 12.7292L4.5 10.7708L3.5 10.7708ZM3.5 14.6875L3.5 16.6458L4.5 16.6458L4.5 14.6875L3.5 14.6875ZM3.5 18.6042L3.5 20.5625L4.5 20.5625L4.5 18.6042L3.5 18.6042ZM3.5 22.5208L3.5 24.4792L4.5 24.4792L4.5 22.5208L3.5 22.5208ZM3.5 26.4375L3.5 28.3958L4.5 28.3958L4.5 26.4375L3.5 26.4375ZM3.5 30.3542L3.5 32.3125L4.5 32.3125L4.5 30.3542L3.5 30.3542ZM3.5 34.2708L3.5 36.2292L4.5 36.2292L4.5 34.2708L3.5 34.2708ZM3.5 38.1875L3.5 40.1458L4.5 40.1458L4.5 38.1875L3.5 38.1875ZM3.5 42.1042L3.5 44.0625L4.5 44.0625L4.5 42.1042L3.5 42.1042ZM3.5 46.0208L3.5 47L4.5 47L4.5 46.0208L3.5 46.0208Z" fill="#656C6F"/>
</svg>
